<svg width="194" height="54" viewBox="0 0 194 54" fill="none" xmlns="http://www.w3.org/2000/svg">
<path d="M2.76427 3.50142C3.728 2.4482 4.86733 1.62138 6.18225 1.02096C7.49716 0.405924 8.922 0.0977263 10.4567 0.0963713C11.9037 0.0950933 13.2559 0.371606 14.5134 0.925914C15.7855 1.46558 16.8897 2.21003 17.826 3.15925C18.7768 4.09385 19.5232 5.20402 20.0652 6.48976C20.6217 7.76088 20.9007 9.11995 20.9019 10.5669C20.9032 11.9993 20.6267 13.3515 20.0724 14.6236C19.5328 15.8957 18.7883 17.0072 17.8391 17.9581C16.9045 18.8943 15.8017 19.6407 14.5305 20.1973C13.274 20.7392 11.9223 21.0108 10.4753 21.012C8.9406 21.0134 7.51523 20.715 6.19924 20.1169C4.88325 19.5188 3.74246 18.694 2.77686 17.6425L2.78501 26.8068C2.78535 27.1869 2.64678 27.5085 2.36931 27.7719C2.10645 28.0352 1.78501 28.167 1.40499 28.1674C1.02497 28.1677 0.695991 28.0364 0.418051 27.7736C0.154731 27.5107 0.0228906 27.1893 0.0225606 26.8093L6.98085e-07 1.4649C-0.000349302 1.07027 0.130911 0.748604 0.393781 0.499894C0.671261 0.236558 1 0.104722 1.38002 0.104387C1.76004 0.104051 2.08171 0.235313 2.34504 0.498171C2.62297 0.746404 2.76211 1.06783 2.76246 1.46247L2.76427 3.50142ZM2.77057 10.5829C2.77151 11.6353 2.96971 12.629 3.36518 13.5641C3.77525 14.4845 4.32408 15.2952 5.01166 15.9962C5.69923 16.6826 6.51092 17.23 7.44672 17.6384C8.3825 18.0468 9.3912 18.2505 10.4728 18.2496C11.5544 18.2486 12.5628 18.0431 13.4978 17.633C14.4329 17.223 15.2436 16.6741 15.93 15.9866C16.6309 15.2844 17.1783 14.4727 17.5721 13.5515C17.9659 12.6158 18.1623 11.6217 18.1614 10.5693C18.1605 9.50238 17.9622 8.50134 17.5668 7.56626C17.1713 6.63117 16.6225 5.82046 15.9203 5.13412C15.2327 4.43315 14.421 3.88576 13.4852 3.49195C12.5494 3.08352 11.5407 2.87979 10.4592 2.88074C9.3922 2.88169 8.3911 3.0872 7.45606 3.49728C6.52098 3.89274 5.70296 4.44157 5.00201 5.14376C4.31566 5.83133 3.76828 6.64301 3.35986 7.5788C2.96605 8.51459 2.76962 9.51597 2.77057 10.5829ZM26.787 3.7433C27.7799 2.61697 28.9703 1.72434 30.3583 1.06538C31.7462 0.406434 33.2441 0.0762473 34.8518 0.0748283L35.0272 0.0746733C35.495 0.0742603 35.8532 0.205489 36.1019 0.46836C36.3506 0.716614 36.4751 1.03806 36.4754 1.43269C36.4758 1.84195 36.3373 2.17824 36.0598 2.44158C35.7823 2.6903 35.4389 2.81484 35.0297 2.8152L34.8543 2.81535C33.7581 2.81632 32.7205 3.02917 31.7416 3.4539C30.7627 3.87864 29.9082 4.46404 29.178 5.21011C28.4479 5.94156 27.864 6.80443 27.4264 7.79872C27.0034 8.79299 26.7924 9.86014 26.7934 11.0002L26.8008 19.3314C26.8012 19.726 26.67 20.0623 26.4071 20.3403C26.1443 20.6036 25.8228 20.7354 25.4428 20.7357C25.0628 20.7361 24.7338 20.6048 24.4559 20.342C24.1779 20.0645 24.0387 19.7285 24.0384 19.3338L24.0225 1.46561C24.0222 1.08559 24.1607 0.763924 24.4382 0.500585C24.7157 0.222632 25.0444 0.0834893 25.4244 0.0831533C25.8191 0.0828043 26.1407 0.221374 26.3895 0.498861C26.6528 0.761724 26.7846 1.08316 26.785 1.46317L26.787 3.7433ZM39.5029 10.5505C39.502 9.48353 39.6984 8.48215 40.0922 7.54637C40.5006 6.61057 41.048 5.79889 41.7344 5.11132C42.4353 4.40913 43.2533 3.8603 44.1884 3.46484C45.1235 3.05476 46.1245 2.84925 47.1915 2.84831C48.2731 2.84735 49.2818 3.05109 50.2176 3.45951C51.1534 3.85332 51.9651 4.40071 52.6526 5.10168C53.3548 5.78802 53.9037 6.59873 54.2991 7.53382C54.6946 8.46891 54.8928 9.46994 54.8938 10.5369C54.8947 11.5892 54.6983 12.5833 54.3044 13.5191C53.9106 14.4403 53.3632 15.2519 52.6623 15.9541C51.9759 16.6417 51.1652 17.1905 50.2302 17.6006C49.2951 18.0107 48.2868 18.2162 47.2052 18.2172C46.1236 18.2181 45.1149 18.0144 44.1791 17.6059C43.2433 17.1975 42.4316 16.6501 41.744 15.9638C41.0564 15.2628 40.5076 14.4521 40.0975 13.5316C39.7021 12.5966 39.5039 11.6028 39.5029 10.5505ZM36.7405 10.5529C36.7418 11.9853 37.0134 13.337 37.5553 14.6082C38.1118 15.8793 38.8656 16.9895 39.8165 17.9387C40.7673 18.8733 41.8788 19.6177 43.1509 20.172C44.423 20.7117 45.7752 20.9809 47.2076 20.9796C48.6546 20.9783 50.0064 20.7067 51.2629 20.1648C52.534 19.6083 53.6369 18.8619 54.5715 17.9256C55.5207 16.9747 56.2651 15.8633 56.8048 14.5912C57.3591 13.3191 57.6356 11.9668 57.6343 10.5345C57.633 9.08751 57.3541 7.72844 56.7975 6.45732C56.2556 5.17158 55.5092 4.06141 54.5583 3.12682C53.622 2.17759 52.5178 1.43314 51.2457 0.893474C49.9883 0.339168 48.636 0.0626553 47.189 0.0639323C45.7566 0.0651973 44.4049 0.344098 43.1338 0.900634C41.8627 1.44255 40.7525 2.18896 39.8033 3.13985C38.8541 4.07612 38.1023 5.18761 37.5481 6.47432C37.0084 7.74641 36.7392 9.10595 36.7405 10.5529ZM62.3273 10.4207L62.2836 10.5084L62.3055 10.5523L62.3275 10.5742C62.3284 11.5681 62.5119 12.5179 62.8781 13.4238C63.2589 14.3297 63.7785 15.1331 64.4369 15.8341C65.0952 16.5205 65.8704 17.0752 66.7623 17.4983C67.6689 17.9214 68.6484 18.1324 69.7008 18.1315C70.6654 18.1453 71.5788 18.0056 72.4409 17.7125C73.303 17.4195 74.1065 16.9364 74.8513 16.2634C74.9973 16.1463 75.1507 16.0366 75.3114 15.9341C75.4721 15.8317 75.6401 15.7585 75.8155 15.7144C76.0054 15.6704 76.2028 15.6703 76.4074 15.7139C76.6121 15.7576 76.8241 15.8743 77.0435 16.0642C77.3361 16.327 77.4826 16.663 77.4829 17.0723C77.4833 17.4669 77.3155 17.8325 76.9796 18.1689C76.1034 19.0467 75.0444 19.7273 73.8024 20.2107C72.5605 20.6941 71.2745 20.9364 69.9444 20.9376C68.512 20.9389 67.1598 20.677 65.8877 20.1519C64.6303 19.6122 63.5261 18.8824 62.5752 17.9624C61.639 17.0278 60.8926 15.9323 60.336 14.6758C59.7941 13.4192 59.5225 12.0748 59.5212 10.6424L59.565 10.5108C59.5357 10.4816 59.5211 10.4524 59.521 10.4232C59.5198 8.99083 59.789 7.6459 60.3286 6.38843C60.8829 5.11634 61.6274 4.01216 62.562 3.0759C63.5112 2.12501 64.614 1.37861 65.8705 0.836704C67.1417 0.28017 68.4934 0.00126929 69.9258 4.28559e-06C71.2559 -0.00116971 72.5423 0.23886 73.7851 0.720094C75.0279 1.20133 76.0882 1.88004 76.9659 2.75624C77.3024 3.09211 77.4708 3.46468 77.4712 3.87393C77.4715 4.26857 77.3184 4.60487 77.0117 4.88285C76.7926 5.07306 76.5808 5.19017 76.3762 5.2342C76.1862 5.27822 75.9962 5.27838 75.8061 5.2347C75.6307 5.19101 75.4626 5.11808 75.3017 5.01591C75.1408 4.91374 74.9873 4.80425 74.841 4.68745C74.095 4.03038 73.2907 3.54876 72.428 3.24258C71.5654 2.9364 70.6518 2.79105 69.6871 2.80652C68.6494 2.82205 67.6849 3.04214 66.7937 3.4668C65.9025 3.87684 65.121 4.43294 64.4493 5.13511C63.7922 5.83727 63.274 6.64892 62.8948 7.57008C62.5156 8.47661 62.3265 9.42684 62.3273 10.4207ZM80.3914 1.39391C80.3911 0.999274 80.5223 0.677604 80.7852 0.4289C81.048 0.165577 81.3841 0.0337353 81.7933 0.0333733C82.1734 0.0330383 82.4877 0.164305 82.7364 0.427177C82.9997 0.675414 83.1316 0.996854 83.1319 1.39149L83.1402 10.6873C83.1569 13.0259 83.6774 14.8159 84.7016 16.0574C85.7405 17.2988 87.1734 17.9188 89.0004 17.9172C89.9066 17.9164 90.7542 17.7329 91.5431 17.3668C92.3467 17.0007 93.0405 16.4958 93.6246 15.8522C94.2233 15.1939 94.6903 14.4262 95.0257 13.5489C95.3757 12.6716 95.5503 11.7214 95.5493 10.6983L95.5411 1.42438C95.5408 1.04436 95.672 0.715384 95.9348 0.437445C96.1977 0.159506 96.5191 0.0203693 96.8991 0.0200333C97.2792 0.0196973 97.6008 0.158267 97.8638 0.435742C98.142 0.713204 98.281 1.04194 98.282 1.42196L98.298 19.2902C98.298 19.6848 98.16 20.0211 97.8818 20.2991C97.619 20.5624 97.2976 20.6942 96.9175 20.6945C96.5229 20.6949 96.1939 20.5636 95.9306 20.3008C95.6819 20.0233 95.5573 19.6872 95.557 19.2926L95.5549 16.9467C94.6935 18.0729 93.6712 18.98 92.4879 19.668C91.3046 20.3414 90.0406 20.6787 88.6959 20.6799C87.4243 20.681 86.2767 20.4482 85.2532 19.9813C84.2443 19.4999 83.374 18.821 82.6424 17.9447C81.9254 17.0684 81.3691 16.0092 80.9733 14.7672C80.5922 13.5251 80.401 12.1367 80.3996 10.602L80.3914 1.39391ZM105.406 3.67387C106.399 2.54754 107.589 1.65491 108.977 0.995954C110.365 0.337005 111.863 0.00681828 113.471 0.00539928L113.646 0.00524428C114.114 0.00483128 114.472 0.13606 114.721 0.398931C114.97 0.647184 115.094 0.968634 115.095 1.36326C115.095 1.77252 114.956 2.10881 114.679 2.37215C114.401 2.62087 114.058 2.74541 113.649 2.74577L113.473 2.74592C112.377 2.74689 111.34 2.95974 110.361 3.38448C109.382 3.80921 108.527 4.39461 107.797 5.14068C107.067 5.87213 106.483 6.735 106.046 7.72929C105.623 8.72356 105.412 9.79074 105.413 10.9307L105.42 19.262C105.42 19.6566 105.289 19.9929 105.026 20.2708C104.763 20.5341 104.442 20.666 104.062 20.6663C103.682 20.6666 103.353 20.5354 103.075 20.2725C102.797 19.9951 102.658 19.659 102.658 19.2644L102.642 1.39619C102.641 1.01617 102.78 0.694494 103.057 0.431156C103.335 0.153203 103.664 0.0140603 104.044 0.0137243C104.438 0.0133753 104.76 0.151945 105.009 0.429432C105.272 0.692294 105.404 1.01373 105.404 1.39375L105.406 3.67387ZM134.961 11.7159C135.356 11.7155 135.677 11.591 135.925 11.3423C136.174 11.079 136.298 10.7573 136.297 10.3773C136.281 8.94497 135.995 7.60053 135.439 6.34403C134.882 5.07291 134.128 3.97006 133.177 3.03546C132.241 2.10085 131.137 1.36371 129.865 0.824044C128.593 0.284367 127.241 0.0151623 125.808 0.0164273C124.361 0.0177053 123.002 0.296613 121.731 0.853154C120.475 1.39505 119.372 2.14145 118.422 3.09234C117.473 4.02861 116.721 5.1328 116.167 6.40489C115.628 7.66236 115.358 9.0146 115.36 10.4616C115.361 11.9086 115.632 13.2676 116.174 14.5387C116.731 15.8099 117.485 16.92 118.436 17.8692C119.386 18.8038 120.491 19.5483 121.748 20.1026C123.02 20.6423 124.38 20.9115 125.827 20.9102C126.66 20.9094 127.434 20.8284 128.151 20.667C128.867 20.5202 129.524 20.315 130.123 20.0513C130.737 19.7731 131.292 19.451 131.789 19.0852C132.285 18.7194 132.731 18.317 133.125 17.8782C133.461 17.5856 133.629 17.2639 133.628 16.9131C133.643 16.5623 133.547 16.2627 133.342 16.0144C133.196 15.7369 132.991 15.5543 132.728 15.4669C132.509 15.394 132.282 15.3796 132.048 15.4236C131.829 15.453 131.595 15.5702 131.347 15.775C130.734 16.521 129.952 17.1209 129.003 17.5749C128.053 18.0142 126.994 18.2344 125.824 18.2354C124.874 18.2363 123.975 18.069 123.127 17.7335C122.279 17.3981 121.526 16.9384 120.868 16.3543C120.21 15.7702 119.661 15.0838 119.222 14.2949C118.797 13.506 118.526 12.6512 118.408 11.7305L134.961 11.7159ZM118.34 9.4066C118.427 8.4711 118.682 7.59389 119.105 6.77501C119.528 5.94152 120.076 5.22484 120.748 4.62499C121.42 4.01051 122.186 3.5275 123.049 3.17595C123.925 2.82439 124.86 2.64817 125.854 2.64729C126.848 2.64642 127.784 2.82098 128.661 3.171C129.538 3.50639 130.313 3.98073 130.986 4.59402C131.674 5.19267 132.23 5.90838 132.655 6.74112C133.094 7.55924 133.365 8.44328 133.468 9.39324L118.34 9.4066Z" fill="white"/>
<path d="M150.131 10.4639C150.131 9.01907 150.401 7.66182 150.941 6.39215C151.496 5.10788 152.247 3.99874 153.196 3.06473C154.144 2.11612 155.254 1.37183 156.523 0.831858C157.793 0.277288 159.143 0 160.573 0C162.003 0 163.346 0.269989 164.601 0.809968C165.856 1.34994 166.951 2.08694 167.885 3.02095C168.833 3.94037 169.578 5.02762 170.118 6.2827C170.672 7.53778 170.964 8.88042 170.993 10.3107V19.1984C170.993 19.5924 170.855 19.9281 170.577 20.2054C170.315 20.4826 169.986 20.6213 169.592 20.6213C169.198 20.6213 168.87 20.4826 168.607 20.2054C168.359 19.9281 168.235 19.5924 168.235 19.1984L168.213 17.3158C167.25 18.3811 166.111 19.2422 164.798 19.8989C163.499 20.5556 162.091 20.884 160.573 20.884C159.143 20.884 157.793 20.614 156.523 20.074C155.254 19.5194 154.144 18.7751 153.196 17.8411C152.247 16.8925 151.496 15.7834 150.941 14.5137C150.401 13.244 150.131 11.8941 150.131 10.4639ZM152.889 10.4639C152.889 11.5147 153.086 12.507 153.48 13.4411C153.889 14.3605 154.436 15.1704 155.122 15.871C155.808 16.5569 156.618 17.1041 157.552 17.5128C158.486 17.9214 159.493 18.1257 160.573 18.1257C161.653 18.1257 162.66 17.9214 163.594 17.5128C164.528 17.1041 165.338 16.5569 166.024 15.871C166.71 15.1704 167.25 14.3605 167.644 13.4411C168.038 12.507 168.235 11.5147 168.235 10.4639C168.235 9.39847 168.038 8.39882 167.644 7.46481C167.25 6.53079 166.71 5.72083 166.024 5.03491C165.338 4.3344 164.528 3.78713 163.594 3.39309C162.66 2.98446 161.653 2.78015 160.573 2.78015C159.508 2.78015 158.508 2.98446 157.574 3.39309C156.64 3.78713 155.823 4.3344 155.122 5.03491C154.436 5.72083 153.889 6.53079 153.48 7.46481C153.086 8.39882 152.889 9.39847 152.889 10.4639ZM192.068 0C192.476 0 192.812 0.153239 193.075 0.459709C193.25 0.634838 193.359 0.839148 193.403 1.07266C193.447 1.30616 193.432 1.53237 193.359 1.75127C193.315 1.941 193.242 2.09423 193.14 2.21098L193.009 2.36422L178.386 17.9287H192.484C192.878 17.9287 193.206 18.06 193.469 18.3227C193.746 18.5708 193.885 18.8846 193.885 19.264C193.885 19.6435 193.746 19.9646 193.469 20.2272C193.206 20.4899 192.878 20.6213 192.484 20.6213H175.54C175.263 20.6213 175.015 20.5556 174.796 20.4243C174.591 20.2929 174.431 20.1251 174.314 19.9208C174.168 19.6873 174.102 19.4392 174.117 19.1765C174.146 18.8992 174.248 18.6511 174.424 18.4322L174.445 18.3884L174.533 18.3008L189.156 2.71448H175.715C175.336 2.71448 175.007 2.58313 174.73 2.32044C174.467 2.05775 174.336 1.73668 174.336 1.35724C174.336 0.977798 174.467 0.656728 174.73 0.394039C175.007 0.131349 175.336 0 175.715 0H192.068Z" fill="white"/>
<path fill-rule="evenodd" clip-rule="evenodd" d="M142.307 31.6156H144.207C145.607 31.6156 146.707 30.4156 146.707 29.1156V17.0156C146.707 15.6156 145.607 14.5156 144.207 14.5156H142.307C140.907 14.5156 139.807 15.6156 139.807 17.0156V29.1156C139.807 30.5156 140.907 31.6156 142.307 31.6156ZM145.6 18.216C145.6 19.4862 144.571 20.516 143.3 20.516C142.03 20.516 141 19.4862 141 18.216C141 16.9457 142.03 15.916 143.3 15.916C144.571 15.916 145.6 16.9457 145.6 18.216Z" fill="white"/>
<path d="M136.598 28H6.40246C6.20123 28 6 27.7143 6 27.4286V26.5714C6 26.2857 6.20123 26 6.40246 26H136.598C136.799 26 137 26.2857 137 26.5714V27.4286C137 27.7143 136.799 28 136.598 28Z" fill="white"/>
<path d="M193.61 28H150.39C150.194 28 150 27.7143 150 27.4286V26.5714C150 26.2857 150.194 26 150.39 26H193.61C193.806 26 194 26.2857 194 26.5714V27.4286C194 27.7143 193.806 28 193.61 28Z" fill="white"/>
<path d="M5.6353 53.2002C4.78197 53.2002 3.98197 53.0735 3.2353 52.8202C2.50197 52.5669 1.86197 52.2135 1.3153 51.7602C0.768625 51.2935 0.361965 50.7535 0.0952954 50.1402C-0.0247046 49.9135 -0.0313746 49.7002 0.0752954 49.5002C0.195295 49.3002 0.388626 49.1669 0.655295 49.1002C0.855295 49.0469 1.0553 49.0735 1.2553 49.1802C1.4553 49.2735 1.60197 49.4269 1.6953 49.6402C1.8953 50.0135 2.18197 50.3535 2.5553 50.6602C2.94197 50.9535 3.3953 51.1869 3.9153 51.3602C4.44863 51.5202 5.02197 51.6002 5.6353 51.6002C6.32863 51.6002 6.94863 51.4869 7.4953 51.2602C8.04197 51.0335 8.4753 50.7069 8.7953 50.2802C9.1153 49.8535 9.2753 49.3335 9.2753 48.7202C9.2753 47.9469 8.982 47.2735 8.3953 46.7002C7.80863 46.1135 6.8753 45.7469 5.5953 45.6002C4.00863 45.4135 2.76197 44.9269 1.8553 44.1402C0.961965 43.3535 0.515296 42.3802 0.515296 41.2202C0.515296 40.3935 0.741966 39.6802 1.1953 39.0802C1.64863 38.4669 2.26863 38.0002 3.0553 37.6802C3.84197 37.3469 4.7353 37.1802 5.7353 37.1802C6.4953 37.1802 7.17529 37.3002 7.77529 37.5402C8.37529 37.7669 8.8953 38.0735 9.3353 38.4602C9.7886 38.8469 10.162 39.2802 10.4553 39.7602C10.6153 40.0002 10.6686 40.2335 10.6153 40.4602C10.5753 40.6735 10.4553 40.8402 10.2553 40.9602C10.042 41.0669 9.8153 41.0869 9.5753 41.0202C9.3486 40.9402 9.1753 40.7935 9.0553 40.5802C8.8553 40.2602 8.60197 39.9669 8.2953 39.7002C8.00197 39.4202 7.64197 39.2002 7.2153 39.0402C6.78863 38.8802 6.28197 38.7935 5.6953 38.7802C4.66863 38.7802 3.82863 38.9935 3.1753 39.4202C2.52197 39.8469 2.1953 40.4802 2.1953 41.3202C2.1953 41.7469 2.30863 42.1535 2.5353 42.5402C2.7753 42.9135 3.16863 43.2335 3.7153 43.5002C4.2753 43.7669 5.0353 43.9669 5.9953 44.1002C7.64863 44.3135 8.8886 44.8135 9.7153 45.6002C10.542 46.3869 10.9553 47.4202 10.9553 48.7002C10.9553 49.4335 10.8153 50.0802 10.5353 50.6402C10.2686 51.2002 9.8886 51.6735 9.3953 52.0602C8.902 52.4335 8.32863 52.7202 7.6753 52.9202C7.0353 53.1069 6.3553 53.2002 5.6353 53.2002ZM18.7337 53.1002C17.7204 53.1002 16.8137 52.8602 16.0137 52.3802C15.2137 51.8869 14.5804 51.2202 14.1137 50.3802C13.6471 49.5402 13.4137 48.5935 13.4137 47.5402C13.4137 46.4735 13.6537 45.5202 14.1337 44.6802C14.6271 43.8402 15.2937 43.1802 16.1337 42.7002C16.9737 42.2069 17.9204 41.9602 18.9737 41.9602C20.0137 41.9602 20.9471 42.2069 21.7737 42.7002C22.6137 43.1802 23.2737 43.8402 23.7537 44.6802C24.2471 45.5202 24.5004 46.4735 24.5137 47.5402L23.8337 47.8802C23.8337 48.8669 23.6071 49.7535 23.1537 50.5402C22.7137 51.3269 22.1071 51.9535 21.3337 52.4202C20.5737 52.8735 19.7071 53.1002 18.7337 53.1002ZM18.9737 51.5802C19.7204 51.5802 20.3804 51.4069 20.9537 51.0602C21.5404 50.7002 22.0004 50.2135 22.3337 49.6002C22.6804 48.9869 22.8537 48.3002 22.8537 47.5402C22.8537 46.7669 22.6804 46.0802 22.3337 45.4802C22.0004 44.8669 21.5404 44.3802 20.9537 44.0202C20.3804 43.6602 19.7204 43.4802 18.9737 43.4802C18.2404 43.4802 17.5737 43.6602 16.9737 44.0202C16.3871 44.3802 15.9204 44.8669 15.5737 45.4802C15.2271 46.0802 15.0537 46.7669 15.0537 47.5402C15.0537 48.3002 15.2271 48.9869 15.5737 49.6002C15.9204 50.2135 16.3871 50.7002 16.9737 51.0602C17.5737 51.4069 18.2404 51.5802 18.9737 51.5802ZM23.6537 53.0002C23.4137 53.0002 23.2071 52.9269 23.0337 52.7802C22.8737 52.6202 22.7937 52.4135 22.7937 52.1602V48.8602L23.1737 47.1202L24.5137 47.5402V52.1602C24.5137 52.4135 24.4337 52.6202 24.2737 52.7802C24.1137 52.9269 23.9071 53.0002 23.6537 53.0002ZM32.2494 53.1002C31.236 53.1002 30.3294 52.8602 29.5294 52.3802C28.7294 51.8869 28.096 51.2202 27.6294 50.3802C27.1627 49.5402 26.9294 48.5935 26.9294 47.5402C26.9294 46.4735 27.1694 45.5202 27.6494 44.6802C28.1427 43.8402 28.8094 43.1802 29.6494 42.7002C30.4894 42.2069 31.436 41.9602 32.4894 41.9602C33.5294 41.9602 34.4627 42.2069 35.2894 42.7002C36.1294 43.1802 36.7894 43.8402 37.2694 44.6802C37.7627 45.5202 38.016 46.4735 38.0294 47.5402L37.3494 47.8802C37.3494 48.8669 37.1227 49.7535 36.6694 50.5402C36.2294 51.3269 35.6227 51.9535 34.8494 52.4202C34.0894 52.8735 33.2227 53.1002 32.2494 53.1002ZM32.4894 51.5802C33.236 51.5802 33.896 51.4069 34.4694 51.0602C35.056 50.7002 35.516 50.2135 35.8494 49.6002C36.196 48.9869 36.3694 48.3002 36.3694 47.5402C36.3694 46.7669 36.196 46.0802 35.8494 45.4802C35.516 44.8669 35.056 44.3802 34.4694 44.0202C33.896 43.6602 33.236 43.4802 32.4894 43.4802C31.756 43.4802 31.0894 43.6602 30.4894 44.0202C29.9027 44.3802 29.436 44.8669 29.0894 45.4802C28.7427 46.0802 28.5694 46.7669 28.5694 47.5402C28.5694 48.3002 28.7427 48.9869 29.0894 49.6002C29.436 50.2135 29.9027 50.7002 30.4894 51.0602C31.0894 51.4069 31.756 51.5802 32.4894 51.5802ZM37.1694 53.0002C36.9294 53.0002 36.7227 52.9269 36.5494 52.7802C36.3894 52.6202 36.3094 52.4135 36.3094 52.1602V48.8602L36.6894 47.1202L38.0294 47.5402V52.1602C38.0294 52.4135 37.9494 52.6202 37.7894 52.7802C37.6294 52.9269 37.4227 53.0002 37.1694 53.0002ZM46.065 53.2002C45.2117 53.2002 44.4117 53.0735 43.665 52.8202C42.9317 52.5669 42.2917 52.2135 41.745 51.7602C41.1983 51.2935 40.7917 50.7535 40.525 50.1402C40.405 49.9135 40.3983 49.7002 40.505 49.5002C40.625 49.3002 40.8183 49.1669 41.085 49.1002C41.285 49.0469 41.485 49.0735 41.685 49.1802C41.885 49.2735 42.0317 49.4269 42.125 49.6402C42.325 50.0135 42.6117 50.3535 42.985 50.6602C43.3717 50.9535 43.825 51.1869 44.345 51.3602C44.8783 51.5202 45.4517 51.6002 46.065 51.6002C46.7583 51.6002 47.3783 51.4869 47.925 51.2602C48.4717 51.0335 48.905 50.7069 49.225 50.2802C49.545 49.8535 49.705 49.3335 49.705 48.7202C49.705 47.9469 49.4117 47.2735 48.825 46.7002C48.2383 46.1135 47.305 45.7469 46.025 45.6002C44.4383 45.4135 43.1917 44.9269 42.285 44.1402C41.3917 43.3535 40.945 42.3802 40.945 41.2202C40.945 40.3935 41.1717 39.6802 41.625 39.0802C42.0783 38.4669 42.6983 38.0002 43.485 37.6802C44.2717 37.3469 45.165 37.1802 46.165 37.1802C46.925 37.1802 47.605 37.3002 48.205 37.5402C48.805 37.7669 49.325 38.0735 49.765 38.4602C50.2183 38.8469 50.5917 39.2802 50.885 39.7602C51.045 40.0002 51.0983 40.2335 51.045 40.4602C51.005 40.6735 50.885 40.8402 50.685 40.9602C50.4717 41.0669 50.245 41.0869 50.005 41.0202C49.7783 40.9402 49.605 40.7935 49.485 40.5802C49.285 40.2602 49.0317 39.9669 48.725 39.7002C48.4317 39.4202 48.0717 39.2002 47.645 39.0402C47.2183 38.8802 46.7117 38.7935 46.125 38.7802C45.0983 38.7802 44.2583 38.9935 43.605 39.4202C42.9517 39.8469 42.625 40.4802 42.625 41.3202C42.625 41.7469 42.7383 42.1535 42.965 42.5402C43.205 42.9135 43.5983 43.2335 44.145 43.5002C44.705 43.7669 45.465 43.9669 46.425 44.1002C48.0783 44.3135 49.3183 44.8135 50.145 45.6002C50.9717 46.3869 51.385 47.4202 51.385 48.7002C51.385 49.4335 51.245 50.0802 50.965 50.6402C50.6983 51.2002 50.3183 51.6735 49.825 52.0602C49.3317 52.4335 48.7583 52.7202 48.105 52.9202C47.465 53.1069 46.785 53.2002 46.065 53.2002Z" fill="white"/>
</svg>
