<svg width="124" height="52" viewBox="0 0 124 52" fill="none" xmlns="http://www.w3.org/2000/svg">
<path d="M24.6915 39.1959L27.8352 42.3691L32.578 50.0878L33.3547 51.9985L24.6255 45.7575C24.6255 45.7575 23.7801 42.3321 23.7744 38.6801C23.7701 35.0266 24.6915 39.1959 24.6915 39.1959ZM10.0789 24.3115C10.0789 24.3115 4.88042 31.852 4.83313 33.0247C5.67853 32.6172 11.5147 28.257 15.372 30.5853L10.0789 24.3115V24.3115Z" fill="white"/>
<path d="M47 0C47 0 25.0439 12.2327 24.7445 36.1595C24.7445 36.1595 31.0635 43.9821 33.3547 52C33.3346 51.9345 33.2916 51.943 33.23 51.8148C33.1326 51.6153 32.9878 51.2363 32.8102 50.8758C31.4016 48.0174 27.1746 40.7077 19.6635 34.2758C10.6005 26.5115 13.3015 28.7073 13.3015 28.7073C13.3015 28.7073 10.0961 26.5115 9.28652 21.4532C9.28652 21.4532 7.18734 12.9651 5.46502 10.7579C5.38764 10.6582 0.0759428 3.88853 0 3.81871C0.790951 4.44424 6.49813 12.6587 10.8011 11.7782C11.3599 11.7482 15.7603 11.439 16.7518 18.0078C17.8451 16.2067 29.8197 5.72807 47 0V0Z" fill="white"/>
<path d="M24.6914 39.1959L28.576 43.5746L29.2336 44.3298L29.7051 44.9995L30.2868 45.8958L30.6594 46.5655L31.8716 48.9379L33.3546 51.9986L26.4051 47.03L25.3964 43.2882L24.6914 39.1959V39.1959Z" fill="white"/>
<path d="M33.3375 51.9629L32.8503 50.9598C32.9377 51.1436 33.0165 51.326 33.0839 51.4855C33.1412 51.6166 33.1885 51.7321 33.23 51.8147C33.263 51.8845 33.2916 51.913 33.3131 51.9358C33.3219 51.9447 33.3301 51.9542 33.3375 51.9643V51.9629ZM32.8073 50.8714C31.8344 48.8965 29.5203 44.8057 25.7117 40.3472L28.576 43.5745L29.2323 44.3297L29.7051 44.9994L30.2869 45.8957L30.658 46.5654L31.8716 48.9393L32.8087 50.8714H32.8073Z" fill="white"/>
<path d="M47.6491 29.7486V31.5919H40.6552V29.7486H47.6491ZM47.513 24.0876L41.6421 31.5919H40V30.191L45.8453 22.7276H47.513V24.0876ZM46.6451 22.7276V24.5791H40.1361V22.7276H46.6451Z" fill="white"/>
<path d="M54.1581 29.5929V25.6441C54.1581 25.3601 54.1099 25.1171 54.0134 24.915C53.917 24.7075 53.7667 24.5463 53.5625 24.4316C53.364 24.3169 53.1059 24.2596 52.7882 24.2596C52.5159 24.2596 52.2805 24.306 52.082 24.3989C51.8835 24.4863 51.7303 24.6146 51.6226 24.7839C51.5148 24.9478 51.4609 25.1417 51.4609 25.3656H49.0105C49.0105 24.9887 49.1012 24.631 49.2827 24.2924C49.4642 23.9537 49.728 23.6561 50.074 23.3994C50.42 23.1372 50.8313 22.9324 51.3077 22.7849C51.7899 22.6375 52.3288 22.5637 52.9243 22.5637C53.6391 22.5637 54.2744 22.6784 54.8302 22.9078C55.3861 23.1372 55.8229 23.4813 56.1405 23.9401C56.4639 24.3989 56.6255 24.9724 56.6255 25.6605V29.4537C56.6255 29.9398 56.6567 30.3385 56.7191 30.6498C56.7815 30.9556 56.8723 31.2232 56.9914 31.4526V31.5919H54.5154C54.3963 31.3516 54.3056 31.0512 54.2432 30.6907C54.1864 30.3248 54.1581 29.9589 54.1581 29.5929ZM54.4814 26.193L54.4984 27.5284H53.1285C52.8052 27.5284 52.5244 27.5639 52.2862 27.6349C52.048 27.7059 51.8523 27.807 51.6991 27.938C51.546 28.0637 51.4325 28.2111 51.3588 28.3804C51.2907 28.5498 51.2567 28.7355 51.2567 28.9375C51.2567 29.1396 51.3049 29.3226 51.4013 29.4864C51.4978 29.6448 51.6367 29.7704 51.8182 29.8633C51.9998 29.9507 52.2125 29.9944 52.4564 29.9944C52.8251 29.9944 53.1456 29.9234 53.4178 29.7814C53.6901 29.6394 53.9 29.4646 54.0475 29.257C54.2006 29.0495 54.28 28.8529 54.2857 28.6672L54.9323 29.6667C54.8416 29.8906 54.7168 30.1227 54.558 30.363C54.4048 30.6033 54.2091 30.83 53.9709 31.043C53.7327 31.2506 53.4462 31.4226 53.1115 31.5591C52.7769 31.6902 52.3798 31.7558 51.9203 31.7558C51.3361 31.7558 50.8057 31.6438 50.3293 31.4199C49.8585 31.1905 49.4841 30.8764 49.2062 30.4777C48.9339 30.0736 48.7977 29.6148 48.7977 29.1014C48.7977 28.6371 48.8885 28.2248 49.07 27.8643C49.2515 27.5038 49.5181 27.2007 49.8698 26.9549C50.2272 26.7037 50.6724 26.5153 51.2056 26.3897C51.7388 26.2586 52.3571 26.193 53.0605 26.193H54.4814Z" fill="white"/>
<path d="M60.9648 19V31.5919H58.5144V19H60.9648ZM66.7676 22.7276L62.7686 27.1188L60.6245 29.2079L59.7311 27.5038L61.4328 25.4229L63.8237 22.7276H66.7676ZM64.2236 31.5919L61.5009 27.4956L63.1941 26.0701L67.0484 31.5919H64.2236Z" fill="white"/>
<path d="M73.2681 29.47V22.7276H75.7185V31.5919H73.4127L73.2681 29.47ZM73.5403 27.6513L74.2636 27.6349C74.2636 28.2248 74.1927 28.7737 74.0508 29.2816C73.909 29.7841 73.6963 30.221 73.4127 30.5924C73.1291 30.9584 72.7717 31.2451 72.3406 31.4526C71.9095 31.6547 71.4019 31.7558 70.8176 31.7558C70.3695 31.7558 69.9554 31.6957 69.5754 31.5755C69.201 31.4499 68.8777 31.256 68.6054 30.9939C68.3388 30.7262 68.129 30.3849 67.9758 29.9698C67.8283 29.5492 67.7546 29.044 67.7546 28.4542V22.7276H70.205V28.4706C70.205 28.7327 70.2362 28.9539 70.2986 29.1342C70.3667 29.3144 70.4603 29.4619 70.5794 29.5765C70.6985 29.6912 70.8375 29.7732 70.9963 29.8223C71.1608 29.8715 71.3423 29.8961 71.5409 29.8961C72.0457 29.8961 72.4427 29.7977 72.732 29.6011C73.027 29.4045 73.234 29.1369 73.3532 28.7983C73.4779 28.4542 73.5403 28.0719 73.5403 27.6513Z" fill="white"/>
<path d="M80.0408 24.4316V35H77.5904V22.7276H79.8621L80.0408 24.4316ZM85.8691 27.0614V27.2335C85.8691 27.878 85.7897 28.476 85.6309 29.0276C85.4777 29.5793 85.2508 30.0599 84.9502 30.4695C84.6495 30.8737 84.2752 31.1905 83.8271 31.4199C83.3846 31.6438 82.8741 31.7558 82.2955 31.7558C81.734 31.7558 81.2462 31.6465 80.8321 31.4281C80.418 31.2096 80.0692 30.9037 79.7855 30.5105C79.5076 30.1118 79.2835 29.6503 79.1134 29.126C78.9432 28.6016 78.8127 28.0391 78.722 27.4383V26.9877C78.8127 26.3432 78.9432 25.7534 79.1134 25.2181C79.2835 24.6774 79.5076 24.2104 79.7855 23.8172C80.0692 23.4185 80.4152 23.1099 80.8236 22.8914C81.2377 22.673 81.7226 22.5637 82.2785 22.5637C82.8628 22.5637 83.3761 22.6703 83.8186 22.8833C84.2667 23.0963 84.641 23.4021 84.9417 23.8008C85.248 24.1995 85.4777 24.6747 85.6309 25.2263C85.7897 25.7779 85.8691 26.3897 85.8691 27.0614ZM83.4101 27.2335V27.0614C83.4101 26.6846 83.3761 26.3378 83.308 26.021C83.2457 25.6988 83.1436 25.4175 83.0017 25.1772C82.8656 24.9368 82.6841 24.7512 82.4572 24.6201C82.236 24.4835 81.9665 24.4153 81.6489 24.4153C81.3142 24.4153 81.0278 24.4671 80.7895 24.5709C80.557 24.6747 80.367 24.8249 80.2195 25.0215C80.072 25.2181 79.9614 25.453 79.8876 25.7261C79.8139 25.9991 79.7685 26.3077 79.7515 26.6518V27.7906C79.7799 28.1947 79.8593 28.5579 79.9897 28.8802C80.1202 29.197 80.3216 29.4482 80.5938 29.6339C80.8661 29.8196 81.2235 29.9124 81.6659 29.9124C81.9892 29.9124 82.2615 29.8442 82.4827 29.7076C82.7039 29.5656 82.8826 29.3717 83.0188 29.126C83.1606 28.8802 83.2598 28.5962 83.3166 28.2739C83.379 27.9517 83.4101 27.6049 83.4101 27.2335Z" fill="white"/>
<path d="M89.8425 19V31.5919H87.3921V19H89.8425ZM95.6453 22.7276L91.6463 27.1188L89.5022 29.2079L88.6088 27.5038L90.3105 25.4229L92.7014 22.7276H95.6453ZM93.1013 31.5919L90.3786 27.4956L92.0718 26.0701L95.9261 31.5919H93.1013Z" fill="white"/>
<path d="M99.2869 22.7276V31.5919H96.828V22.7276H99.2869ZM96.6748 20.4173C96.6748 20.0732 96.7996 19.7892 97.0492 19.5653C97.2988 19.3414 97.6335 19.2294 98.0532 19.2294C98.4673 19.2294 98.7991 19.3414 99.0487 19.5653C99.3039 19.7892 99.4316 20.0732 99.4316 20.4173C99.4316 20.7614 99.3039 21.0454 99.0487 21.2693C98.7991 21.4933 98.4673 21.6052 98.0532 21.6052C97.6335 21.6052 97.2988 21.4933 97.0492 21.2693C96.7996 21.0454 96.6748 20.7614 96.6748 20.4173Z" fill="white"/>
<path d="M101.431 30.4531C101.431 30.1036 101.556 29.8114 101.805 29.5765C102.061 29.3417 102.398 29.2243 102.818 29.2243C103.238 29.2243 103.572 29.3417 103.822 29.5765C104.077 29.8114 104.205 30.1036 104.205 30.4531C104.205 30.8027 104.077 31.0949 103.822 31.3297C103.572 31.5646 103.238 31.682 102.818 31.682C102.398 31.682 102.061 31.5646 101.805 31.3297C101.556 31.0949 101.431 30.8027 101.431 30.4531Z" fill="white"/>
<path d="M108.816 19V31.5919H106.366V19H108.816ZM114.619 22.7276L110.62 27.1188L108.476 29.2079L107.583 27.5038L109.284 25.4229L111.675 22.7276H114.619ZM112.075 31.5919L109.352 27.4956L111.046 26.0701L114.9 31.5919H112.075Z" fill="white"/>
<path d="M123 29.7486V31.5919H116.006V29.7486H123ZM122.864 24.0876L116.993 31.5919H115.351V30.191L121.196 22.7276H122.864V24.0876ZM121.996 22.7276V24.5791H115.487V22.7276H121.996Z" fill="white"/>
<path d="M40.2953 39.8737H41.96V39.3824H40.2953V39.8737ZM41.9345 39.6281C41.9345 39.8196 41.8845 39.9877 41.7847 40.1319C41.6877 40.276 41.5607 40.3885 41.4037 40.4692C41.2496 40.5495 41.087 40.5901 40.9157 40.5901C40.7759 40.5901 40.6477 40.5732 40.5307 40.5399C40.4137 40.5037 40.311 40.4579 40.2226 40.4025C40.1341 40.3471 40.0599 40.2889 40 40.2274V40.8439C40.1198 40.9382 40.2525 41.0117 40.398 41.0647C40.5435 41.1173 40.7248 41.1438 40.9417 41.1438C41.1757 41.1438 41.3897 41.1077 41.5834 41.0354C41.7775 40.9631 41.946 40.8591 42.0886 40.723C42.2312 40.5873 42.3426 40.4274 42.4225 40.2443C42.5023 40.0584 42.5423 39.8529 42.5423 39.6281C42.5423 39.4032 42.5023 39.1992 42.4225 39.016C42.3426 38.83 42.2312 38.669 42.0886 38.533C41.946 38.3969 41.7775 38.2929 41.5834 38.2207C41.3897 38.1485 41.1757 38.1124 40.9417 38.1124C40.7248 38.1124 40.5435 38.1388 40.398 38.1915C40.2525 38.2443 40.1198 38.3178 40 38.4122V39.0285C40.0599 38.9674 40.1341 38.9091 40.2226 38.8536C40.311 38.7981 40.4137 38.7537 40.5307 38.7203C40.6477 38.6843 40.7759 38.6662 40.9157 38.6662C41.087 38.6662 41.2496 38.7065 41.4037 38.7869C41.5607 38.8647 41.6877 38.9757 41.7847 39.1201C41.8845 39.2644 41.9345 39.4337 41.9345 39.6281Z" fill="white"/>
<path d="M45.5011 38.1707H43.1768V39.9278C43.1768 40.0251 43.1669 40.1138 43.1469 40.1945C43.1269 40.2748 43.0986 40.3443 43.0614 40.4025C43.0243 40.4608 42.9788 40.5054 42.9245 40.5359C42.8701 40.5664 42.809 40.5817 42.7404 40.5817V41.0852C42.9828 41.0852 43.1812 41.0394 43.3354 40.9479C43.4895 40.8563 43.6022 40.7246 43.6732 40.5523C43.7475 40.3777 43.7847 40.168 43.7847 39.9237V38.7079H44.8805V41.0852H45.5011V38.1707Z" fill="white"/>
<path d="M46.5637 41.0852H48.0745V40.5817H46.5637V41.0852ZM46.5637 38.6746H48.0745V38.1707H46.5637V38.6746ZM46.5637 39.7863H47.989V39.2908H46.5637V39.7863ZM46.17 38.1707V41.0852H46.7606V38.1707H46.17Z" fill="white"/>
<path d="M48.6779 38.1707V41.0852H49.3069V38.1707H48.6779ZM50.3728 38.1707L49.1272 39.5531L50.4199 41.0852H51.1647L49.8592 39.5365L51.1004 38.1707H50.3728Z" fill="white"/>
<path d="M51.3248 38.7079H52.1295V41.0852H52.7417V38.7079H53.5503V38.1707H51.3248V38.7079Z" fill="white"/>
<path d="M53.8982 38.1707V41.0852H54.51V38.1707H53.8982ZM54.2704 38.6746H54.8654C55.028 38.6746 55.1565 38.7106 55.2504 38.7828C55.3446 38.8522 55.3918 38.9577 55.3918 39.0993C55.3918 39.2381 55.3446 39.3436 55.2504 39.4157C55.1565 39.4879 55.028 39.524 54.8654 39.524H54.2704V40.0279H54.8654C55.1022 40.0279 55.3035 39.9901 55.4688 39.9154C55.6374 39.8404 55.7656 39.7336 55.8542 39.5947C55.9425 39.4532 55.9868 39.288 55.9868 39.0993C55.9868 38.9077 55.9425 38.7426 55.8542 38.6038C55.7656 38.465 55.6374 38.3581 55.4688 38.2832C55.3035 38.2082 55.1022 38.1707 54.8654 38.1707H54.2704V38.6746Z" fill="white"/>
<path d="M56.9353 39.6281C56.9353 39.442 56.9752 39.2769 57.0551 39.1325C57.1349 38.9882 57.2448 38.8744 57.3845 38.7911C57.5247 38.7078 57.6872 38.6662 57.8725 38.6662C58.061 38.6662 58.2252 38.7078 58.3649 38.7911C58.5047 38.8744 58.6129 38.9882 58.69 39.1325C58.7671 39.2769 58.8058 39.442 58.8058 39.6281C58.8058 39.814 58.7655 39.9793 58.6856 40.1234C58.6089 40.268 58.5003 40.3816 58.3606 40.4648C58.2208 40.5483 58.0582 40.5901 57.8725 40.5901C57.6872 40.5901 57.5247 40.5483 57.3845 40.4648C57.2448 40.3816 57.1349 40.268 57.0551 40.1234C56.9752 39.9793 56.9353 39.814 56.9353 39.6281ZM56.2891 39.6281C56.2891 39.8474 56.3275 40.0516 56.4045 40.2403C56.4816 40.4262 56.5914 40.5885 56.734 40.7274C56.877 40.8659 57.0439 40.9744 57.2348 41.0519C57.4289 41.127 57.6413 41.1643 57.8725 41.1643C58.1038 41.1643 58.315 41.127 58.5059 41.0519C58.7 40.9744 58.8669 40.8659 59.0067 40.7274C59.1493 40.5885 59.2595 40.4262 59.3362 40.2403C59.416 40.0516 59.4564 39.8474 59.4564 39.6281C59.4564 39.406 59.416 39.2033 59.3362 39.0201C59.2595 38.8341 59.1481 38.6731 59.0023 38.5371C58.8597 38.4011 58.6928 38.297 58.5019 38.2248C58.3106 38.1499 58.101 38.1124 57.8725 38.1124C57.6473 38.1124 57.4377 38.1499 57.2436 38.2248C57.0523 38.297 56.8854 38.4011 56.7428 38.5371C56.6002 38.6731 56.4888 38.8341 56.4089 39.0201C56.3291 39.2033 56.2891 39.406 56.2891 39.6281Z" fill="white"/>
<path d="M60.1305 39.803H62.3305V39.2658H60.1305V39.803ZM61.9407 38.1707V41.0852H62.5529V38.1707H61.9407ZM59.9292 38.1707V41.0852H60.5414V38.1707H59.9292Z" fill="white"/>
<path d="M63.3987 39.803H65.5988V39.2658H63.3987V39.803ZM65.2094 38.1707V41.0852H65.8212V38.1707H65.2094ZM63.1979 38.1707V41.0852H63.8097V38.1707H63.1979Z" fill="white"/>
<path d="M66.8815 40.4234H68.4649L68.3922 39.9528H66.9542L66.8815 40.4234ZM67.6646 39.1159L68.1139 40.1279L68.1055 40.2777L68.4905 41.0852H69.1837L67.6646 38L66.1451 41.0852H66.8344L67.2281 40.2528L67.2153 40.1194L67.6646 39.1159Z" fill="white"/>
<path d="M70.8315 39.728H70.1853L69.2093 41.0852H69.9325L70.8315 39.728ZM71.5119 38.1707H70.8997V41.0852H71.5119V38.1707ZM71.1398 38.6787V38.1707H70.506C70.272 38.1707 70.0711 38.2096 69.9026 38.2873C69.7372 38.365 69.6102 38.4733 69.5216 38.6121C69.4333 38.7509 69.389 38.9133 69.389 39.0993C69.389 39.2825 69.4333 39.4449 69.5216 39.5864C69.6102 39.7252 69.7372 39.8335 69.9026 39.9112C70.0711 39.9889 70.272 40.0279 70.506 40.0279H71.1398V39.5531H70.5447C70.4389 39.5531 70.3462 39.5365 70.2664 39.5031C70.1865 39.4671 70.1254 39.4171 70.0823 39.3533C70.0395 39.2867 70.0184 39.2075 70.0184 39.1159C70.0184 39.0243 70.0395 38.9466 70.0823 38.8827C70.1254 38.8161 70.1865 38.7662 70.2664 38.7328C70.3462 38.6968 70.4389 38.6787 70.5447 38.6787H71.1398Z" fill="white"/>
<path d="M73.1465 38.7079H73.9512V41.0852H74.563V38.7079H75.3721V38.1707H73.1465V38.7079Z" fill="white"/>
<path d="M75.9819 39.6281C75.9819 39.442 76.0218 39.2769 76.1017 39.1325C76.1816 38.9882 76.2914 38.8744 76.4311 38.7911C76.5709 38.7078 76.7335 38.6662 76.9192 38.6662C77.1072 38.6662 77.2714 38.7078 77.4112 38.7911C77.5509 38.8744 77.6595 38.9882 77.7366 39.1325C77.8133 39.2769 77.852 39.442 77.852 39.6281C77.852 39.814 77.8121 39.9793 77.7322 40.1234C77.6552 40.268 77.5465 40.3816 77.4068 40.4648C77.267 40.5483 77.1045 40.5901 76.9192 40.5901C76.7335 40.5901 76.5709 40.5483 76.4311 40.4648C76.2914 40.3816 76.1816 40.268 76.1017 40.1234C76.0218 39.9793 75.9819 39.814 75.9819 39.6281ZM75.3353 39.6281C75.3353 39.8474 75.3741 40.0516 75.4511 40.2403C75.5282 40.4262 75.638 40.5885 75.7806 40.7274C75.9232 40.8659 76.0901 40.9744 76.2814 41.0519C76.4755 41.127 76.6879 41.1643 76.9192 41.1643C77.15 41.1643 77.3612 41.127 77.5525 41.0519C77.7466 40.9744 77.9135 40.8659 78.0533 40.7274C78.1959 40.5885 78.3057 40.4262 78.3828 40.2403C78.4626 40.0516 78.5026 39.8474 78.5026 39.6281C78.5026 39.406 78.4626 39.2033 78.3828 39.0201C78.3057 38.8341 78.1943 38.6731 78.0489 38.5371C77.9063 38.4011 77.7394 38.297 77.5481 38.2248C77.3568 38.1499 77.1472 38.1124 76.9192 38.1124C76.6935 38.1124 76.4839 38.1499 76.2898 38.2248C76.0985 38.297 75.932 38.4011 75.789 38.5371C75.6464 38.6731 75.535 38.8341 75.4551 39.0201C75.3753 39.2033 75.3353 39.406 75.3353 39.6281Z" fill="white"/>
<path d="M78.9758 38.1707V41.0852H79.5876V38.1707H78.9758ZM79.348 38.6746H79.9431C80.1056 38.6746 80.2342 38.7106 80.328 38.7828C80.4223 38.8522 80.4694 38.9577 80.4694 39.0993C80.4694 39.2381 80.4223 39.3436 80.328 39.4157C80.2342 39.4879 80.1056 39.524 79.9431 39.524H79.348V40.0279H79.9431C80.1799 40.0279 80.3807 39.9901 80.5465 39.9154C80.7146 39.8404 80.8432 39.7336 80.9314 39.5947C81.0201 39.4532 81.0644 39.288 81.0644 39.0993C81.0644 38.9077 81.0201 38.7426 80.9314 38.6038C80.8432 38.465 80.7146 38.3581 80.5465 38.2832C80.3807 38.2082 80.1799 38.1707 79.9431 38.1707H79.348V38.6746Z" fill="white"/>
<path d="M81.5549 38.1707V41.0852H82.1671V38.7079H83.2413V38.1707H81.5549Z" fill="white"/>
<path d="M83.8726 39.6281C83.8726 39.442 83.9126 39.2769 83.9925 39.1325C84.0723 38.9882 84.1821 38.8744 84.3223 38.7911C84.4621 38.7078 84.6246 38.6662 84.8099 38.6662C84.9984 38.6662 85.1626 38.7078 85.3023 38.7911C85.4421 38.8744 85.5503 38.9882 85.6274 39.1325C85.7045 39.2769 85.7432 39.442 85.7432 39.6281C85.7432 39.814 85.7033 39.9793 85.6234 40.1234C85.5463 40.268 85.4377 40.3816 85.2979 40.4648C85.1582 40.5483 84.9956 40.5901 84.8099 40.5901C84.6246 40.5901 84.4621 40.5483 84.3223 40.4648C84.1821 40.3816 84.0723 40.268 83.9925 40.1234C83.9126 39.9793 83.8726 39.814 83.8726 39.6281ZM83.2265 39.6281C83.2265 39.8474 83.2648 40.0516 83.3419 40.2403C83.419 40.4262 83.5288 40.5885 83.6718 40.7274C83.8143 40.8659 83.9813 40.9744 84.1722 41.0519C84.3662 41.127 84.5791 41.1643 84.8099 41.1643C85.0411 41.1643 85.2524 41.127 85.4433 41.0519C85.6374 40.9744 85.8043 40.8659 85.9441 40.7274C86.087 40.5885 86.1969 40.4262 86.2739 40.2403C86.3538 40.0516 86.3938 39.8474 86.3938 39.6281C86.3938 39.406 86.3538 39.2033 86.2739 39.0201C86.1969 38.8341 86.0855 38.6731 85.9401 38.5371C85.7971 38.4011 85.6302 38.297 85.4393 38.2248C85.248 38.1499 85.0384 38.1124 84.8099 38.1124C84.5847 38.1124 84.375 38.1499 84.1809 38.2248C83.9897 38.297 83.8227 38.4011 83.6802 38.5371C83.5376 38.6731 83.4262 38.8341 83.3463 39.0201C83.2664 39.2033 83.2265 39.406 83.2265 39.6281Z" fill="white"/>
<path d="M87.3246 39.6072H87.8642C88.0638 39.6072 88.2391 39.5809 88.3905 39.5281C88.5415 39.4726 88.6601 39.3921 88.7455 39.2867C88.8314 39.1812 88.8741 39.0549 88.8741 38.9077C88.8741 38.7412 88.8314 38.6038 88.7455 38.4955C88.6601 38.3872 88.5415 38.3068 88.3905 38.254C88.2391 38.1985 88.0638 38.1707 87.8642 38.1707H86.8666V41.0852H87.9281C88.1509 41.0852 88.3462 41.0563 88.5147 40.9981C88.6828 40.9399 88.8126 40.8495 88.9041 40.7274C88.9983 40.6053 89.045 40.4483 89.045 40.2568C89.045 40.1126 89.0139 39.9889 88.9512 39.8862C88.8913 39.7835 88.8082 39.7002 88.7028 39.6364C88.5974 39.5698 88.4776 39.5212 88.3434 39.4907C88.212 39.4601 88.0738 39.4449 87.9281 39.4449H87.3246V39.7696H87.8725C87.9496 39.7696 88.0211 39.778 88.0866 39.7946C88.1521 39.8085 88.2092 39.8335 88.2579 39.8696C88.309 39.9029 88.3478 39.9459 88.3733 39.9986C88.4017 40.0488 88.4161 40.1098 88.4161 40.1817C88.4161 40.2817 88.3917 40.3636 88.3434 40.4274C88.2978 40.4913 88.2336 40.5387 88.1509 40.5692C88.0678 40.5969 87.9752 40.6106 87.8725 40.6106H87.4788V38.6454H87.8082C87.9424 38.6454 88.0479 38.6746 88.1249 38.7328C88.2048 38.7911 88.2447 38.8758 88.2447 38.9868C88.2447 39.059 88.2264 39.1215 88.1892 39.1742C88.1549 39.2269 88.105 39.2672 88.0395 39.295C87.974 39.3227 87.8969 39.3366 87.8082 39.3366H87.3246V39.6072Z" fill="white"/>
<path d="M89.9192 40.4234H91.5027L91.43 39.9528H89.9919L89.9192 40.4234ZM90.7024 39.1159L91.152 40.1279L91.1432 40.2777L91.5286 41.0852H92.2219L90.7024 38L89.1832 41.0852H89.8721L90.2659 40.2528L90.2531 40.1194L90.7024 39.1159Z" fill="white"/>
<path d="M93.8692 39.728H93.2231L92.2471 41.0852H92.9707L93.8692 39.728ZM94.5497 38.1707H93.9379V41.0852H94.5497V38.1707ZM94.1775 38.6787V38.1707H93.5442C93.3101 38.1707 93.1089 38.2096 92.9407 38.2873C92.775 38.365 92.648 38.4733 92.5598 38.6121C92.4711 38.7509 92.4272 38.9133 92.4272 39.0993C92.4272 39.2825 92.4711 39.4449 92.5598 39.5864C92.648 39.7252 92.775 39.8335 92.9407 39.9112C93.1089 39.9889 93.3101 40.0279 93.5442 40.0279H94.1775V39.5531H93.5825C93.4771 39.5531 93.3844 39.5365 93.3045 39.5031C93.2247 39.4671 93.1632 39.4171 93.1204 39.3533C93.0777 39.2867 93.0562 39.2075 93.0562 39.1159C93.0562 39.0243 93.0777 38.9466 93.1204 38.8827C93.1632 38.8161 93.2247 38.7662 93.3045 38.7328C93.3844 38.6968 93.4771 38.6787 93.5825 38.6787H94.1775Z" fill="white"/>
<path d="M98.423 38.7079V41.0852H99.0432V38.1707H96.5013V41.0852H97.1219V38.7079H98.423Z" fill="white"/>
<path d="M102.189 38.1707H99.8647V39.9278C99.8647 40.0251 99.8547 40.1138 99.8347 40.1945C99.8147 40.2748 99.7864 40.3443 99.7492 40.4025C99.7121 40.4608 99.6666 40.5054 99.6123 40.5359C99.558 40.5664 99.4968 40.5817 99.4282 40.5817V41.0852C99.6706 41.0852 99.869 41.0394 100.023 40.9479C100.177 40.8563 100.29 40.7246 100.361 40.5523C100.435 40.3777 100.472 40.168 100.472 39.9237V38.7079H101.568V41.0852H102.189V38.1707Z" fill="white"/>
<path d="M103.333 39.6281C103.333 39.442 103.373 39.2769 103.453 39.1325C103.533 38.9882 103.643 38.8744 103.782 38.7911C103.922 38.7078 104.085 38.6662 104.27 38.6662C104.458 38.6662 104.623 38.7078 104.762 38.7911C104.902 38.8744 105.011 38.9882 105.088 39.1325C105.165 39.2769 105.203 39.442 105.203 39.6281C105.203 39.814 105.163 39.9793 105.083 40.1234C105.006 40.268 104.898 40.3816 104.758 40.4648C104.619 40.5483 104.456 40.5901 104.27 40.5901C104.085 40.5901 103.922 40.5483 103.782 40.4648C103.643 40.3816 103.533 40.268 103.453 40.1234C103.373 39.9793 103.333 39.814 103.333 39.6281ZM102.687 39.6281C102.687 39.8474 102.725 40.0516 102.802 40.2403C102.879 40.4262 102.989 40.5885 103.132 40.7274C103.274 40.8659 103.441 40.9744 103.633 41.0519C103.827 41.127 104.039 41.1643 104.27 41.1643C104.502 41.1643 104.712 41.127 104.904 41.0519C105.098 40.9744 105.265 40.8659 105.404 40.7274C105.547 40.5885 105.657 40.4262 105.734 40.2403C105.814 40.0516 105.854 39.8474 105.854 39.6281C105.854 39.406 105.814 39.2033 105.734 39.0201C105.657 38.8341 105.546 38.6731 105.4 38.5371C105.258 38.4011 105.091 38.297 104.899 38.2248C104.708 38.1499 104.498 38.1124 104.27 38.1124C104.045 38.1124 103.835 38.1499 103.641 38.2248C103.45 38.297 103.283 38.4011 103.141 38.5371C102.998 38.6731 102.887 38.8341 102.807 39.0201C102.727 39.2033 102.687 39.406 102.687 39.6281Z" fill="white"/>
<path d="M109.55 40.5483H108.548V38.1707H107.953V40.5483H106.956V38.1707H106.344V41.0852H110.021V41.6141H110.598V40.5483H110.158V38.1707H109.55V40.5483Z" fill="white"/>
<path d="M111.511 40.4234H113.095L113.022 39.9528H111.584L111.511 40.4234ZM112.294 39.1159L112.744 40.1279L112.735 40.2777L113.12 41.0852H113.814L112.294 38L110.775 41.0852H111.464L111.858 40.2528L111.845 40.1194L112.294 39.1159Z" fill="white"/>
<path d="M115.762 39.1492L116.451 40.9603H117.149L115.762 38.025L114.375 40.9603H115.073L115.762 39.1492ZM116.815 41.0852V41.5434H117.41V40.5648H114.114V41.5434H114.709V41.0852H116.815Z" fill="white"/>
<path d="M117.93 38.1707V41.0852H118.559V38.1707H117.93ZM119.625 38.1707L118.379 39.5531L119.671 41.0852H120.416L119.111 39.5365L120.352 38.1707H119.625Z" fill="white"/>
<path d="M121.162 40.4234H122.745L122.672 39.9528H121.234L121.162 40.4234ZM121.945 39.1159L122.394 40.1279L122.386 40.2777L122.771 41.0852H123.464L121.945 38L120.426 41.0852H121.115L121.508 40.2528L121.496 40.1194L121.945 39.1159Z" fill="white"/>
</svg>
