<svg width="128" height="36" viewBox="0 0 128 36" fill="none" xmlns="http://www.w3.org/2000/svg">
<rect width="128" height="36" rx="18" fill="white"/>
<path d="M26.7988 17.2675C27.5481 17.5054 28.135 17.9061 28.5596 18.4696C28.9842 19.0205 29.1965 19.703 29.1965 20.5169C29.1965 21.6689 28.7469 22.5579 27.8478 23.184C26.9612 23.7976 25.6624 24.1044 23.9516 24.1044H17.1707V10.9565H23.577C25.1754 10.9565 26.3992 11.2633 27.2484 11.8769C28.11 12.4904 28.5409 13.3231 28.5409 14.375C28.5409 15.0136 28.3848 15.5833 28.0726 16.0842C27.7729 16.5851 27.3483 16.9795 26.7988 17.2675ZM20.1865 13.248V16.3471H23.2023C23.9516 16.3471 24.5198 16.2157 24.9069 15.9527C25.294 15.6897 25.4876 15.3016 25.4876 14.7882C25.4876 14.2748 25.294 13.8929 24.9069 13.6424C24.5198 13.3795 23.9516 13.248 23.2023 13.248H20.1865ZM23.7268 21.8129C24.526 21.8129 25.1254 21.6814 25.5251 21.4184C25.9372 21.1555 26.1432 20.7485 26.1432 20.1976C26.1432 19.1082 25.3377 18.5635 23.7268 18.5635H20.1865V21.8129H23.7268Z" fill="black"/>
<path d="M32.2432 10.9565H35.2777V24.1044H32.2432V10.9565Z" fill="black"/>
<path d="M39.1388 10.9565H45.0954C46.5191 10.9565 47.7741 11.232 48.8605 11.783C49.9594 12.3214 50.8086 13.0852 51.408 14.0744C52.0199 15.0637 52.3259 16.2157 52.3259 17.5304C52.3259 18.8452 52.0199 19.9972 51.408 20.9864C50.8086 21.9757 49.9594 22.7457 48.8605 23.2967C47.7741 23.8351 46.5191 24.1044 45.0954 24.1044H39.1388V10.9565ZM44.9456 21.6063C46.2568 21.6063 47.2995 21.2431 48.0738 20.5169C48.8605 19.7781 49.2539 18.7826 49.2539 17.5304C49.2539 16.2783 48.8605 15.289 48.0738 14.5628C47.2995 13.824 46.2568 13.4546 44.9456 13.4546H42.1733V21.6063H44.9456Z" fill="black"/>
<path d="M65.8565 21.6251V24.1044H54.3927V22.1322L61.5856 13.4358H54.5425V10.9565H65.5755V12.9287L58.4013 21.6251H65.8565Z" fill="black"/>
<path d="M77.1873 21.287H71.0994L69.9381 24.1044H66.8286L72.6729 10.9565H75.67L81.533 24.1044H78.3486L77.1873 21.287ZM76.2319 18.9767L74.1527 13.943L72.0735 18.9767H76.2319Z" fill="black"/>
<path d="M92.717 21.287H86.6292L85.4678 24.1044H82.3584L88.2027 10.9565H91.1997L97.0628 24.1044H93.8784L92.717 21.287ZM91.7617 18.9767L89.6825 13.943L87.6033 18.9767H91.7617Z" fill="black"/>
<path d="M107.527 24.1044L104.998 20.4417H104.848H102.207V24.1044H99.1724V10.9565H104.848C106.01 10.9565 107.015 11.1506 107.864 11.5388C108.726 11.927 109.387 12.4779 109.85 13.1917C110.312 13.9054 110.543 14.7506 110.543 15.7273C110.543 16.704 110.305 17.5492 109.831 18.263C109.369 18.9642 108.707 19.5026 107.845 19.8783L110.786 24.1044H107.527ZM107.471 15.7273C107.471 14.9885 107.233 14.4251 106.759 14.0369C106.284 13.6362 105.591 13.4358 104.68 13.4358H102.207V18.0188H104.68C105.591 18.0188 106.284 17.8184 106.759 17.4177C107.233 17.017 107.471 16.4536 107.471 15.7273Z" fill="black"/>
</svg>
