<svg width="118" height="132" viewBox="0 0 118 132" fill="none" xmlns="http://www.w3.org/2000/svg">
  <path d="M58.5056 131.12C90.7135 131.12 116.823 105.127 116.823 73.0624C116.823 40.9983 90.7135 15.0052 58.5056 15.0052C26.2977 15.0052 0.187988 40.9983 0.187988 73.0624C0.187988 105.127 26.2977 131.12 58.5056 131.12Z" fill="black" fill-opacity="0.07"/>
  <mask id="mask0" mask-type="alpha" maskUnits="userSpaceOnUse" x="0" y="15" width="117" height="117">
    <path d="M58.5056 131.119C90.7135 131.119 116.823 105.126 116.823 73.0623C116.823 40.9982 90.7135 15.0051 58.5056 15.0051C26.2977 15.0051 0.187988 40.9982 0.187988 73.0623C0.187988 105.126 26.2977 131.119 58.5056 131.119Z" fill="white"/>
  </mask>
  <g mask="url(#mask0)">
    <path d="M29.3198 81.6683C42.9004 75.4702 70.0346 69.718 70.0346 69.718C70.0346 69.718 65.6989 69.1562 84.2244 71.35C102.75 73.5528 118.892 79.2872 118.892 79.2872C118.892 79.2872 118.892 88.0805 118.355 99.1122C109.191 117.234 92.5107 135.507 71.02 136.604C70.0078 136.649 66.8008 138.218 65.7795 138.218C55.9703 138.218 43.2856 133.991 35.1695 129.737L29.3198 81.6683Z" fill="url(#paint0_linear)"/>
    <path d="M21.8043 94.6354C25.5309 83.3718 29.3292 81.6685 29.3292 81.6685C31.2193 91.6746 34.4622 104.677 36.5046 115.022C37.4811 119.981 36.5046 124.966 37.4452 130.21C37.4632 130.335 37.3915 130.46 37.3646 130.585C29.5173 127.749 22.4672 123.281 16.5996 117.6C18.6331 107.299 20.5681 98.3543 21.8043 94.6354Z" fill="url(#paint1_linear)"/>
    <path d="M60.6289 83.6393C60.6289 83.6393 62.7251 90.747 71.0204 91.5943C79.3156 92.4415 89.6802 86.6179 93.6487 76.0053C93.6487 76.0053 94.0339 74.5963 87.8975 72.8126C81.7791 71.0379 60.6289 83.6393 60.6289 83.6393Z" fill="url(#paint2_linear)"/>
    <path d="M16.7785 68.4428C22.8701 69.9321 24.9125 74.7747 24.9125 74.7747C24.9125 74.7747 24.393 121.586 24.2317 131.316C17.6744 133.117 5.74209 122.469 -1.03027 121.863L6.93353 72.4916C6.88874 72.4916 10.687 66.9535 16.7785 68.4428Z" fill="url(#paint3_linear)"/>
    <path d="M15.3541 76.5227C9.87169 76.4424 6.71842 73.5797 7.54257 72.1885C8.76088 70.3692 13.1772 67.6491 17.092 68.8709C23.085 70.7348 24.1689 74.3288 24.1689 74.3288C24.1689 74.3288 20.9081 76.603 15.3541 76.5227Z" fill="url(#paint4_linear)"/>
    <path d="M35.77 111.437C55.2361 113.774 96.9721 111.633 110.723 110.608C100.627 122.442 86.2671 134.776 69.6587 135.614C68.6554 135.659 67.6611 135.695 66.6488 135.695C58.6581 135.695 44.3788 134.419 37.4362 131.521L35.77 111.437Z" fill="url(#paint5_linear)"/>
  </g>
  <path d="M90.4502 43.7573C90.4502 43.7573 88.4615 61.8879 90.0202 75.2116C90.0202 75.2116 86.8132 85.6726 75.7499 87.9557C62.5366 90.6846 61.6049 77.5393 60.9152 70.2353C60.1627 62.2268 90.4502 43.7573 90.4502 43.7573Z" fill="url(#paint6_linear)"/>
  <path d="M72.7755 6.04239C72.7755 6.04239 72.444 1.21767 76.529 1.04823C80.6139 0.878784 86.1232 2.87645 86.6875 5.65891C87.2519 8.44138 84.4569 12.1959 84.4569 12.1959L72.7755 6.04239Z" fill="url(#paint7_linear)"/>
  <path d="M49.0365 46.7983C49.0365 46.7983 37.4984 78.0119 60.6284 83.6392C84.1166 89.3558 91.2742 64.3849 90.6024 49.554C89.9394 34.8213 92.7702 42.7941 92.7702 42.7941C92.7702 42.7941 99.7486 23.8787 92.824 14.9695C85.8993 6.06022 70.0971 3.76825 61.8825 7.26417C53.6679 10.7601 47.3345 17.1276 48.4453 30.7367C49.2157 40.1186 49.0365 46.7983 49.0365 46.7983Z" fill="url(#paint8_linear)"/>
  <path d="M85.2006 41.3137C85.2006 41.3137 85.4246 53.8259 69.7657 55.8057C53.0677 57.9193 47.8182 46.9321 49.1261 39.6995C50.1473 34.09 48.069 29.0869 50.4609 28.2397C52.8527 27.3925 54.1964 31.1649 64.3371 32.1369C74.4777 33.1179 78.061 28.5518 81.3844 29.3634C84.5915 30.1303 83.624 35.1423 85.2006 41.3137Z" fill="url(#paint9_linear)"/>
  <path d="M90.047 41.5009C90.2889 40.3862 92.5374 36.7922 96.0938 37.9337C99.6502 39.0752 95.3234 46.5932 92.9315 47.8418C90.5397 49.0903 90.6114 49.554 90.6114 49.554C90.6114 49.554 89.4289 44.3726 90.047 41.5009Z" fill="url(#paint10_linear)"/>
  <path d="M90.7275 44.6758C90.7275 44.6758 91.1127 41.0104 93.7733 39.6816C96.4339 38.3439 96.5414 39.9848 96.5145 40.2167C96.4876 40.4397 97.3207 41.6079 96.3533 41.9736C95.3947 42.3392 96.5145 42.803 95.3589 43.4362C94.2033 44.0693 94.7229 43.998 94.051 45.086C93.3702 46.174 92.3221 44.8809 91.695 44.9612C91.0679 45.0414 90.8619 45.2376 90.7275 44.6758Z" fill="url(#paint11_linear)"/>
  <path d="M75.3554 54.3074C74.7732 54.3074 74.1819 54.2539 73.5996 54.138C68.7712 53.1837 65.6179 48.4928 66.5764 43.6859C67.535 38.879 72.2469 35.7398 77.0754 36.6941C79.4135 37.1578 81.438 38.4956 82.7638 40.4754C84.0896 42.4552 84.5644 44.8185 84.0986 47.1462C83.6328 49.4738 82.289 51.4893 80.3003 52.8092C78.8133 53.7902 77.1023 54.3074 75.3554 54.3074ZM68.3322 44.0248C67.5708 47.8685 70.088 51.6141 73.949 52.3811C75.8123 52.7557 77.7204 52.3722 79.306 51.3199C80.8916 50.2675 81.9665 48.6533 82.3428 46.7983C83.1132 42.9546 80.587 39.209 76.726 38.442C72.874 37.6751 69.1026 40.1811 68.3322 44.0248Z" fill="white"/>
  <path d="M56.83 52.9162C53.4259 52.9162 50.1024 50.7045 48.687 47.1462C47.8091 44.9523 47.7823 42.5712 48.6064 40.4487C49.4395 38.2994 51.0341 36.6584 53.1034 35.8469C57.3496 34.1703 62.2855 36.5158 64.0951 41.0729C64.973 43.2668 64.9998 45.6479 64.1757 47.7705C63.3426 49.9197 61.748 51.5607 59.6787 52.3722C58.747 52.7468 57.7796 52.9162 56.83 52.9162ZM50.3532 46.4952C51.8045 50.1427 55.6923 52.0333 59.0247 50.7224C60.6283 50.0892 61.8645 48.8139 62.5095 47.1373C63.1634 45.4339 63.1365 43.5076 62.4288 41.7329C60.9776 38.0854 57.0898 36.1947 53.7573 37.5057C52.1538 38.1389 50.9176 39.4142 50.2726 41.0908C49.6187 42.7941 49.6456 44.7115 50.3532 46.4952Z" fill="white"/>
  <path d="M67.6244 43.2668C67.6065 43.2579 65.788 42.7139 63.6918 43.0438L63.4141 41.278C65.9403 40.8767 68.0723 41.5367 68.1619 41.5634L67.6244 43.2668L67.8931 42.4196L67.6244 43.2668Z" fill="white"/>
  <path d="M82.4683 42.6068C82.2085 42.6068 81.9398 42.4909 81.7606 42.2679C81.456 41.8845 81.5188 41.3226 81.904 41.0194C82.0921 40.8678 86.6339 37.3273 92.6 36.5782C93.0927 36.5157 93.5406 36.8636 93.6033 37.3541C93.666 37.8445 93.3166 38.2905 92.8239 38.3529C87.3684 39.0396 83.0596 42.3839 83.0237 42.4196C82.8535 42.5444 82.6564 42.6068 82.4683 42.6068Z" fill="white"/>
  <path d="M79.1181 52.4703C79.1181 52.4703 72.6593 47.3869 70.2496 39.2179C70.2496 39.2179 68.0011 41.0461 67.4546 43.8553C66.9082 46.6646 67.6159 50.2586 71.2708 52.3187C74.9257 54.3788 78.7419 53.0589 79.1181 52.4703Z" fill="url(#paint12_linear)"/>
  <path d="M60.3686 50.9185C60.3686 50.9185 53.9098 45.8352 51.5 37.6661C51.5 37.6661 49.2515 39.4944 48.7051 42.3036C48.1586 45.1128 48.8663 48.7068 52.5213 50.7669C56.1762 52.827 59.9834 51.5071 60.3686 50.9185Z" fill="url(#paint13_linear)"/>
  <path d="M35.7516 48.6891C34.2735 48.9834 31.4069 49.902 30.0811 51.2575C28.7553 52.6042 26.5157 52.5774 26.5157 52.5774L27.6713 45.2734C27.7699 45.104 27.8236 44.9167 27.8505 44.7294V44.7205C27.8953 44.4173 30.4125 33.3855 30.7977 31.5395C31.9712 25.9121 31.0844 22.7997 30.1079 23.3705C28.7463 24.182 28.2446 26.8575 27.7878 28.4716C26.7307 32.1638 24.5449 38.353 23.7297 40.6806C23.667 40.6271 23.6043 40.5647 23.5416 40.5112C23.4789 40.4576 23.4251 40.4041 23.3624 40.3595C23.3266 36.9082 23.2818 28.4538 23.2818 26.7683C23.2818 24.6547 23.9716 18.6795 22.816 18.1979C21.4185 17.6183 19.9225 18.6171 19.6448 23.9323C19.4029 28.6233 18.5609 36.9171 18.3638 38.7989C18.0234 38.6027 17.6561 38.3262 17.2978 38.0319C17.2082 34.6608 17.1007 29.961 17.1544 26.8575C17.244 21.5333 15.2643 20.044 14.3774 20.918C13.4906 21.8009 13.4726 27.3301 13.3293 29.4348C13.2487 30.6744 12.8904 35.5616 12.5947 39.4321C12.0214 39.7353 11.3854 39.7799 10.7494 39.7085C10.2477 36.9885 9.71917 34.0277 9.39668 31.8427C8.60836 26.5899 6.63756 25.4484 6.01049 26.4651C5.38342 27.4817 6.25236 32.9218 6.47632 35.0176C6.58382 36.0699 6.9511 39.7799 7.29151 43.249C7.21984 44.56 7.09443 45.3359 7.13922 45.755C7.40797 48.1005 7.39901 52.3901 7.1661 54.4948C6.94214 56.6084 6.77194 60.2203 8.61732 62.1287C9.25335 62.7887 8.39336 67.3548 8.1067 73.3656C9.71021 74.6142 14.7447 77.4769 23.7476 73.651L23.5595 64.3048C23.4699 63.7429 23.7029 63.1811 24.1866 62.8244L25.6826 61.7096C25.8707 61.5669 26.0409 61.4064 26.1843 61.228L30.0004 56.7868C31.8548 54.9853 35.223 51.7837 36.9699 50.5619C39.4513 48.8229 37.2297 48.3948 35.7516 48.6891Z" fill="url(#paint14_linear)"/>
  <path d="M9.28017 55.1369C7.99916 51.5429 12.8814 46.6914 16.8856 45.2467C20.8899 43.793 22.0635 46.5666 22.153 47.8597C22.2337 49.1617 24.7867 52.7468 22.798 53.1838C20.8093 53.6208 17.2709 56.3587 17.2709 56.3587C15.3001 58.1958 22.5203 59.4533 26.7127 57.9461C30.9052 56.4389 32.3385 51.7302 34.8109 50.4192C37.2744 49.1082 37.9463 49.6701 37.9463 49.6701C37.785 49.9198 37.4804 50.2141 36.9788 50.5619C35.232 51.7837 31.8637 54.9853 30.0093 56.7868L26.1932 61.228C26.0498 61.4064 25.8796 61.5669 25.6915 61.7096L24.1955 62.8243C23.9536 63.0027 23.7745 63.2435 23.667 63.5021C21.1408 65.7763 19.0535 63.9034 18.5698 66.7483C18.086 69.5843 15.309 70.6991 15.3717 65.1163C15.4344 59.5335 10.5522 58.7309 9.28017 55.1369Z" fill="url(#paint15_linear)"/>
  <path d="M7.29167 43.2401C6.95125 39.7709 6.58397 36.061 6.47647 35.0086C6.26148 32.9129 5.38358 27.4639 6.01065 26.4561C6.33314 25.9389 7.01396 25.9835 7.70374 26.8664C7.70374 26.8664 6.48543 26.1797 6.62876 28.3468C6.76313 30.505 7.62312 40.306 8.40248 40.966C9.19079 41.6259 10.7853 41.9737 10.0956 43.5611C9.40579 45.1486 8.61747 48.3324 8.31289 49.6344C8.01728 50.9365 7.75749 52.836 7.3275 51.5072C7.36333 49.5096 7.30958 47.2443 7.13938 45.755C7.09459 45.3269 7.22 44.5511 7.29167 43.2401Z" fill="url(#paint16_linear)"/>
  <path d="M9.71907 60.6573C9.79073 60.5949 11.8063 60.3898 11.9317 63.6449C12.0571 66.9 9.08304 67.7383 9.42345 65.8655C9.7549 63.9927 8.80534 61.4867 9.71907 60.6573Z" fill="url(#paint17_linear)"/>
  <path d="M20.3705 29.1851C20.1018 29.6399 20.0839 34.8035 20.478 37.0509C20.8722 39.3072 20.066 39.1913 19.5195 39.0932L18.3818 38.7899C18.5789 36.9082 19.421 28.6233 19.6629 23.9234C19.842 20.4542 20.7916 18.6795 21.6516 18.1177C22.7265 17.9571 20.8722 20.8288 20.6303 21.7474C20.3885 22.6659 20.6303 28.7303 20.3705 29.1851Z" fill="url(#paint18_linear)"/>
  <path d="M14.3864 20.909C14.7984 20.4988 15.4524 20.6058 16.0257 21.3906C14.3326 20.7931 14.9866 22.2378 14.8432 22.6927C14.6999 23.1564 14.9149 29.2118 14.8253 30.5585C14.7357 31.9051 14.0907 34.5538 14.4939 36.4712C14.897 38.3886 15.3718 39.4231 14.7626 39.7798C14.1534 40.1366 12.5947 39.4231 12.5947 39.4231C12.8903 35.5526 13.2487 30.6655 13.3293 29.4259C13.4816 27.3212 13.5085 21.783 14.3864 20.909Z" fill="url(#paint19_linear)"/>
  <path d="M30.117 23.3615C30.5649 23.094 30.9949 23.6112 31.2099 24.7884C31.2099 24.7884 30.1528 24.0304 29.5437 26.0102C28.9345 27.99 26.9189 36.5158 26.7218 37.6216C26.5248 38.7275 26.9995 42.4553 25.8439 41.938C24.6794 41.4208 23.7388 40.6806 23.7388 40.6806C24.554 38.3529 26.7487 32.1637 27.7968 28.4716C28.2626 26.8485 28.7553 24.1731 30.117 23.3615Z" fill="url(#paint20_linear)"/>
  <path d="M8.37551 69.4506C8.37551 69.4506 13.0606 73.9275 23.7119 71.582L23.7567 73.6421C23.7567 73.6421 14.5656 78.1458 8.11572 73.3567L8.37551 69.4506Z" fill="url(#paint21_linear)"/>
  <defs>
    <linearGradient id="paint0_linear" x1="37.7525" y1="82.4173" x2="100.941" y2="118.293" gradientUnits="userSpaceOnUse">
      <stop stop-color="#881466"/>
      <stop offset="1" stop-color="#BF1466"/>
    </linearGradient>
    <linearGradient id="paint1_linear" x1="18.5433" y1="77.6208" x2="29.4705" y2="130.888" gradientUnits="userSpaceOnUse">
      <stop stop-color="#881466"/>
      <stop offset="1" stop-color="#BF1466"/>
    </linearGradient>
    <linearGradient id="paint2_linear" x1="79.5252" y1="68.3233" x2="74.7" y2="91.8448" gradientUnits="userSpaceOnUse">
      <stop stop-color="#BF1466"/>
      <stop offset="1" stop-color="#F76570"/>
    </linearGradient>
    <linearGradient id="paint3_linear" x1="-1.04489" y1="105.793" x2="26.0068" y2="97.5292" gradientUnits="userSpaceOnUse">
      <stop stop-color="#881466"/>
      <stop offset="1" stop-color="#BF1466"/>
    </linearGradient>
    <linearGradient id="paint4_linear" x1="15.4905" y1="76.4705" x2="16.1855" y2="69.3742" gradientUnits="userSpaceOnUse">
      <stop stop-color="#881466"/>
      <stop offset="1" stop-color="#BF1466"/>
    </linearGradient>
    <linearGradient id="paint5_linear" x1="69.8362" y1="100.539" x2="76.6563" y2="133.785" gradientUnits="userSpaceOnUse">
      <stop stop-color="#BF1466"/>
      <stop offset="1" stop-color="#F76570"/>
    </linearGradient>
    <linearGradient id="paint6_linear" x1="91.329" y1="81.9111" x2="78.4147" y2="65.1022" gradientUnits="userSpaceOnUse">
      <stop stop-color="#F2F8FF"/>
      <stop offset="0.4972" stop-color="#E5F2FF"/>
      <stop offset="1" stop-color="#BADBFF"/>
    </linearGradient>
    <linearGradient id="paint7_linear" x1="88.8778" y1="9.72157" x2="76.3387" y2="3.59294" gradientUnits="userSpaceOnUse">
      <stop stop-color="#004FFF"/>
      <stop offset="1" stop-color="#007AFF"/>
    </linearGradient>
    <linearGradient id="paint8_linear" x1="92.2258" y1="49.8949" x2="53.4788" y2="41.666" gradientUnits="userSpaceOnUse">
      <stop stop-color="#004FFF"/>
      <stop offset="1" stop-color="#007AFF"/>
    </linearGradient>
    <linearGradient id="paint9_linear" x1="68.5469" y1="30.7391" x2="64.1597" y2="49.5329" gradientUnits="userSpaceOnUse">
      <stop stop-color="#F2F8FF"/>
      <stop offset="0.4972" stop-color="#E5F2FF"/>
      <stop offset="1" stop-color="#BADBFF"/>
    </linearGradient>
    <linearGradient id="paint10_linear" x1="90.5724" y1="39.696" x2="94.3248" y2="44.8108" gradientUnits="userSpaceOnUse">
      <stop stop-color="#F2F8FF"/>
      <stop offset="0.4972" stop-color="#E5F2FF"/>
      <stop offset="1" stop-color="#BADBFF"/>
    </linearGradient>
    <linearGradient id="paint11_linear" x1="94.4958" y1="42.9199" x2="91.8832" y2="40.9386" gradientUnits="userSpaceOnUse">
      <stop stop-color="#96C8FF" stop-opacity="0"/>
      <stop offset="1" stop-color="#96C8FF"/>
    </linearGradient>
    <linearGradient id="paint12_linear" x1="80.1055" y1="47.2732" x2="68.6588" y2="45.8685" gradientUnits="userSpaceOnUse">
      <stop stop-color="white"/>
      <stop offset="1" stop-color="white" stop-opacity="0"/>
    </linearGradient>
    <linearGradient id="paint13_linear" x1="61.3541" y1="45.721" x2="49.9073" y2="44.3162" gradientUnits="userSpaceOnUse">
      <stop stop-color="white"/>
      <stop offset="1" stop-color="white" stop-opacity="0"/>
    </linearGradient>
    <linearGradient id="paint14_linear" x1="0.367692" y1="26.9129" x2="28.0454" y2="58.458" gradientUnits="userSpaceOnUse">
      <stop stop-color="#F2F8FF"/>
      <stop offset="0.4972" stop-color="#E5F2FF"/>
      <stop offset="1" stop-color="#BADBFF"/>
    </linearGradient>
    <linearGradient id="paint15_linear" x1="16.6694" y1="44.5928" x2="28.2696" y2="61.0942" gradientUnits="userSpaceOnUse">
      <stop stop-color="#96C8FF" stop-opacity="0"/>
      <stop offset="1" stop-color="#96C8FF"/>
    </linearGradient>
    <linearGradient id="paint16_linear" x1="5.15422" y1="46.9718" x2="10.2555" y2="25.7324" gradientUnits="userSpaceOnUse">
      <stop stop-color="#96C8FF" stop-opacity="0"/>
      <stop offset="1" stop-color="#96C8FF"/>
    </linearGradient>
    <linearGradient id="paint17_linear" x1="17.6051" y1="57.8322" x2="-1.57042" y2="73.0198" gradientUnits="userSpaceOnUse">
      <stop stop-color="#96C8FF" stop-opacity="0"/>
      <stop offset="1" stop-color="#96C8FF"/>
    </linearGradient>
    <linearGradient id="paint18_linear" x1="18.068" y1="16.167" x2="21.8276" y2="38.2848" gradientUnits="userSpaceOnUse">
      <stop stop-color="#96C8FF" stop-opacity="0"/>
      <stop offset="1" stop-color="#96C8FF"/>
    </linearGradient>
    <linearGradient id="paint19_linear" x1="12.336" y1="18.7425" x2="15.8052" y2="39.1522" gradientUnits="userSpaceOnUse">
      <stop stop-color="#96C8FF" stop-opacity="0"/>
      <stop offset="1" stop-color="#96C8FF"/>
    </linearGradient>
    <linearGradient id="paint20_linear" x1="21.6519" y1="41.6122" x2="30.8498" y2="28.6674" gradientUnits="userSpaceOnUse">
      <stop stop-color="#96C8FF" stop-opacity="0"/>
      <stop offset="1" stop-color="#96C8FF"/>
    </linearGradient>
    <linearGradient id="paint21_linear" x1="11.3032" y1="66.0413" x2="18.5147" y2="76.2027" gradientUnits="userSpaceOnUse">
      <stop stop-color="#F2F8FF"/>
      <stop offset="1" stop-color="#7ABAFF"/>
    </linearGradient>
  </defs>
</svg>
