<?xml version="1.0" encoding="UTF-8"?><svg id="a" xmlns="http://www.w3.org/2000/svg" viewBox="0 0 1872 763.83"><defs><style>.b{fill:#b8d4e4;}</style></defs><g><path class="b" d="M993.53,712.27c-.84,0-1.71-.17-2.53-.53l-74.57-32.14-94.29-22.79c-.69-.18-1.35-.46-1.95-.84l-68.34-43.82-93.58-17.3-58.7-9.14-62.89,24.97c-.49,.2-1,.33-1.53,.4l-91.18,12.05-75.1,27.54-22.41,24.47c-.53,.58-1.16,1.06-1.87,1.41l-70.38,35.05c-.89,.45-1.86,.68-2.86,.68H61.79c-3.54,0-6.41-2.87-6.41-6.41s2.87-6.41,6.41-6.41h208.04l67.97-33.85,22.66-24.74c.69-.76,1.56-1.34,2.52-1.69l77.22-28.32c.45-.17,.9-.28,1.37-.34l91.1-12.04,63.78-25.32c1.06-.43,2.23-.56,3.35-.38l60.61,9.44,95,17.56c.82,.15,1.6,.46,2.29,.91l68.5,43.92,93.77,22.67c.35,.09,.69,.2,1.03,.35l75.08,32.37c3.25,1.4,4.75,5.17,3.35,8.42-1.05,2.42-3.41,3.87-5.89,3.87Z"/><path class="b" d="M1805.7,712.27h-360.87c-3.54,0-6.41-2.87-6.41-6.41s2.87-6.41,6.41-6.41h360.87c3.54,0,6.41,2.87,6.41,6.41s-2.87,6.41-6.41,6.41Z"/><path class="b" d="M1367.13,712.27H812.88c-3.54,0-6.41-2.87-6.41-6.41s2.87-6.41,6.41-6.41h554.25c3.54,0,6.41,2.87,6.41,6.41s-2.87,6.41-6.41,6.41Z"/><path class="b" d="M1538.08,712.27c-.54,0-1.08-.07-1.63-.21l-36.03-9.44c-.6-.16-1.17-.4-1.71-.72l-82.11-49.9-77.8-59.73-65.55-41.19-56.24-24.08-119.02-70.5-36.68-22.64-66.82-24.04-100.09-49.56-50.4-1.3c-.59-.02-1.18-.11-1.75-.29l-20.23-6.35-59.69,6.33-16.92,19.66c-.77,.89-1.76,1.55-2.88,1.91l-32.65,10.6-33.68,18.58-69.98,45.61-73.72,40.7c-32.14,21.96-87.37,59.53-90.35,60.9-2.94,1.35-25.74,7.72-36.8,10.77l-26.81,22.07-24.66,22.69-109.96,98.49c-2.65,2.37-6.69,2.14-9.05-.5-2.36-2.64-2.14-6.68,.5-9.05l134.76-121.31,28.13-23.16c.7-.57,1.5-.99,2.37-1.23,16.09-4.43,34.05-9.57,36.25-10.46,3.36-1.92,55.06-37.03,88.92-60.11l73.83-40.78,69.98-45.61,34.62-19.11c.36-.2,.73-.36,1.12-.48l31.53-10.24,17.4-20.22c1.06-1.23,2.56-2.01,4.18-2.19l63.54-6.74c.88-.1,1.76,0,2.59,.26l20.65,6.48,50.91,1.32c.93,.03,1.85,.26,2.68,.67l100.69,49.9,66.78,23.98c.42,.15,.82,.34,1.2,.58l37.15,22.93,118.18,70.06,55.96,23.9c.31,.13,.61,.29,.89,.47l66.47,41.81,77.72,59.68,80.74,49.02,35.12,9.2c3.42,.9,5.47,4.4,4.58,7.83-.75,2.87-3.35,4.78-6.19,4.78Z"/><path class="b" d="M591.96,555.84c-1.62,0-3.24-.61-4.48-1.83-2.53-2.48-2.57-6.53-.1-9.07l26.39-26.97c.31-.32,.65-.6,1.02-.84l32.26-21.58c.69-.46,1.47-.78,2.28-.95l22.46-4.6,4.87-19.04c.31-1.19,.95-2.29,1.87-3.12l16.57-15.25,9.94-23.69,4.77-26.27c.19-1.08,.66-2.08,1.36-2.93l24.44-29.67c2.25-2.74,6.28-3.11,9.02-.88,2.73,2.25,3.12,6.3,.87,9.02l-23.38,28.38-4.59,25.32c-.08,.46-.21,.9-.4,1.34l-10.75,25.62c-.36,.85-.89,1.61-1.57,2.23l-16.2,14.9-5.39,21.08c-.61,2.37-2.52,4.19-4.92,4.69l-25.16,5.14-30.66,20.51-25.93,26.49c-1.26,1.28-2.92,1.93-4.58,1.93Z"/><path class="b" d="M1344.68,712.27c-1.26,0-2.52-.37-3.63-1.13l-72.36-49.89c-.38-.26-.74-.57-1.06-.91l-30.86-33.27-32.74-23.9-40.67-25.37-51.6-29.53-48.41-34.04c-1.25-.88-2.14-2.17-2.52-3.65l-5.86-22.92c-.56-2.2,.07-4.53,1.68-6.13,1.6-1.6,3.93-2.23,6.13-1.67l88.96,22.92c.4,.1,.8,.25,1.17,.43l66.65,31.98,71.18,12.33c3.49,.6,5.82,3.92,5.22,7.4-.6,3.49-3.94,5.87-7.41,5.22l-72.05-12.48c-.58-.1-1.15-.28-1.68-.54l-66.88-32.09-77.85-20.06,2.59,10.14,45.97,32.35,51.3,29.34,41.27,25.76,33.62,24.52c.33,.25,.64,.52,.92,.82l30.8,33.2,71.78,49.49c2.91,2,3.65,6,1.64,8.92-1.24,1.8-3.24,2.77-5.28,2.77Z"/><path class="b" d="M1695.63,712.27c-1.46,0-2.94-.5-4.14-1.52l-25.46-21.58c-.71-.6-1.27-1.35-1.67-2.19l-14.99-32.3-23.2-17.92c-.58-.45-1.08-.99-1.47-1.6l-15.03-23.32-50.9-38.42-80.76-52.32-57.79-39.19-37.83-22.73c-.4-.25-.78-.53-1.12-.85l-40.59-38.67-46.38-29.33-76.97-65.26-62.84-39.94c-.63-.4-1.18-.91-1.64-1.49l-15.95-20.71-34.28-22.32-35.29-28.37-26.62-14.91-23.94,23.59-37.26,28.48-47.49,53.48-54.02,54.94c-2.48,2.52-6.54,2.55-9.06,.08-2.52-2.49-2.56-6.54-.07-9.07l53.79-54.7,47.67-53.7c.27-.31,.58-.59,.91-.84l37.15-28.32,26.76-26.44c2.04-2.01,5.14-2.41,7.63-1.03l31.28,17.53c.31,.18,.61,.38,.88,.6l35.19,28.32,34.67,22.54c.6,.4,1.14,.89,1.58,1.46l15.93,20.69,62.59,39.86,76.95,65.25,46.2,29.14c.36,.23,.69,.48,1,.77l40.54,38.63,37.51,22.55,57.97,39.3,81.03,52.51,52.18,39.37c.6,.46,1.12,1.01,1.53,1.65l15.05,23.35,23.56,18.2c.81,.63,1.46,1.44,1.9,2.37l15.05,32.44,24.38,20.66c2.7,2.29,3.03,6.33,.74,9.03-1.27,1.49-3.07,2.27-4.89,2.27Z"/><path class="b" d="M113.59,712.27c-1.98,0-3.93-.91-5.19-2.64-2.08-2.86-1.45-6.87,1.41-8.95l62.4-45.43c.43-.32,.91-.58,1.41-.78l50.04-19.8,56.38-67.73c.55-.66,1.22-1.2,1.97-1.59l62.43-32.37,77.57-84.96c.41-.45,.87-.83,1.39-1.14l43.49-26.67,38.67-34.68c.23-.2,.46-.39,.72-.55l32.26-21.58,47.29-27.2c1.49-.86,3.27-1.1,4.94-.61l38.13,10.79,34.65,6.6c.59,.11,1.16,.31,1.69,.58l45.95,23.27c3.16,1.6,4.42,5.45,2.82,8.61-1.6,3.16-5.45,4.43-8.62,2.82l-45.15-22.86-34.3-6.57-36.07-10.18-44.58,25.62-31.51,21.09-38.77,34.77c-.29,.26-.6,.48-.93,.69l-43.22,26.5-77.74,85.13c-.51,.56-1.11,1.03-1.78,1.37l-62.29,32.3-56.6,67.99c-.69,.83-1.57,1.47-2.56,1.86l-50.8,20.11-61.75,44.95c-1.14,.83-2.46,1.23-3.77,1.23Z"/></g><g><path class="b" d="M1477.82,465.97c-.94,0-1.9-.21-2.81-.65-3.18-1.56-4.5-5.4-2.94-8.57,24.57-50.24,25.01-108.03,1.22-158.56-20.83-44.24-57.65-77.72-103.66-94.26-46.02-16.56-95.72-14.18-139.96,6.65-18.76,8.84-35.69,20.61-50.32,34.99-2.52,2.47-6.57,2.44-9.07-.08-2.48-2.52-2.44-6.59,.08-9.07,15.66-15.39,33.78-27.99,53.85-37.43,47.33-22.31,100.51-24.84,149.75-7.12,49.24,17.71,88.63,53.53,110.93,100.86,25.46,54.07,24.99,115.91-1.3,169.66-1.11,2.28-3.39,3.6-5.76,3.6Z"/><g><path class="b" d="M1253.15,156.33c-2.92,0-5.57-2.01-6.24-4.99l-20.24-88.72c-.79-3.45,1.37-6.88,4.82-7.68,3.49-.76,6.89,1.38,7.67,4.83l20.24,88.72c.79,3.45-1.37,6.89-4.82,7.68-.48,.1-.96,.16-1.43,.16Z"/><g><path class="b" d="M1599.81,539.74c-.99,0-1.98-.23-2.92-.7l-80.98-41.52c-3.15-1.62-4.4-5.48-2.78-8.63,1.62-3.14,5.48-4.37,8.63-2.78l80.98,41.52c3.15,1.62,4.4,5.48,2.78,8.63-1.13,2.21-3.38,3.48-5.71,3.48Z"/><path class="b" d="M1621.49,486.48c-.62,0-1.26-.09-1.89-.28l-86.95-26.83c-3.38-1.05-5.28-4.63-4.23-8.02,1.04-3.39,4.62-5.27,8.01-4.24l86.95,26.83c3.38,1.05,5.28,4.63,4.23,8.02-.85,2.75-3.38,4.52-6.12,4.52Z"/><path class="b" d="M1633.6,430.27c-.27,0-.54-.02-.8-.05l-90.29-11.33c-3.51-.44-6.01-3.64-5.56-7.16,.44-3.51,3.68-6.01,7.15-5.56l90.29,11.33c3.51,.44,6.01,3.64,5.56,7.16-.4,3.24-3.17,5.61-6.35,5.61Z"/><path class="b" d="M1544.85,377.34c-3.39,0-6.23-2.66-6.4-6.09-.18-3.53,2.55-6.54,6.08-6.72l90.89-4.53c3.64-.2,6.55,2.55,6.72,6.08,.17,3.53-2.55,6.54-6.08,6.72l-90.89,4.53c-.11,0-.22,0-.32,0Z"/><path class="b" d="M1539.17,336.09c-2.92,0-5.57-2.01-6.24-4.99-.79-3.45,1.37-6.88,4.82-7.68l88.72-20.24c3.47-.73,6.89,1.38,7.67,4.83,.79,3.45-1.37,6.88-4.82,7.68l-88.72,20.24c-.48,.11-.96,.16-1.43,.16Z"/><path class="b" d="M1526.41,296.45c-2.5,0-4.88-1.47-5.91-3.92-1.38-3.26,.15-7.02,3.42-8.4l83.86-35.34c3.29-1.38,7.03,.16,8.39,3.42,1.38,3.26-.15,7.02-3.42,8.4l-83.86,35.34c-.81,.34-1.66,.5-2.48,.5Z"/><path class="b" d="M1506.96,259.64c-2.1,0-4.16-1.04-5.39-2.94-1.92-2.97-1.06-6.94,1.91-8.85l76.45-49.36c2.98-1.92,6.94-1.06,8.86,1.91,1.92,2.97,1.06,6.94-1.91,8.85l-76.45,49.36c-1.08,.69-2.28,1.03-3.47,1.03Z"/><path class="b" d="M1481.41,226.76c-1.72,0-3.43-.69-4.7-2.05-2.41-2.59-2.25-6.65,.34-9.06l66.71-61.89c2.59-2.42,6.63-2.27,9.06,.33,2.41,2.59,2.26,6.66-.34,9.06l-66.71,61.89c-1.23,1.15-2.8,1.71-4.36,1.71Z"/><path class="b" d="M1450.53,198.82c-1.35,0-2.71-.42-3.86-1.3-2.82-2.14-3.38-6.16-1.24-8.98l54.95-72.54c2.14-2.81,6.16-3.38,8.98-1.24,2.82,2.14,3.38,6.16,1.24,8.98l-54.95,72.54c-1.26,1.66-3.17,2.54-5.11,2.54Z"/><path class="b" d="M1415.28,176.66c-.99,0-1.98-.23-2.92-.7-3.15-1.62-4.4-5.48-2.78-8.63l41.52-80.97c1.62-3.14,5.49-4.37,8.63-2.78,3.15,1.62,4.4,5.48,2.78,8.63l-41.52,80.97c-1.13,2.21-3.38,3.48-5.71,3.48Z"/><path class="b" d="M1376.71,160.97c-.62,0-1.26-.09-1.89-.28-3.38-1.05-5.28-4.63-4.23-8.02l26.83-86.96c1.04-3.38,4.62-5.28,8.01-4.24,3.38,1.05,5.28,4.63,4.23,8.02l-26.83,86.96c-.85,2.75-3.39,4.52-6.12,4.52Z"/><path class="b" d="M1336.02,152.2c-.27,0-.54-.02-.8-.05-3.51-.44-6.01-3.64-5.56-7.16l11.32-90.29c.44-3.51,3.67-6.03,7.15-5.56,3.51,.44,6.01,3.64,5.56,7.16l-11.33,90.29c-.4,3.24-3.17,5.61-6.35,5.61Z"/><path class="b" d="M1294.39,150.64c-3.39,0-6.23-2.66-6.4-6.09l-4.52-90.88c-.18-3.53,2.55-6.54,6.08-6.72,3.5-.21,6.54,2.55,6.72,6.08l4.52,90.88c.17,3.53-2.55,6.54-6.08,6.72-.11,0-.22,0-.32,0Z"/><path class="b" d="M1213.52,169.09c-2.5,0-4.88-1.47-5.91-3.92l-35.34-83.86c-1.38-3.26,.15-7.02,3.42-8.4,3.29-1.37,7.03,.16,8.39,3.42l35.34,83.85c1.38,3.26-.15,7.02-3.42,8.4-.81,.34-1.66,.5-2.48,.5Z"/><path class="b" d="M1176.71,188.54c-2.1,0-4.16-1.04-5.39-2.94l-49.37-76.44c-1.92-2.97-1.06-6.94,1.91-8.85,2.98-1.92,6.94-1.06,8.86,1.91l49.37,76.44c1.92,2.97,1.06,6.94-1.91,8.85-1.08,.69-2.28,1.03-3.47,1.03Z"/><path class="b" d="M1143.82,214.09c-1.72,0-3.43-.69-4.7-2.05l-61.89-66.71c-2.4-2.59-2.25-6.65,.34-9.06,2.59-2.42,6.64-2.27,9.06,.33l61.89,66.71c2.4,2.59,2.25,6.65-.34,9.06-1.23,1.15-2.8,1.71-4.36,1.71Z"/></g></g></g><path class="b" d="M720.84,239.69h-14.92c-12.21,0-22.15-9.94-22.15-22.15,0-1.2,.1-2.37,.29-3.53h-60.99c-10.53,0-19.15-8.32-19.65-18.72h-238.58c-11.78,0-21.36-9.58-21.36-21.37s9.58-21.37,21.36-21.37h95.89c4.43-12.65,16.36-21.37,30.15-21.37h192.27c13.79,0,25.72,8.71,30.15,21.37h36.08c11.78,0,21.36,9.58,21.36,21.37,0,.25,0,.5-.01,.75h33.8c10.85,0,19.67,8.83,19.67,19.67s-8.82,19.67-19.67,19.67h-61.82c.19,1.16,.28,2.34,.28,3.53,0,12.21-9.94,22.15-22.15,22.15Zm-356.01-74.31c-4.71,0-8.54,3.83-8.54,8.55s3.83,8.55,8.54,8.55h246.18c2.18,0,4.22,1.11,5.39,2.94,1.18,1.84,1.34,4.15,.44,6.13-.42,.91-.63,1.85-.63,2.8,0,3.78,3.07,6.85,6.85,6.85h70.75c2.48,0,4.74,1.43,5.79,3.67,1.06,2.24,.73,4.9-.85,6.81-.99,1.2-2.17,3.2-2.17,5.87,0,5.14,4.19,9.33,9.33,9.33h14.92c5.15,0,9.33-4.18,9.33-9.33,0-2.67-1.18-4.67-2.17-5.87-1.57-1.92-1.9-4.56-.84-6.81,1.06-2.24,3.31-3.67,5.79-3.67h71.58c3.78,0,6.85-3.07,6.85-6.85s-3.07-6.85-6.85-6.85h-42.1c-2.27,0-4.37-1.2-5.52-3.15-1.16-1.95-1.19-4.37-.1-6.36,.73-1.33,1.11-2.7,1.11-4.06,0-4.71-3.83-8.55-8.54-8.55h-41.02c-3.13,0-5.8-2.26-6.32-5.35-1.56-9.29-9.51-16.02-18.89-16.02h-192.27c-9.38,0-17.32,6.73-18.89,16.02-.52,3.08-3.19,5.35-6.32,5.35h-100.84Z"/><path class="b" d="M344.54,357.64h-85.46c-10.43,0-19.81-6.16-24.13-15.44-9.02-1.98-15.4-9.63-15.4-18.74,0-10.6,8.62-19.23,19.23-19.23h220.04c10.6,0,19.23,8.62,19.23,19.23s-8.63,19.23-19.23,19.23h-90.41c-4.42,8.99-13.65,14.95-23.89,14.95Zm-105.75-40.59c-3.53,0-6.41,2.87-6.41,6.41s2.87,6.41,6.41,6.41c2.89,0,6.22,1.94,6.98,4.71,1.65,6.03,7.13,10.23,13.31,10.23h85.46c6.18,0,11.66-4.2,13.31-10.23,.77-2.78,3.29-4.71,6.18-4.71h94.8c3.53,0,6.41-2.87,6.41-6.41s-2.88-6.41-6.41-6.41H238.79Z"/><path class="b" d="M1754.52,391.83h-38.45c-8.84,0-16.02-7.19-16.02-16.03s7.19-16.02,16.02-16.02h38.45c8.84,0,16.02,7.18,16.02,16.02s-7.19,16.03-16.02,16.03Zm-38.45-19.23c-1.77,0-3.21,1.43-3.21,3.2s1.44,3.21,3.21,3.21h38.45c1.77,0,3.2-1.44,3.2-3.21s-1.44-3.2-3.2-3.2h-38.45Z"/><path class="b" d="M1012.14,94.87h-44.86c-10.6,0-19.23-8.63-19.23-19.23s8.63-19.23,19.23-19.23h44.86c10.6,0,19.23,8.63,19.23,19.23s-8.63,19.23-19.23,19.23Zm-44.86-25.64c-3.53,0-6.41,2.87-6.41,6.41s2.87,6.41,6.41,6.41h44.86c3.53,0,6.41-2.87,6.41-6.41s-2.88-6.41-6.41-6.41h-44.86Z"/><path class="b" d="M172.56,520h-29.91c-10.6,0-19.22-8.63-19.22-19.23s8.62-19.23,19.22-19.23h29.91c10.6,0,19.23,8.63,19.23,19.23s-8.63,19.23-19.23,19.23Zm-29.91-25.64c-3.53,0-6.41,2.87-6.41,6.41s2.88,6.41,6.41,6.41h29.91c3.53,0,6.41-2.87,6.41-6.41s-2.88-6.41-6.41-6.41h-29.91Z"/></svg>