<svg width="119" height="132" viewBox="0 0 119 132" fill="none" xmlns="http://www.w3.org/2000/svg">
  <g clip-path="url(#clip0)">
    <path d="M59.6277 131.96C92.1744 131.96 118.559 105.462 118.559 72.7752C118.559 40.0884 92.1744 13.5905 59.6277 13.5905C27.0811 13.5905 0.696777 40.0884 0.696777 72.7752C0.696777 105.462 27.0811 131.96 59.6277 131.96Z" fill="#161618" fill-opacity="0.07"/>
    <mask id="mask0" mask-type="alpha" maskUnits="userSpaceOnUse" x="0" y="13" width="119" height="119">
      <path d="M59.6277 131.96C92.1744 131.96 118.559 105.462 118.559 72.7752C118.559 40.0884 92.1744 13.5905 59.6277 13.5905C27.0811 13.5905 0.696777 40.0884 0.696777 72.7752C0.696777 105.462 27.0811 131.96 59.6277 131.96Z" fill="white"/>
    </mask>
    <g mask="url(#mask0)">
      <path d="M106.239 111.732C106.32 103.686 105.623 83.5031 107.225 76.0846C107.225 76.0846 113.607 85.0941 118.559 97.9039C117.292 105.195 109.787 105.541 106.239 111.732Z" fill="url(#paint0_linear)"/>
      <path d="M11.415 78.6393C25.9441 71.9571 54.966 65.7477 54.966 65.7477C54.966 65.7477 50.3312 65.1386 70.1468 67.5114C89.9624 69.8843 107.225 76.0755 107.225 76.0755C107.225 76.0755 107.805 97.9584 107.225 109.859C97.4216 129.415 79.0091 136.742 56.0161 137.924C54.9388 137.97 51.4989 139.67 50.4126 139.67C39.9209 139.67 25.1837 140.515 16.5115 135.924L11.415 78.6393Z" fill="url(#paint1_linear)"/>
      <path d="M3.3675 92.6309C7.35054 80.4848 11.4151 78.6393 11.4151 78.6393C13.4337 89.4398 16.9008 103.468 19.0915 114.632C20.1415 119.987 17.9599 127.405 18.9647 133.06C18.9919 133.197 18.9104 133.333 18.8742 133.469C10.4917 130.406 4.07359 123.551 -2.19971 117.414C-0.0180857 106.295 2.05491 96.6402 3.3675 92.6309Z" fill="url(#paint2_linear)"/>
      <path d="M41.6313 74.123C41.6313 74.123 44.4568 88.2005 57.3698 88.8461C67.5237 89.3538 77.6775 83.7692 79.7083 71.0769C79.7083 71.0769 80.6296 71.0116 74.0756 69.0842C67.5127 67.1659 41.6313 74.123 41.6313 74.123Z" fill="url(#paint3_linear)"/>
      <path d="M18.313 110.759C39.1334 113.286 91.8725 110.041 106.583 108.932C96.1362 128.142 72.3194 135.942 54.5587 136.842C53.4905 136.888 52.4223 136.924 51.3451 136.924C42.7996 136.924 26.2881 135.542 18.8652 132.424L18.313 110.759Z" fill="url(#paint4_linear)"/>
    </g>
    <g clip-path="url(#clip1)">
      <path d="M53.9933 8.16748C53.9933 8.16748 52.0798 3.33257 55.4136 1.44706C58.7474 -0.43845 63.9947 -0.691256 65.4065 1.95267C66.8182 4.5966 65.7807 9.63165 65.7807 9.63165L53.9933 8.16748Z" fill="url(#paint5_linear)"/>
      <path d="M78.8176 37.732C78.4763 22.0645 70.2204 15.4989 59.6148 15.4989C49.0091 15.4989 40.8326 23.5654 40.4039 37.732C39.8482 56.2809 49.0012 59.957 59.6148 59.957C70.2283 59.957 79.1352 52.3319 78.8176 37.732Z" fill="url(#paint6_linear)"/>
      <path d="M80.0084 35.8137C79.7465 26.0777 85.0413 6.42114 59.6148 6.42114C33.3785 6.42114 39.4752 26.0777 39.2132 35.8137C38.9512 45.5417 37.1016 49.6592 37.6811 60.3584C38.467 74.8941 47.1595 83.8355 59.5989 83.8355C72.205 83.8355 80.5085 74.1076 80.4768 59.9571C80.4609 49.29 80.2704 45.5417 80.0084 35.8137ZM59.6148 56.281C37.3636 56.281 41.1978 36.8812 41.7773 32.0895C42.595 25.3072 45.3496 26.8001 47.3977 28.1806C49.287 29.4568 52.3591 31.4634 59.6148 31.4634C67.4658 31.4634 70.1093 29.5853 71.697 28.4535C73.7054 27.0168 76.5711 24.9701 77.4523 32.0895C78.0397 36.8812 81.866 56.281 59.6148 56.281Z" fill="url(#paint7_linear)"/>
      <path d="M59.734 43.9605C59.5672 38.7353 63.6317 34.3529 68.7996 34.1843C73.9674 34.0158 78.3018 38.1253 78.4685 43.3504C78.6352 48.5756 74.5707 52.958 69.4029 53.1266C64.2429 53.2951 59.9007 49.1856 59.734 43.9605ZM61.4725 43.9043C61.6074 48.1582 65.14 51.5052 69.3473 51.3688C73.5546 51.2324 76.8649 47.6606 76.73 43.4066C76.595 39.1527 73.0625 35.8057 68.8551 35.9421C64.6557 36.0786 61.3375 39.6503 61.4725 43.9043Z" fill="white"/>
      <path d="M46.2227 52.2035C43.9999 51.2885 42.19 49.5227 41.1342 47.2432C38.9353 42.5157 40.6738 36.9855 45.0081 34.9308C49.3424 32.868 54.6611 35.0431 56.8601 39.7707C59.059 44.4982 57.3205 50.0284 52.9861 52.0831C51.97 52.5647 50.8825 52.8296 49.779 52.8617C48.5962 52.9098 47.3896 52.6851 46.2227 52.2035ZM45.7543 36.528C42.2852 38.1734 40.9278 42.6521 42.7139 46.4968C43.5871 48.3749 45.0716 49.8197 46.8815 50.5742C48.6756 51.3126 50.5808 51.2885 52.2399 50.4939C55.709 48.8485 57.0665 44.3698 55.2803 40.5252C53.907 37.5714 51.073 35.8297 48.2628 35.926C47.4134 35.9501 46.564 36.1428 45.7543 36.528Z" fill="white"/>
      <path d="M60.8291 41.7852L61.2498 40.0756C61.1546 40.0516 58.8683 39.4897 56.2407 40.0917L56.6218 41.8093C58.8524 41.3037 60.8053 41.7852 60.8291 41.7852Z" fill="white"/>
      <path d="M73.5545 50.9674C73.5545 50.9674 66.4179 45.9509 63.322 37.3467C63.322 37.3467 61.0675 39.4416 60.6706 42.4916C60.2657 45.5416 61.258 49.3461 65.2431 51.3126C69.2281 53.2871 73.1735 51.6416 73.5545 50.9674Z" fill="url(#paint8_linear)"/>
      <path d="M53.6532 50.5501C53.6532 50.5501 46.5166 45.5336 43.4206 36.9293C43.4206 36.9293 41.1661 39.0242 40.7692 42.0742C40.3643 45.1242 41.3566 48.9287 45.3417 50.8952C49.3585 52.8697 53.3039 51.2243 53.6532 50.5501Z" fill="url(#paint9_linear)"/>
    </g>
    <mask id="mask1" mask-type="alpha" maskUnits="userSpaceOnUse" x="0" y="13" width="119" height="119">
      <path d="M59.6277 131.96C92.1744 131.96 118.559 105.462 118.559 72.7752C118.559 40.0884 92.1744 13.5905 59.6277 13.5905C27.0811 13.5905 0.696777 40.0884 0.696777 72.7752C0.696777 105.462 27.0811 131.96 59.6277 131.96Z" fill="white"/>
    </mask>
    <g mask="url(#mask1)">
      <path d="M49.9145 94.1036L101.585 135.951L65.3035 138.515L35.8562 109.195L35.6479 106.359L41.1065 96.6401L49.9145 94.1036Z" fill="url(#paint10_linear)"/>
      <path d="M47.199 104.695C43.7862 108.777 39.079 110.45 36.6892 108.432C34.2993 106.413 35.1231 101.468 38.5359 97.3856C41.9486 93.3036 46.6558 91.6308 49.0457 93.649C51.4445 95.6673 50.6117 100.613 47.199 104.695Z" fill="url(#paint11_linear)"/>
      <path d="M49.1451 93.6491L47.1626 88.6488C46.7734 87.3669 46.7281 85.3305 46.0854 84.1577L44.6461 81.5757C43.7771 80.012 43.1343 78.3392 42.727 76.6027L41.2605 70.3479L40.8893 67.4205C40.835 67.0204 40.4186 66.775 40.0475 66.9204L39.1332 67.2841C38.4814 67.5477 37.9835 68.0932 37.7844 68.7751L36.5171 73.1298C36.4537 73.3389 36.4265 73.5662 36.4265 73.7844L36.4537 79.9484L36.1097 81.0393C35.6842 82.3848 34.2811 83.1485 32.9233 82.7667L32.4254 82.6212L23.3096 81.603C23.2553 81.5939 23.201 81.5939 23.1467 81.603L20.784 81.7666C20.7026 81.7757 20.6211 81.7939 20.5396 81.8212L18.6296 82.5212C18.3489 82.6212 18.1317 82.8667 18.0683 83.1667L17.7605 84.6304C17.7062 84.8759 17.7605 85.1304 17.9144 85.3395L18.5481 86.2123C18.8649 86.6487 18.7291 87.2578 18.2584 87.5124L17.9416 87.6851C17.7153 87.8033 17.5523 88.0215 17.498 88.2761L16.9911 90.5944C16.9368 90.8398 16.9911 91.1035 17.1359 91.3035L17.9506 92.4217C18.1951 92.7672 18.1045 93.2218 17.7515 93.449L16.8915 93.9763C16.6743 94.1127 16.5204 94.34 16.4842 94.5946L16.113 96.9856C16.0768 97.2311 16.1402 97.4765 16.285 97.6765L17.0454 98.6675C17.3441 99.0584 17.2717 99.6221 16.8734 99.913C16.6562 100.077 16.5294 100.322 16.5204 100.595L16.4751 102.022C16.4661 102.177 16.5113 102.331 16.5837 102.477L17.1631 103.54C17.2536 103.704 17.3894 103.831 17.5614 103.913L20.8384 105.468L27.7091 107.304C28.4061 107.486 29.1394 107.513 29.8455 107.377L30.1804 107.313C30.7235 107.204 31.2938 107.195 31.837 107.277L39.2147 108.459C39.957 108.577 40.7174 108.513 41.4325 108.277L43.2611 107.668C44.3202 107.313 45.2164 106.604 45.7957 105.65L46.194 104.995C47.8597 102.259 49.3624 99.9494 49.5072 96.7401L49.4619 98.1402C49.5706 95.9764 49.5434 95.34 49.1451 93.6491Z" fill="url(#paint12_linear)"/>
      <path d="M29.9812 101.022L22.5039 101.84C22.4768 101.84 22.4587 101.84 22.4315 101.849L17.8148 101.959C17.5161 101.968 17.2355 101.813 17.0906 101.549L16.5384 100.613L16.5022 101.813C16.4932 102.113 16.5656 102.422 16.7104 102.686L17.0544 103.322C17.2264 103.64 17.498 103.895 17.8239 104.05L20.793 105.459C20.8383 105.477 20.8836 105.495 20.9288 105.513L27.5371 107.286C28.3518 107.504 29.2117 107.532 30.0446 107.368C30.6873 107.241 31.3481 107.222 31.9908 107.332L39.0245 108.459C39.8935 108.595 40.7897 108.523 41.6316 108.25L43.2701 107.704C44.2749 107.368 45.1258 106.713 45.7142 105.841C45.7776 105.741 45.8228 105.622 45.8409 105.504L46.4203 102.04C46.5018 101.54 46.1216 101.077 45.6146 101.077L30.0717 101.04C30.0446 101.013 30.0084 101.013 29.9812 101.022Z" fill="url(#paint13_linear)"/>
      <path d="M25.2105 106.022C22.6848 105.55 19.9058 105.013 19.9058 105.013L20.8653 105.468L27.7361 107.304C28.4331 107.486 29.1663 107.513 29.8724 107.377L30.2074 107.313C30.7324 107.204 31.2665 107.204 31.7915 107.277C30.7324 107.132 27.5641 106.468 25.2105 106.022Z" fill="url(#paint14_linear)"/>
      <path d="M18.8288 96.9128C18.8288 96.9128 31.9185 100.368 43.0077 100.595C50.6841 100.749 45.4609 101.34 39.4229 102.704C29.6826 104.895 18.8922 101.486 18.521 98.622C18.4124 97.7492 18.8288 96.9128 18.8288 96.9128Z" fill="url(#paint15_linear)"/>
      <path d="M19.2271 91.0035C19.2271 91.0035 33.0773 94.7492 43.3879 93.2218C50.9829 92.0945 46.1399 98.513 40.3825 100.786C31.5565 104.277 20.1052 95.5129 18.8379 92.6854C18.4758 91.8854 19.2271 91.0035 19.2271 91.0035Z" fill="url(#paint16_linear)"/>
      <path d="M20.2319 86.7941C20.2319 86.7941 26.4056 94.3491 43.3879 93.2126C51.0462 92.7035 46.2394 94.3127 41.7222 90.0579C36.6167 85.2486 21.2548 84.685 20.6212 85.2759C19.9875 85.8668 20.2319 86.7941 20.2319 86.7941Z" fill="url(#paint17_linear)"/>
      <path d="M46.1399 89.8761L49.4259 95.0855C49.3625 94.6582 49.272 94.2127 49.1453 93.649L47.1628 88.6488C46.7735 87.3669 46.7283 85.3304 46.0856 84.1576L44.6462 81.5757C43.7772 80.012 43.1345 78.3392 42.7271 76.6027L41.2606 70.3478L40.8895 67.4204C40.8533 67.1113 40.5998 66.9022 40.3192 66.884C40.2287 67.1386 40.1744 67.3204 40.1744 67.3204L40.0386 73.4389L41.7223 82.6939L42.537 88.9215L46.1399 89.8761Z" fill="url(#paint18_linear)"/>
      <path d="M28.9038 106.75C28.9038 106.75 45.9856 108.923 49.507 95.8583C49.507 95.8583 50.023 99.0857 46.6374 104.722C43.2518 110.368 36.9242 108.095 35.0051 107.795C33.086 107.495 28.9038 106.75 28.9038 106.75Z" fill="url(#paint19_linear)"/>
      <path d="M37.5219 82.2121C37.1326 81.3121 36.4537 79.9484 36.4537 79.9484C36.4537 79.9484 35.9377 82.8667 33.5388 82.8667C33.5388 82.8667 36.1188 83.494 37.5309 84.694C37.5219 84.694 35.4127 83.1394 32.9233 82.7758C30.4339 82.4121 23.1558 81.6121 23.1558 81.6121C23.1558 81.6121 25.9258 82.203 28.1979 83.3849C30.4791 84.5759 32.7965 84.9304 35.3855 85.0304C37.9292 85.1304 37.54 84.7122 37.5219 84.7031C37.6124 84.7759 37.7029 84.8577 37.7753 84.9395C39.794 86.9851 37.9202 83.1303 37.5219 82.2121Z" fill="url(#paint20_linear)"/>
    </g>
  </g>
  <defs>
    <linearGradient id="paint0_linear" x1="100.797" y1="94.9367" x2="114.858" y2="92.5183" gradientUnits="userSpaceOnUse">
      <stop stop-color="#881466"/>
      <stop offset="1" stop-color="#BF1466"/>
    </linearGradient>
    <linearGradient id="paint1_linear" x1="19.6451" y1="82.0345" x2="92.3078" y2="122.929" gradientUnits="userSpaceOnUse">
      <stop stop-color="#881466"/>
      <stop offset="1" stop-color="#BF1466"/>
    </linearGradient>
    <linearGradient id="paint2_linear" x1="-0.156315" y1="74.0569" x2="12.1222" y2="133.388" gradientUnits="userSpaceOnUse">
      <stop stop-color="#881466"/>
      <stop offset="1" stop-color="#BF1466"/>
    </linearGradient>
    <linearGradient id="paint3_linear" x1="65.1098" y1="64.2395" x2="59.8615" y2="89.6" gradientUnits="userSpaceOnUse">
      <stop stop-color="#BF1466"/>
      <stop offset="1" stop-color="#F76570"/>
    </linearGradient>
    <linearGradient id="paint4_linear" x1="58.1228" y1="98.2435" x2="65.6404" y2="134.57" gradientUnits="userSpaceOnUse">
      <stop stop-color="#BF1466"/>
      <stop offset="1" stop-color="#F76570"/>
    </linearGradient>
    <linearGradient id="paint5_linear" x1="68.6918" y1="5.20583" x2="56.1909" y2="4.54045" gradientUnits="userSpaceOnUse">
      <stop stop-color="#004FFF"/>
      <stop offset="1" stop-color="#007AFF"/>
    </linearGradient>
    <linearGradient id="paint6_linear" x1="59.6026" y1="16.9722" x2="59.6026" y2="54.2418" gradientUnits="userSpaceOnUse">
      <stop stop-color="#F2F8FF"/>
      <stop offset="0.4972" stop-color="#E5F2FF"/>
      <stop offset="1" stop-color="#BADBFF"/>
    </linearGradient>
    <linearGradient id="paint7_linear" x1="59.3359" y1="7.70199" x2="58.9391" y2="70.8919" gradientUnits="userSpaceOnUse">
      <stop stop-color="#004FFF"/>
      <stop offset="1" stop-color="#007AFF"/>
    </linearGradient>
    <linearGradient id="paint8_linear" x1="74.3448" y1="45.3213" x2="62.1671" y2="44.6057" gradientUnits="userSpaceOnUse">
      <stop stop-color="white"/>
      <stop offset="1" stop-color="white" stop-opacity="0"/>
    </linearGradient>
    <linearGradient id="paint9_linear" x1="54.4485" y1="44.9035" x2="42.2709" y2="44.1881" gradientUnits="userSpaceOnUse">
      <stop stop-color="white"/>
      <stop offset="1" stop-color="white" stop-opacity="0"/>
    </linearGradient>
    <linearGradient id="paint10_linear" x1="60.899" y1="124.275" x2="73.9208" y2="114.416" gradientUnits="userSpaceOnUse">
      <stop stop-color="#881466"/>
      <stop offset="1" stop-color="#BF1466"/>
    </linearGradient>
    <linearGradient id="paint11_linear" x1="44.1279" y1="102.065" x2="19.4311" y2="82.2144" gradientUnits="userSpaceOnUse">
      <stop stop-color="#881466"/>
      <stop offset="1" stop-color="#BF1466"/>
    </linearGradient>
    <linearGradient id="paint12_linear" x1="22.0221" y1="79.6366" x2="35.2647" y2="90.4515" gradientUnits="userSpaceOnUse">
      <stop stop-color="#D6EAFF"/>
      <stop offset="1" stop-color="#99CAFF"/>
    </linearGradient>
    <linearGradient id="paint13_linear" x1="32.9245" y1="104.481" x2="30.2509" y2="99.9846" gradientUnits="userSpaceOnUse">
      <stop stop-color="#85BFFF" stop-opacity="0"/>
      <stop offset="1" stop-color="#99CAFF"/>
    </linearGradient>
    <linearGradient id="paint14_linear" x1="25.712" y1="107.058" x2="30.1975" y2="76.3642" gradientUnits="userSpaceOnUse">
      <stop stop-color="#6EB3FF"/>
      <stop offset="1" stop-color="#B2D7FF"/>
    </linearGradient>
    <linearGradient id="paint15_linear" x1="32.3626" y1="102.278" x2="32.6591" y2="99.6952" gradientUnits="userSpaceOnUse">
      <stop stop-color="#85BFFF" stop-opacity="0"/>
      <stop offset="1" stop-color="#99CAFF"/>
    </linearGradient>
    <linearGradient id="paint16_linear" x1="31.7793" y1="99.7687" x2="32.669" y2="95.176" gradientUnits="userSpaceOnUse">
      <stop stop-color="#85BFFF" stop-opacity="0"/>
      <stop offset="1" stop-color="#99CAFF"/>
    </linearGradient>
    <linearGradient id="paint17_linear" x1="29.7388" y1="95.7533" x2="35.4268" y2="87.072" gradientUnits="userSpaceOnUse">
      <stop stop-color="#85BFFF" stop-opacity="0"/>
      <stop offset="1" stop-color="#99CAFF"/>
    </linearGradient>
    <linearGradient id="paint18_linear" x1="39.6939" y1="85.029" x2="44.3633" y2="81.4102" gradientUnits="userSpaceOnUse">
      <stop stop-color="#85BFFF" stop-opacity="0"/>
      <stop offset="1" stop-color="#99CAFF"/>
    </linearGradient>
    <linearGradient id="paint19_linear" x1="50.1196" y1="100.503" x2="31.0031" y2="107.272" gradientUnits="userSpaceOnUse">
      <stop stop-color="#4FA3FF"/>
      <stop offset="1" stop-color="#99CAFF"/>
    </linearGradient>
    <linearGradient id="paint20_linear" x1="30.8079" y1="84.06" x2="31.4429" y2="81.0593" gradientUnits="userSpaceOnUse">
      <stop stop-color="#85BFFF" stop-opacity="0"/>
      <stop offset="1" stop-color="#70B5FF"/>
    </linearGradient>
    <clipPath id="clip0">
      <rect width="118.8" height="132" fill="white"/>
    </clipPath>
    <clipPath id="clip1">
      <rect width="43.6615" height="84.2769" fill="white" transform="translate(37.5693)"/>
    </clipPath>
  </defs>
</svg>
