<svg width="113" height="132" viewBox="0 0 113 132" fill="none" xmlns="http://www.w3.org/2000/svg">
  <path d="M55.8069 131.789C86.6282 131.789 111.614 106.742 111.614 75.845C111.614 44.9479 86.6282 19.9009 55.8069 19.9009C24.9856 19.9009 0 44.9479 0 75.845C0 106.742 24.9856 131.789 55.8069 131.789Z" fill="#161618" fill-opacity="0.07"/>
  <mask id="mask0" mask-type="alpha" maskUnits="userSpaceOnUse" x="0" y="19" width="112" height="113">
    <path d="M55.8069 131.789C86.6282 131.789 111.614 106.742 111.614 75.8449C111.614 44.9478 86.6282 19.9008 55.8069 19.9008C24.9856 19.9008 0 44.9478 0 75.8449C0 106.742 24.9856 131.789 55.8069 131.789Z" fill="url(#paint0_linear)"/>
  </mask>
  <g mask="url(#mask0)">
    <path d="M27.9171 87.0283C24.0674 93.1516 17.5476 117.957 17.5293 118.012C17.5293 133.32 31.6296 126.372 35.8176 130.46C36.412 130.332 36.8601 130.222 36.9058 130.121C37.2167 129.727 40.8652 90.2916 40.8652 89.5858C40.8652 88.88 34.7295 80.0708 34.7295 80.0708C34.7295 80.0708 31.657 81.0883 27.9171 87.0283Z" fill="url(#paint1_linear)"/>
    <path d="M34.1533 129.36C43.1512 135.126 53.8407 138.453 65.3075 138.453C97.3396 138.453 123.227 113.648 123.227 81.5375C123.227 81.51 123.245 81.2533 123.245 81.2533C118.847 80.1625 92.3011 74.6716 85.0955 73.9841L83.093 78.2466L67.621 81.2166L66.1122 73.0858C66.0299 73.0858 34.7751 80.0433 34.7751 80.0433L34.1533 129.36Z" fill="url(#paint2_linear)"/>
    <path d="M87.2814 74.8458L91.4146 77.11C91.4146 77.11 87.4277 97.79 68.3713 96.7175C49.3148 95.645 57.6726 73.095 57.6726 73.095L87.2814 74.8458Z" fill="url(#paint3_linear)"/>
    <path d="M109.685 118.406C99.0408 130.863 82.947 138.426 65.2987 138.426C53.1096 138.426 43.4807 135.786 34.1445 129.351L34.2451 121.229C74.2875 127.481 109.301 117.993 109.301 117.993L109.685 118.406Z" fill="url(#paint4_linear)"/>
    <path d="M39.4662 99.2567C44.5412 95.3425 48.8024 97.68 48.8024 97.68C48.8024 97.68 86.9245 127.206 94.6239 133.568C91.8989 139.975 75.7686 142.698 70.9679 147.73L36.4395 109.734C36.4212 109.762 34.4004 103.171 39.4662 99.2567Z" fill="url(#paint5_linear)"/>
    <path d="M34.1078 79.0992L26.3993 74.9925C25.9055 74.7084 25.3386 74.58 24.7808 74.6075L19.404 74.9467C19.404 74.9467 16.1029 75.6709 15.0239 75.7442C13.9449 75.8175 14.5301 77.0184 15.2525 77.6784C15.9749 78.3384 18.6359 78.6225 20.1812 78.4667C21.7175 78.3017 23.0708 79.0259 24.607 78.8334L26.9114 80.74L32.8094 80.9142L34.1078 79.0992Z" fill="url(#paint6_linear)"/>
    <path d="M15.2251 77.7242C15.088 77.5959 14.9782 77.4676 14.8594 77.3301C15.5818 78.0909 19.468 77.1467 19.468 77.1467L25.174 77.0459L31.0537 79.5576C31.0537 79.5576 30.121 80.2451 29.2523 80.8317L26.9297 80.7492L24.6254 78.8426C23.0891 79.0259 21.7449 78.3109 20.1996 78.4759C18.6359 78.6592 15.9475 78.3751 15.2251 77.7242Z" fill="url(#paint7_linear)"/>
    <path d="M46.5349 105.426C42.356 109.157 37.1896 110.596 36.6043 109.056C35.9277 106.911 36.5495 101.64 40.0151 99.2933C45.3279 95.6908 49.4336 98.3125 49.4336 98.3125C49.4336 98.3125 50.7412 101.686 46.5349 105.426Z" fill="url(#paint8_linear)"/>
    <path d="M40.9845 107.608L38.9728 105.921L27.506 100.989L26.7104 101.906C26.1435 102.557 25.1651 102.713 24.4427 102.273L21.6263 100.595C21.0319 100.228 20.5564 99.7059 20.2912 99.0734L18.4441 94.7742C18.0143 93.775 17.9777 92.6384 18.3435 91.6025L19.386 88.6142C19.5688 88.055 19.8797 87.5509 20.2821 87.1384L24.5067 82.7017C24.6621 82.555 24.7719 82.3717 24.8907 82.1792C25.2474 81.5559 25.8417 81.1159 26.5093 80.8959L32.5353 79.0534C33.3857 78.7967 34.291 78.9984 34.9128 79.6034L39.0459 83.3984C39.5946 83.9117 40.9113 84.26 41.4966 85.0025C42.5847 86.405 43.4351 88.3667 44.1392 89.7234C44.6696 90.805 46.4344 94.4442 46.4344 94.4442L48.373 96.5984C48.3913 96.6534 49.9001 104.949 40.9845 107.608Z" fill="url(#paint9_linear)"/>
    <path d="M21.1961 89.7875C20.9126 90.0442 21.6533 92.7575 21.6533 92.7575L25.0732 92.1708L43.8462 104.473L44.7332 105.811C43.7547 106.535 42.5386 107.149 41.0206 107.598L39.0089 105.912L27.5421 100.98L26.7466 101.897C26.1796 102.548 25.2012 102.703 24.4788 102.263L21.6624 100.586C21.068 100.219 20.5925 99.6967 20.3274 99.0642L18.4802 94.765C18.0505 93.7658 18.0139 92.6292 18.3796 91.5933L19.4221 88.605C19.605 88.0458 19.9159 87.5417 20.3182 87.1292L24.049 83.1875C24.049 83.1875 22.9426 85.7908 22.1288 87.4133C21.9459 87.7525 26.4448 86.2308 26.2802 86.5333C25.9053 87.2392 21.2875 89.705 21.1961 89.7875Z" fill="url(#paint10_linear)"/>
    <path d="M30.9712 102.483C30.9712 102.483 25.2104 99.2475 23.1163 96.91C21.0223 94.5725 21.9459 97.0383 22.1288 98.1383L21.9825 99.3025C21.9825 99.3025 22.8603 98.5233 23.5187 98.7891C24.1954 99.055 27.5238 100.98 27.5238 100.98L30.9712 102.483Z" fill="url(#paint11_linear)"/>
    <path d="M48.3911 96.6533C48.4185 96.8917 49.6256 99.22 49.6256 99.22C49.6256 99.22 50.0005 102.639 46.288 105.637C42.484 108.707 40.6917 109.037 40.6917 109.037L39.2378 106.141C39.2378 106.141 41.9445 106.581 45.5107 103.006C48.1259 100.393 48.3911 96.6533 48.3911 96.6533Z" fill="url(#paint12_linear)"/>
    <path d="M28.3195 82.5L26.8015 88.3942L26.9204 91.9875C26.9204 91.9875 33.111 97.4508 32.8001 97.2583C32.4801 97.0383 26.6461 95.3792 26.4266 95.5625C26.1889 95.7825 20.5103 94.3433 20.5103 94.3433L18.27 91.8317C18.3066 91.74 18.3066 91.6575 18.3432 91.575L19.3856 88.5867C19.5685 88.0275 19.8794 87.5233 20.2817 87.1108L24.5063 82.6742C24.6618 82.5275 24.7715 82.3442 24.8904 82.1517C25.247 81.5283 25.8414 81.0883 26.5089 80.8958L31.0261 79.5575L28.3195 82.5Z" fill="url(#paint13_linear)"/>
  </g>
  <path d="M86.6593 45.8608C86.6593 45.8608 84.5836 64.9458 86.2204 78.9617C86.2204 78.9617 82.8645 89.9617 71.3245 92.3633C57.5168 95.2325 56.5567 81.4183 55.8252 73.7275C55.0205 65.3033 86.6593 45.8608 86.6593 45.8608Z" fill="url(#paint14_linear)"/>
  <path d="M66.0668 6.3158C66.0668 6.3158 65.573 1.2558 69.8342 0.944136C74.0954 0.632469 79.9202 2.55747 80.5969 5.48164C81.2736 8.39663 78.4663 12.4116 78.4663 12.4116L66.0668 6.3158Z" fill="url(#paint15_linear)"/>
  <path d="M42.5571 49.9308C42.5571 49.9308 34.2908 81.0516 56.5752 86.24C80.1031 91.7124 89.0553 66.7424 86.0651 51.5166C83.075 36.2908 88.1226 44.3483 88.1226 44.3483C88.1226 44.3483 94.807 24.2274 87.2905 15.0974C79.7739 5.95828 63.2047 4.02412 54.728 7.96578C46.2514 11.8983 39.8322 18.7824 41.4416 33.0641C42.5389 42.8908 42.5571 49.9308 42.5571 49.9308Z" fill="url(#paint16_linear)"/>
  <path d="M80.1578 43.0191C80.1578 43.0191 80.2858 59.2624 63.8812 60.9491C46.6718 62.7458 41.3133 50.1049 42.4563 42.4416C43.3433 36.5016 41.0299 31.3133 43.4988 30.3508C45.9677 29.3883 47.4765 33.2933 58.1112 34.0266C68.7184 34.7324 72.3304 29.8283 75.8143 30.5891C79.1702 31.2949 78.3107 36.5841 80.1578 43.0191Z" fill="url(#paint17_linear)"/>
  <path d="M85.2332 43.0742C85.4435 41.9009 87.6747 38.0417 91.4238 39.1417C95.1637 40.2325 90.9025 48.2625 88.4336 49.6742C85.9647 51.0584 86.0653 51.5534 86.0653 51.5534C86.0653 51.5534 84.6571 46.0992 85.2332 43.0742Z" fill="url(#paint18_linear)"/>
  <path d="M86.0376 46.3833C86.0376 46.3833 86.3211 42.5241 89.0552 41.0391C91.7893 39.5541 91.963 41.2774 91.9447 41.5066C91.9173 41.7449 92.8317 42.9366 91.8442 43.3583C90.8566 43.7799 92.0545 44.2199 90.8566 44.9258C89.6587 45.6316 90.2073 45.5216 89.5307 46.6949C88.854 47.8683 87.711 46.5391 87.0617 46.6399C86.4308 46.7499 86.193 46.9608 86.0376 46.3833Z" fill="url(#paint19_linear)"/>
  <path d="M60.6807 47.6392C60.6807 42.4875 64.8596 38.3075 69.9894 38.3075C75.1193 38.3075 79.2982 42.4967 79.2982 47.6392C79.2982 52.7817 75.1193 56.9708 69.9894 56.9708C64.8596 56.9708 60.6807 52.7817 60.6807 47.6392ZM62.5095 47.6392C62.5095 51.7733 65.8654 55.1375 69.9894 55.1375C74.1135 55.1375 77.4694 51.7733 77.4694 47.6392C77.4694 43.505 74.1135 40.1408 69.9894 40.1408C65.8654 40.1408 62.5095 43.4958 62.5095 47.6392Z" fill="white"/>
  <path d="M47.1108 55.3208C44.9345 54.3492 43.1971 52.5525 42.2186 50.2792C41.2402 48.0058 41.1305 45.5033 41.9169 43.2483C42.7124 40.9658 44.3218 39.1967 46.4524 38.28C50.8233 36.3917 56.0355 38.6925 58.0747 43.4225C60.1047 48.1525 58.2027 53.5333 53.8318 55.4217C52.8076 55.8617 51.7195 56.0908 50.6222 56.0908C49.4517 56.0908 48.2538 55.8342 47.1108 55.3208ZM53.1094 53.7442C56.5567 52.25 58.0289 47.9508 56.4013 44.1558C54.7645 40.3608 50.6313 38.4817 47.1839 39.9667C45.5288 40.6817 44.2669 42.0658 43.6451 43.8625C43.0142 45.6867 43.0965 47.7125 43.9012 49.5642C44.6967 51.4158 46.1049 52.8733 47.8606 53.6617C49.5889 54.4225 51.4634 54.4592 53.1094 53.7442Z" fill="white"/>
  <path d="M61.8698 45.595L62.3636 43.8349C62.2722 43.8074 60.0227 43.1841 57.3892 43.6883L57.7366 45.485C59.9221 45.0633 61.8515 45.595 61.8698 45.595Z" fill="white"/>
  <path d="M77.305 44.4583C77.5153 44.4583 77.7257 44.3849 77.8903 44.2383C77.936 44.2016 82.3343 40.5349 87.9946 39.6458C88.4975 39.5633 88.8358 39.0958 88.7535 38.6008C88.6712 38.1058 88.214 37.7666 87.7111 37.8399C81.5205 38.8116 76.9027 42.6799 76.7015 42.8449C76.3175 43.1749 76.2717 43.7524 76.5918 44.1374C76.7838 44.3483 77.0398 44.4583 77.305 44.4583Z" fill="white"/>
  <path d="M74.1502 54.9358C74.1502 54.9358 67.2555 49.8025 64.4756 41.2775C64.4756 41.2775 62.1896 43.2575 61.6958 46.2275C61.202 49.1975 62.0616 52.9558 65.9295 55.0091C69.8158 57.0716 73.7661 55.5866 74.1502 54.9358Z" fill="url(#paint20_linear)"/>
  <path d="M54.5271 53.8908C54.5271 53.8908 47.6324 48.7574 44.8525 40.2324C44.8525 40.2324 42.5665 42.2124 42.0727 45.1824C41.5789 48.1524 42.4385 51.9108 46.3156 53.9641C50.211 56.0266 54.1613 54.5416 54.5271 53.8908Z" fill="url(#paint21_linear)"/>
  <defs>
    <linearGradient id="paint0_linear" x1="32.8345" y1="72.2438" x2="108.72" y2="84.0781" gradientUnits="userSpaceOnUse">
      <stop stop-color="#F2F8FF"/>
      <stop offset="0.4972" stop-color="#E5F2FF"/>
      <stop offset="1" stop-color="#BADBFF"/>
    </linearGradient>
    <linearGradient id="paint1_linear" x1="34.6032" y1="105.161" x2="20.3079" y2="102.931" gradientUnits="userSpaceOnUse">
      <stop stop-color="#881466"/>
      <stop offset="1" stop-color="#BF1466"/>
    </linearGradient>
    <linearGradient id="paint2_linear" x1="105.355" y1="133.548" x2="65.3164" y2="91.3356" gradientUnits="userSpaceOnUse">
      <stop stop-color="#881466"/>
      <stop offset="1" stop-color="#BF1466"/>
    </linearGradient>
    <linearGradient id="paint3_linear" x1="87.5285" y1="69.4995" x2="68.2402" y2="84.0678" gradientUnits="userSpaceOnUse">
      <stop stop-color="#BF1466"/>
      <stop offset="1" stop-color="#F76570"/>
    </linearGradient>
    <linearGradient id="paint4_linear" x1="99.2484" y1="99.9234" x2="62.8858" y2="127.387" gradientUnits="userSpaceOnUse">
      <stop stop-color="#BF1466"/>
      <stop offset="1" stop-color="#F76570"/>
    </linearGradient>
    <linearGradient id="paint5_linear" x1="58.0204" y1="137.568" x2="68.4078" y2="111.442" gradientUnits="userSpaceOnUse">
      <stop stop-color="#881466"/>
      <stop offset="1" stop-color="#BF1466"/>
    </linearGradient>
    <linearGradient id="paint6_linear" x1="28.8492" y1="81.3286" x2="21.4937" y2="76.2125" gradientUnits="userSpaceOnUse">
      <stop stop-color="#F2F8FF"/>
      <stop offset="0.4972" stop-color="#E5F2FF"/>
      <stop offset="1" stop-color="#BADBFF"/>
    </linearGradient>
    <linearGradient id="paint7_linear" x1="18.1099" y1="76.84" x2="29.8363" y2="80.3603" gradientUnits="userSpaceOnUse">
      <stop stop-color="#96C8FF" stop-opacity="0"/>
      <stop offset="1" stop-color="#96C8FF"/>
    </linearGradient>
    <linearGradient id="paint8_linear" x1="38.5139" y1="108.514" x2="44.0446" y2="101.281" gradientUnits="userSpaceOnUse">
      <stop stop-color="#881466"/>
      <stop offset="1" stop-color="#BF1466"/>
    </linearGradient>
    <linearGradient id="paint9_linear" x1="43.0912" y1="86.0852" x2="29.6974" y2="98.7898" gradientUnits="userSpaceOnUse">
      <stop stop-color="#F2F8FF"/>
      <stop offset="0.4972" stop-color="#E5F2FF"/>
      <stop offset="1" stop-color="#BADBFF"/>
    </linearGradient>
    <linearGradient id="paint10_linear" x1="20.1272" y1="95.883" x2="37.4523" y2="95.2188" gradientUnits="userSpaceOnUse">
      <stop stop-color="#6EB3FF"/>
      <stop offset="1" stop-color="#B2D7FF"/>
    </linearGradient>
    <linearGradient id="paint11_linear" x1="30.2917" y1="101.649" x2="24.297" y2="98.76" gradientUnits="userSpaceOnUse">
      <stop stop-color="#96C8FF" stop-opacity="0"/>
      <stop offset="1" stop-color="#96C8FF"/>
    </linearGradient>
    <linearGradient id="paint12_linear" x1="44.7988" y1="96.3485" x2="44.1551" y2="108.161" gradientUnits="userSpaceOnUse">
      <stop stop-color="#F2F8FF"/>
      <stop offset="1" stop-color="#7ABAFF"/>
    </linearGradient>
    <linearGradient id="paint13_linear" x1="23.3511" y1="84.6957" x2="34.7221" y2="95.2914" gradientUnits="userSpaceOnUse">
      <stop stop-color="#96C8FF" stop-opacity="0"/>
      <stop offset="1" stop-color="#96C8FF"/>
    </linearGradient>
    <linearGradient id="paint14_linear" x1="87.5855" y1="86.008" x2="73.9764" y2="68.417" gradientUnits="userSpaceOnUse">
      <stop stop-color="#F2F8FF"/>
      <stop offset="0.4972" stop-color="#E5F2FF"/>
      <stop offset="1" stop-color="#BADBFF"/>
    </linearGradient>
    <linearGradient id="paint15_linear" x1="82.9984" y1="9.67456" x2="69.6795" y2="3.69525" gradientUnits="userSpaceOnUse">
      <stop stop-color="#004FFF"/>
      <stop offset="1" stop-color="#007AFF"/>
    </linearGradient>
    <linearGradient id="paint16_linear" x1="88.5599" y1="50.8967" x2="47.3071" y2="43.4767" gradientUnits="userSpaceOnUse">
      <stop stop-color="#004FFF"/>
      <stop offset="1" stop-color="#007AFF"/>
    </linearGradient>
    <linearGradient id="paint17_linear" x1="62.4046" y1="32.663" x2="58.1394" y2="53.6141" gradientUnits="userSpaceOnUse">
      <stop stop-color="#F2F8FF"/>
      <stop offset="0.4972" stop-color="#E5F2FF"/>
      <stop offset="1" stop-color="#BADBFF"/>
    </linearGradient>
    <linearGradient id="paint18_linear" x1="85.7141" y1="41.1542" x2="89.8283" y2="46.3875" gradientUnits="userSpaceOnUse">
      <stop stop-color="#F2F8FF"/>
      <stop offset="0.4972" stop-color="#E5F2FF"/>
      <stop offset="1" stop-color="#BADBFF"/>
    </linearGradient>
    <linearGradient id="paint19_linear" x1="89.9119" y1="44.4124" x2="87.1084" y2="42.4296" gradientUnits="userSpaceOnUse">
      <stop stop-color="#96C8FF" stop-opacity="0"/>
      <stop offset="1" stop-color="#96C8FF"/>
    </linearGradient>
    <linearGradient id="paint20_linear" x1="75.0681" y1="49.4005" x2="63.069" y2="48.3016" gradientUnits="userSpaceOnUse">
      <stop stop-color="white"/>
      <stop offset="1" stop-color="white" stop-opacity="0"/>
    </linearGradient>
    <linearGradient id="paint21_linear" x1="55.4386" y1="48.3571" x2="43.4395" y2="47.2583" gradientUnits="userSpaceOnUse">
      <stop stop-color="white"/>
      <stop offset="1" stop-color="white" stop-opacity="0"/>
    </linearGradient>
  </defs>
</svg>
