<svg width="115" height="134" viewBox="0 0 115 134" fill="none" xmlns="http://www.w3.org/2000/svg">
  <g clip-path="url(#clip0_3623_5329)">
    <path d="M56.8041 133.786C88.0924 133.786 113.457 108.359 113.457 76.9942C113.457 45.629 88.0924 20.2024 56.8041 20.2024C25.5158 20.2024 0.151611 45.629 0.151611 76.9942C0.151611 108.359 25.5158 133.786 56.8041 133.786Z" fill="#161618" fill-opacity="0.07" />
    <mask id="mask0_3623_5329" style="mask-type:alpha" maskUnits="userSpaceOnUse" x="0" y="20" width="114" height="114">
      <path d="M56.8041 133.786C88.0924 133.786 113.457 108.359 113.457 76.9942C113.457 45.629 88.0924 20.2024 56.8041 20.2024C25.5158 20.2024 0.151611 45.629 0.151611 76.9942C0.151611 108.359 25.5158 133.786 56.8041 133.786Z" fill="url(#paint0_linear_3623_5329)" />
    </mask>
    <g mask="url(#mask0_3623_5329)">
      <path d="M28.4917 88.347C24.5837 94.5631 17.9651 119.744 17.9465 119.8C17.9465 135.34 32.2605 128.286 36.512 132.437C37.1154 132.306 37.5702 132.195 37.6166 132.092C37.9322 131.692 41.636 91.6598 41.636 90.9432C41.636 90.2267 35.4073 81.2841 35.4073 81.2841C35.4073 81.2841 32.2883 82.317 28.4917 88.347Z" fill="url(#paint1_linear_3623_5329)" />
      <path d="M34.8225 131.32C43.9567 137.173 54.8082 140.551 66.4488 140.551C98.9661 140.551 125.246 115.37 125.246 82.7728C125.246 82.7449 125.264 82.4844 125.264 82.4844C120.799 81.377 93.8514 75.803 86.5366 75.1051L84.5037 79.4321L68.7973 82.4471L67.2656 74.1931C67.1821 74.1931 35.4537 81.256 35.4537 81.256L34.8225 131.32Z" fill="url(#paint2_linear_3623_5329)" />
      <path d="M88.755 75.9799L92.9508 78.2784C92.9508 78.2784 88.9035 99.2717 69.5583 98.1829C50.2131 97.0942 58.6975 74.2025 58.6975 74.2025L88.755 75.9799Z" fill="url(#paint3_linear_3623_5329)" />
      <path d="M111.498 120.2C100.693 132.846 84.3551 140.523 66.4395 140.523C54.0656 140.523 44.2909 137.843 34.8132 131.311L34.9153 123.066C75.5644 129.412 111.108 119.781 111.108 119.781L111.498 120.2Z" fill="url(#paint4_linear_3623_5329)" />
      <path d="M28.3284 79.0744C22.0206 77.4798 18.9968 81.3784 18.9968 81.3784C18.9968 81.3784 -4.57519 124.279 -9.17496 133.314C-4.04828 138.18 12.0735 134.198 18.5777 136.945L35.3806 87.6088C35.4088 87.6271 34.6277 80.6727 28.3284 79.0744Z" fill="url(#paint5_linear_3623_5329)" />
      <path d="M25.1739 58.1372L30.6934 51.1981C31.0384 50.734 31.5145 50.3854 32.0451 50.1856L37.1894 48.329C37.1894 48.329 40.5562 47.6695 41.5907 47.3018C42.6251 46.9342 42.5653 48.2889 42.1593 49.1955C41.7532 50.102 39.39 51.4418 37.8878 51.9211C36.3905 52.3881 35.4228 53.6094 33.9144 54.0508L32.5388 56.7575L27.1165 59.3029L25.1739 58.1372Z" fill="url(#paint6_linear_3623_5329)" />
      <path d="M42.2032 49.227C42.2791 49.0521 42.3294 48.8882 42.3846 48.7121C42.0193 49.7126 38.0186 50.4036 38.0186 50.4036L32.664 52.6152L28.2033 57.33C28.2033 57.33 29.3497 57.5934 30.3957 57.7887L32.5254 56.7734L33.9009 54.0667C35.4056 53.6167 36.3686 52.4077 37.8744 51.937C39.4047 51.4759 41.7935 50.125 42.2032 49.227Z" fill="url(#paint7_linear_3623_5329)" />
      <path d="M24.2385 87.6758C29.6376 89.4617 35.0305 88.7145 34.9533 87.0438C34.7167 84.7728 32.008 80.1155 27.8323 79.3304C21.4291 78.1222 18.6648 82.2226 18.6648 82.2226C18.6648 82.2226 18.8101 85.8925 24.2385 87.6758Z" fill="url(#paint8_linear_3623_5329)" />
      <path d="M30.2889 87.4647L31.4809 85.0811L40.1669 75.8552L41.2782 76.3874C42.0692 76.7644 43.0433 76.5142 43.5383 75.8126L45.4833 73.1124C45.8887 72.5307 46.1204 71.852 46.1118 71.1558L46.0948 66.4058C46.0913 65.3016 45.6661 64.2283 44.907 63.4115L42.7287 61.0497C42.3325 60.6029 41.8392 60.259 41.2979 60.0374L35.5709 57.6126C35.3669 57.5389 35.1906 57.4125 35.0021 57.2812C34.4182 56.8448 33.6869 56.6752 32.9763 56.7401L26.62 57.459C25.7243 57.5636 24.9627 58.1172 24.6281 58.9319L22.3124 64.1361C22.0089 64.8358 20.9234 65.6923 20.6784 66.6202C20.2317 68.366 20.2323 70.5365 20.1248 72.0844C20.0679 73.306 19.8948 77.4082 19.8948 77.4082L18.9599 80.1976C18.9651 80.2562 20.912 88.5915 30.2889 87.4647Z" fill="url(#paint9_linear_3623_5329)" />
      <path d="M41.5167 62.8742C41.8844 62.9986 42.2909 65.8248 42.2909 65.8248L38.869 66.6603L26.3568 85.7019L26.0715 87.3066C27.2753 87.5857 28.6561 87.6662 30.2512 87.4712L31.4431 85.0876L40.1292 75.8616L41.2404 76.3938C42.0314 76.7709 43.0055 76.5206 43.5005 75.819L45.4455 73.1188C45.8509 72.5372 46.0826 71.8585 46.074 71.1623L46.0571 66.4122C46.0536 65.3081 45.6284 64.2347 44.8692 63.4179L42.6909 61.0561C42.2947 60.6093 41.8014 60.2654 41.2601 60.0438L36.193 57.8805C36.193 57.8805 38.2753 59.8579 39.6888 61.04C39.9961 61.282 35.1916 61.6827 35.4671 61.8979C36.1014 62.4038 41.3982 62.8343 41.5167 62.8742Z" fill="url(#paint10_linear_3623_5329)" />
      <path d="M37.5433 78.6471C37.5433 78.6471 41.6008 73.306 42.6064 70.283C43.612 67.2601 43.7483 69.9296 44.0224 71.0279L44.6291 72.053C44.6291 72.053 43.4967 71.682 42.991 72.1956C42.4683 72.7166 40.1463 75.8542 40.1463 75.8542L37.5433 78.6471Z" fill="url(#paint11_linear_3623_5329)" />
      <path d="M18.9653 80.2563C19.036 80.4894 18.8527 83.1454 18.8527 83.1454C18.8527 83.1454 19.8851 86.481 24.5536 87.7725C29.337 89.0952 31.1394 88.6784 31.1394 88.6784L31.323 85.3933C31.323 85.3933 28.9801 86.8967 24.2145 85.0084C20.7234 83.6321 18.9653 80.2563 18.9653 80.2563Z" fill="url(#paint12_linear_3623_5329)" />
      <path d="M31.9386 58.9656L35.7337 63.8414L37.0749 67.2358C37.0749 67.2358 33.5173 74.825 33.7291 74.5201C33.9382 74.1859 38.7008 70.2835 38.9793 70.3656C39.2896 70.4744 43.9964 66.8397 43.9964 66.8397L45.0679 63.5954C44.9968 63.5248 44.9634 63.448 44.896 63.3859L42.7178 61.0242C42.3215 60.5773 41.8283 60.2335 41.2869 60.0119L35.56 57.5871C35.356 57.5133 35.1797 57.3869 34.9912 57.2557C34.4072 56.8193 33.6759 56.6497 32.9765 56.7401L28.229 57.319L31.9386 58.9656Z" fill="url(#paint13_linear_3623_5329)" />
    </g>
    <path d="M88.124 46.5557C88.124 46.5557 86.0169 65.9298 87.6785 80.158C87.6785 80.158 84.2717 91.3247 72.5569 93.7627C58.54 96.6754 57.5653 82.6519 56.8227 74.8446C56.0058 66.2927 88.124 46.5557 88.124 46.5557Z" fill="url(#paint14_linear_3623_5329)" />
    <path d="M67.2194 6.41136C67.2194 6.41136 66.7181 1.2747 71.0439 0.958308C75.3696 0.641919 81.2827 2.59608 81.9696 5.56456C82.6566 8.52372 79.8068 12.5996 79.8068 12.5996L67.2194 6.41136Z" fill="url(#paint15_linear_3623_5329)" />
    <path d="M43.3535 50.6873C43.3535 50.6873 34.962 82.2796 57.584 87.5466C81.4684 93.102 90.5562 67.7536 87.5208 52.2971C84.4853 36.8406 89.6094 45.0202 89.6094 45.0202C89.6094 45.0202 96.395 24.5945 88.7646 15.3261C81.1342 6.0485 64.3139 4.08503 55.7089 8.08642C47.1038 12.0785 40.5873 19.067 42.2211 33.565C43.335 43.5406 43.3535 50.6873 43.3535 50.6873Z" fill="url(#paint16_linear_3623_5329)" />
    <path d="M81.5242 43.6708C81.5242 43.6708 81.6542 60.1603 65.001 61.8725C47.5309 63.6964 42.0912 50.864 43.2515 43.0846C44.152 37.0546 41.8034 31.7877 44.3098 30.8106C46.8161 29.8335 48.3478 33.7977 59.1436 34.5421C69.9115 35.2586 73.5782 30.2802 77.1149 31.0525C80.5217 31.769 79.6491 37.1383 81.5242 43.6708Z" fill="url(#paint17_linear_3623_5329)" />
    <path d="M86.6759 43.7266C86.8894 42.5355 89.1544 38.6178 92.9603 39.7345C96.757 40.8419 92.4312 48.9935 89.9249 50.4266C87.4185 51.8317 87.5207 52.3342 87.5207 52.3342C87.5207 52.3342 86.0911 46.7974 86.6759 43.7266Z" fill="url(#paint18_linear_3623_5329)" />
    <path d="M87.4929 47.0861C87.4929 47.0861 87.7807 43.1685 90.5562 41.661C93.3318 40.1534 93.5081 41.9029 93.4896 42.1355C93.4617 42.3775 94.39 43.5872 93.3875 44.0153C92.3849 44.4433 93.601 44.89 92.3849 45.6065C91.1689 46.323 91.7258 46.2114 91.0389 47.4025C90.352 48.5936 89.1917 47.2443 88.5326 47.3467C87.8921 47.4583 87.6507 47.6723 87.4929 47.0861Z" fill="url(#paint19_linear_3623_5329)" />
    <path d="M61.752 48.3608C61.752 43.131 65.9942 38.8877 71.2018 38.8877C76.4094 38.8877 80.6516 43.1403 80.6516 48.3608C80.6516 53.5812 76.4094 57.8338 71.2018 57.8338C65.9942 57.8338 61.752 53.5812 61.752 48.3608ZM63.6085 48.3608C63.6085 52.5576 67.0153 55.9727 71.2018 55.9727C75.3883 55.9727 78.795 52.5576 78.795 48.3608C78.795 44.1639 75.3883 40.7488 71.2018 40.7488C67.0153 40.7488 63.6085 44.1546 63.6085 48.3608Z" fill="white" />
    <path d="M47.9764 56.1589C45.7671 55.1725 44.0034 53.3486 43.0102 51.0408C42.0169 48.733 41.9055 46.1926 42.7038 43.9034C43.5114 41.5864 45.1452 39.7904 47.3081 38.8598C51.7452 36.9429 57.0363 39.2786 59.1064 44.0802C61.1672 48.8819 59.2364 54.3443 54.7992 56.2612C53.7595 56.7079 52.6549 56.9405 51.541 56.9405C50.3528 56.9405 49.1368 56.68 47.9764 56.1589ZM54.0659 54.5583C57.5655 53.0415 59.06 48.6772 57.4077 44.8247C55.7461 40.9722 51.5503 39.0646 48.0507 40.5721C46.3705 41.2979 45.0895 42.703 44.4583 44.5269C43.8178 46.3787 43.9013 48.4352 44.7182 50.315C45.5258 52.1947 46.9553 53.6743 48.7376 54.4746C50.492 55.2469 52.395 55.2841 54.0659 54.5583Z" fill="white" />
    <path d="M62.9587 46.2858L63.46 44.4991C63.3671 44.4712 61.0836 43.8384 58.4102 44.3502L58.7629 46.1741C60.9815 45.746 62.9401 46.2858 62.9587 46.2858Z" fill="white" />
    <path d="M78.6279 45.1318C78.8414 45.1318 79.0549 45.0574 79.222 44.9085C79.2684 44.8713 83.7334 41.149 89.4794 40.2464C89.9899 40.1626 90.3334 39.6881 90.2498 39.1856C90.1663 38.6831 89.7022 38.3387 89.1916 38.4132C82.9072 39.3996 78.2194 43.3265 78.0152 43.494C77.6254 43.829 77.5789 44.4153 77.9038 44.8061C78.0988 45.0201 78.3587 45.1318 78.6279 45.1318Z" fill="white" />
    <path d="M75.4252 55.7679C75.4252 55.7679 68.4261 50.5568 65.6041 41.9026C65.6041 41.9026 63.2834 43.9126 62.7822 46.9276C62.2809 49.9426 63.1535 53.7579 67.0801 55.8423C71.0252 57.9361 75.0354 56.4286 75.4252 55.7679Z" fill="url(#paint20_linear_3623_5329)" />
    <path d="M55.5048 54.7072C55.5048 54.7072 48.5056 49.4961 45.6837 40.8419C45.6837 40.8419 43.363 42.8519 42.8617 45.8669C42.3605 48.8819 43.233 52.6972 47.1689 54.7816C51.1234 56.8754 55.1335 55.3679 55.5048 54.7072Z" fill="url(#paint21_linear_3623_5329)" />
  </g>
  <defs>
    <linearGradient id="paint0_linear_3623_5329" x1="33.4836" y1="73.3385" x2="110.519" y2="85.3521" gradientUnits="userSpaceOnUse">
      <stop stop-color="#F2F8FF" />
      <stop offset="0.4972" stop-color="#E5F2FF" />
      <stop offset="1" stop-color="#BADBFF" />
    </linearGradient>
    <linearGradient id="paint1_linear_3623_5329" x1="35.2791" y1="106.754" x2="20.7672" y2="104.491" gradientUnits="userSpaceOnUse">
      <stop stop-color="#881466" />
      <stop offset="1" stop-color="#BF1466" />
    </linearGradient>
    <linearGradient id="paint2_linear_3623_5329" x1="107.103" y1="135.572" x2="66.4577" y2="92.7194" gradientUnits="userSpaceOnUse">
      <stop stop-color="#881466" />
      <stop offset="1" stop-color="#BF1466" />
    </linearGradient>
    <linearGradient id="paint3_linear_3623_5329" x1="89.0058" y1="70.5526" x2="69.4252" y2="85.3416" gradientUnits="userSpaceOnUse">
      <stop stop-color="#BF1466" />
      <stop offset="1" stop-color="#F76570" />
    </linearGradient>
    <linearGradient id="paint4_linear_3623_5329" x1="100.904" y1="101.437" x2="63.99" y2="129.318" gradientUnits="userSpaceOnUse">
      <stop stop-color="#BF1466" />
      <stop offset="1" stop-color="#F76570" />
    </linearGradient>
    <linearGradient id="paint5_linear_3623_5329" x1="26.5292" y1="122.249" x2="6.29947" y2="102.116" gradientUnits="userSpaceOnUse">
      <stop stop-color="#881466" />
      <stop offset="1" stop-color="#BF1466" />
    </linearGradient>
    <linearGradient id="paint6_linear_3623_5329" x1="30.9719" y1="58.0886" x2="35.7548" y2="50.3521" gradientUnits="userSpaceOnUse">
      <stop stop-color="#F2F8FF" />
      <stop offset="0.4972" stop-color="#E5F2FF" />
      <stop offset="1" stop-color="#BADBFF" />
    </linearGradient>
    <linearGradient id="paint7_linear_3623_5329" x1="39.1595" y1="49.5691" x2="29.6614" y2="57.5857" gradientUnits="userSpaceOnUse">
      <stop stop-color="#96C8FF" stop-opacity="0" />
      <stop offset="1" stop-color="#96C8FF" />
    </linearGradient>
    <linearGradient id="paint8_linear_3623_5329" x1="32.9559" y1="87.3106" x2="24.8827" y2="82.8093" gradientUnits="userSpaceOnUse">
      <stop stop-color="#881466" />
      <stop offset="1" stop-color="#BF1466" />
    </linearGradient>
    <linearGradient id="paint9_linear_3623_5329" x1="19.6308" y1="68.2727" x2="37.2375" y2="74.6924" gradientUnits="userSpaceOnUse">
      <stop stop-color="#F2F8FF" />
      <stop offset="0.4972" stop-color="#E5F2FF" />
      <stop offset="1" stop-color="#BADBFF" />
    </linearGradient>
    <linearGradient id="paint10_linear_3623_5329" x1="44.975" y1="68.1188" x2="28.5723" y2="74.5007" gradientUnits="userSpaceOnUse">
      <stop stop-color="#6EB3FF" />
      <stop offset="1" stop-color="#B2D7FF" />
    </linearGradient>
    <linearGradient id="paint11_linear_3623_5329" x1="37.8389" y1="77.5954" x2="42.2545" y2="72.483" gradientUnits="userSpaceOnUse">
      <stop stop-color="#96C8FF" stop-opacity="0" />
      <stop offset="1" stop-color="#96C8FF" />
    </linearGradient>
    <linearGradient id="paint12_linear_3623_5329" x1="22.1875" y1="78.5209" x2="27.5598" y2="89.2613" gradientUnits="userSpaceOnUse">
      <stop stop-color="#F2F8FF" />
      <stop offset="1" stop-color="#7ABAFF" />
    </linearGradient>
    <linearGradient id="paint13_linear_3623_5329" x1="37.4527" y1="59.0029" x2="31.1444" y2="73.465" gradientUnits="userSpaceOnUse">
      <stop stop-color="#96C8FF" stop-opacity="0" />
      <stop offset="1" stop-color="#96C8FF" />
    </linearGradient>
    <linearGradient id="paint14_linear_3623_5329" x1="89.0643" y1="87.3111" x2="75.249" y2="69.4536" gradientUnits="userSpaceOnUse">
      <stop stop-color="#F2F8FF" />
      <stop offset="0.4972" stop-color="#E5F2FF" />
      <stop offset="1" stop-color="#BADBFF" />
    </linearGradient>
    <linearGradient id="paint15_linear_3623_5329" x1="84.4076" y1="9.82101" x2="70.8869" y2="3.75111" gradientUnits="userSpaceOnUse">
      <stop stop-color="#004FFF" />
      <stop offset="1" stop-color="#007AFF" />
    </linearGradient>
    <linearGradient id="paint16_linear_3623_5329" x1="90.0534" y1="51.6678" x2="48.1755" y2="44.1354" gradientUnits="userSpaceOnUse">
      <stop stop-color="#004FFF" />
      <stop offset="1" stop-color="#007AFF" />
    </linearGradient>
    <linearGradient id="paint17_linear_3623_5329" x1="63.502" y1="33.1579" x2="59.1722" y2="54.4264" gradientUnits="userSpaceOnUse">
      <stop stop-color="#F2F8FF" />
      <stop offset="0.4972" stop-color="#E5F2FF" />
      <stop offset="1" stop-color="#BADBFF" />
    </linearGradient>
    <linearGradient id="paint18_linear_3623_5329" x1="87.1642" y1="41.7775" x2="91.3407" y2="47.0901" gradientUnits="userSpaceOnUse">
      <stop stop-color="#F2F8FF" />
      <stop offset="0.4972" stop-color="#E5F2FF" />
      <stop offset="1" stop-color="#BADBFF" />
    </linearGradient>
    <linearGradient id="paint19_linear_3623_5329" x1="91.4259" y1="45.0853" x2="88.5799" y2="43.0725" gradientUnits="userSpaceOnUse">
      <stop stop-color="#96C8FF" stop-opacity="0" />
      <stop offset="1" stop-color="#96C8FF" />
    </linearGradient>
    <linearGradient id="paint20_linear_3623_5329" x1="76.3571" y1="50.1487" x2="64.1762" y2="49.0331" gradientUnits="userSpaceOnUse">
      <stop stop-color="white" />
      <stop offset="1" stop-color="white" stop-opacity="0" />
    </linearGradient>
    <linearGradient id="paint21_linear_3623_5329" x1="56.4301" y1="49.0897" x2="44.2492" y2="47.9742" gradientUnits="userSpaceOnUse">
      <stop stop-color="white" />
      <stop offset="1" stop-color="white" stop-opacity="0" />
    </linearGradient>
    <clipPath id="clip0_3623_5329">
      <rect width="114.178" height="134" fill="white" transform="translate(0.151611)" />
    </clipPath>
  </defs>
</svg>
    