<?xml version="1.0" encoding="utf-8"?>
<!-- Generator: Adobe Illustrator 23.0.6, SVG Export Plug-In . SVG Version: 6.00 Build 0)  -->
<svg version="1.1" id="Layer_1" xmlns="http://www.w3.org/2000/svg" xmlns:xlink="http://www.w3.org/1999/xlink" x="0px" y="0px"
	 viewBox="0 0 890.42 690.49" style="enable-background:new 0 0 890.42 690.49;" xml:space="preserve">
<style type="text/css">
	.st0{fill:#FFFFFF;}
	.st1{fill:#AD1457;}
	.st2{fill:#9C134E;}
	.st3{fill:#1976D2;}
	.st4{fill:#CECECE;}
	.st5{fill:#E0E0E0;}
	.st6{fill:#8EC7FF;}
	.st7{fill:none;stroke:#FFFFFF;stroke-width:4;stroke-miterlimit:10;}
	.st8{fill:#EDEDED;}
	.st9{fill:#285E97;}
	.st10{fill:#A6A7A7;}
	.st11{fill:none;stroke:#8EC7FF;stroke-width:6;stroke-miterlimit:10;}
	.st12{fill:none;stroke:url(#SVGID_1_);stroke-width:6;stroke-miterlimit:10;}
	.st13{opacity:0.35;fill:#8EC7FF;}
	.st14{opacity:0.56;fill:#8EC7FF;}
	.st15{fill:#E2E1E1;}
	.st16{fill:#EFEEEE;}
	.st17{fill:#666665;}
	.st18{fill:#CEE2EE;}
	.st19{clip-path:url(#SVGID_3_);}
	.st20{clip-path:url(#SVGID_3_);fill:#8EC7FF;}
	.st21{clip-path:url(#SVGID_3_);fill:#83B4E2;}
	.st22{clip-path:url(#SVGID_3_);fill:#FFFFFF;}
	.st23{clip-path:url(#SVGID_3_);fill:#1976D2;}
	.st24{clip-path:url(#SVGID_3_);fill:none;stroke:#FFFFFF;stroke-width:0.3;stroke-miterlimit:10;}
	.st25{fill:#CACACA;}
	.st26{fill:#F0F0F0;stroke:#E5E5E5;stroke-miterlimit:10;}
	.st27{fill:none;stroke:url(#SVGID_4_);stroke-width:6;stroke-miterlimit:10;}
	.st28{fill:#B0B0B0;}
	.st29{clip-path:url(#SVGID_6_);fill:#194FD2;}
	.st30{clip-path:url(#SVGID_6_);fill:#1976D2;}
	.st31{clip-path:url(#SVGID_6_);fill:#8EC7FF;}
	.st32{clip-path:url(#SVGID_8_);}
	.st33{fill:#FAFAFA;}
	.st34{fill:#E62A3E;}
	.st35{fill:#FFD762;}
	.st36{fill:#66B556;}
	.st37{fill:#E5004A;}
	.st38{fill:url(#SVGID_9_);stroke:#82C788;stroke-width:0.4;stroke-miterlimit:10;}
	.st39{fill:#999998;}
	.st40{fill:url(#SVGID_10_);stroke:#D0D0D0;stroke-width:0.4;stroke-miterlimit:10;}
	.st41{fill:none;stroke:#D0D0D0;stroke-width:0.4;stroke-miterlimit:10;}
	.st42{fill:none;}
	.st43{fill:#DCDCDC;}
	.st44{opacity:0.18;fill:#AD1457;}
	.st45{fill:url(#SVGID_11_);stroke:#D0D0D0;stroke-width:0.4;stroke-miterlimit:10;}
	.st46{fill:#F2F2F2;}
	.st47{fill:none;stroke:#1976D2;stroke-miterlimit:10;}
	.st48{fill:none;stroke:#D6D6D6;stroke-miterlimit:10;}
	.st49{clip-path:url(#SVGID_15_);}
	.st50{clip-path:url(#SVGID_15_);fill:#8EC7FF;}
	.st51{clip-path:url(#SVGID_15_);fill:#83B4E2;}
	.st52{clip-path:url(#SVGID_15_);fill:#FFFFFF;}
	.st53{clip-path:url(#SVGID_15_);fill:#1976D2;}
	.st54{clip-path:url(#SVGID_15_);fill:none;stroke:#FFFFFF;stroke-width:0.3;stroke-miterlimit:10;}
	.st55{clip-path:url(#SVGID_21_);}
	.st56{clip-path:url(#SVGID_21_);fill:#8EC7FF;}
	.st57{clip-path:url(#SVGID_21_);fill:#83B4E2;}
	.st58{clip-path:url(#SVGID_21_);fill:#FFFFFF;}
	.st59{clip-path:url(#SVGID_21_);fill:#1976D2;}
	.st60{clip-path:url(#SVGID_21_);fill:none;stroke:#FFFFFF;stroke-width:0.3;stroke-miterlimit:10;}
	.st61{fill:#F0F0F0;}
	.st62{fill:url(#SVGID_24_);stroke:#FBE9B4;stroke-width:0.4;stroke-miterlimit:10;}
	.st63{fill:#E9E9E9;}
	.st64{fill:url(#SVGID_25_);}
	.st65{fill:#1D1D1B;}
	.st66{fill:#E5E5E5;}
	.st67{clip-path:url(#SVGID_27_);fill:#194FD2;}
	.st68{clip-path:url(#SVGID_27_);fill:#1976D2;}
	.st69{clip-path:url(#SVGID_27_);fill:#8EC7FF;}
</style>
<g>
	<ellipse class="st2" cx="401.48" cy="672.49" rx="401.48" ry="18"/>
	<path class="st3" d="M784.91,445.19c0,0,15,12.97,21.89,19.86c6.89,6.89,26.95,10.01,32.37-2.65
		c12.52-29.22,37.35-39.1,39.78-74.36c2.43-35.26-7.81-38.69-14.3-45.99c-6.49-7.3-15.7,4.49-26.23,15.71
		c-10.54,11.23-19.82,36.5-36.66,44.94C784.91,411.14,784.91,445.19,784.91,445.19z"/>
	<polygon class="st4" points="594.83,272.58 602.83,178.58 487.83,169.58 479.83,295.58 584.83,288.58 	"/>
	<polygon class="st5" points="597.83,272.58 605.83,178.58 490.83,169.58 482.83,295.58 587.83,288.58 	"/>
	<path class="st0" d="M744.18,496.97c1.65,63.6-6.36,168.25-190.47,180.13c-184.11,11.88-273.5,3.57-313.08-0.26
		C151.6,668.23,13.3,415.59,109.48,316.89c109.14-112.01,215.62-39.13,254.65-10.53C403.15,334.96,740.59,358.55,744.18,496.97z"/>
	<path class="st4" d="M308.76,194.46c0,0,30.44-3.8,49.93,19.32s108.79,110.8,108.79,110.8l-53.21,37.25L308.76,194.46z"/>
	<path class="st6" d="M247.68,447.89l115.53-92.77l213.15-90.02c15.48-4.14,31.95-2.24,46.08,5.33L802.55,399.9
		c0,0-12.63,50.09-17.63,50.13c-5,0.04-196.84-100.71-196.84-100.71L298.14,513.6L247.68,447.89z"/>
	<path class="st5" d="M207.15,200.69c0,0-27.74,19.63-48.45,42.89s59.92,266.54,117.21,238.41
		c114.78-56.35,96.13-114.52,148.7-151.83c-16.75-39.14-66.43-121.36-105.88-133.35S207.15,200.69,207.15,200.69z"/>
	<path class="st6" d="M210.13,225.48c8.39,13.98,80.48,1.79,71.16-20.29c-9.79-23.2-27.57-96.69-27.57-96.69l-71.16,20.29
		C182.56,128.79,198.01,205.29,210.13,225.48z"/>
	<g>
		<circle class="st3" cx="226.93" cy="45.5" r="45.5"/>
		<circle class="st3" cx="197.31" cy="80.08" r="50"/>
		<path class="st6" d="M177.04,107.45c0,0,9.29,3.29,12.45-1.61c3.16-4.9,5.47-14.83,0.76-23.99c-4.71-9.15-7.51-20.51,2.25-26.57
			c0.01-0.01,0.03-0.02,0.04-0.02c9.8-6.02,32.47,3.69,52.44,4.32c6.4,0.2,10.57-0.69,13.29-2c5.5-3.12,4.08-9.45,4.08-9.45
			c12.39,19.4,14.42,40.47,14.42,40.47l0,0c0.27,2.21,0.36,4.33,0.2,6.25c-1.2,14.28,6.39,9.52,6.22,32.88
			c-0.17,23.35-6.42,52.38-17.15,54.27c-13.69,2.42-32.42,0.86-51-13.28c-18.58-14.15-21.86-20.39-25.85-34.53
			c-5.06,2.34-14.22-1.37-18.25-7.81C166.53,119.35,168.38,107.09,177.04,107.45z"/>
		<path class="st3" d="M191.08,102.73c0,0,17.77,23.74,50.49,32.79c32.73,9.05,40.12-10.14,39.67-23.95c0,0,45.59,74.02-5.91,95.06
			c-38.17,15.6-77.74-9.48-82.69-42.65c-5.05-33.83-0.63-43.04-10.71-55.5C170.52,94.36,191.08,102.73,191.08,102.73z"/>
		<circle class="st7" cx="225.59" cy="102.52" r="19.76"/>
		<circle class="st7" cx="272.79" cy="94.95" r="19.76"/>
		<line class="st7" x1="256.13" y1="84.33" x2="237.67" y2="86.89"/>
		<line class="st7" x1="205.58" y1="103.35" x2="180.43" y2="107.55"/>
	</g>
	<path class="st8" d="M195.67,262.06c-8.92-11-46.65-43.68-51.26,20.47c-3.6,50.16,74.79,140.75,104.38,173.02
		c6.39,6.96,16.73,8.59,24.94,3.91L432.6,323.36l-18.78-35.78L273.8,389.12C273.8,389.12,213.46,284,195.67,262.06z"/>
	<g>
		<path class="st9" d="M773.87,496.94c0,0,52.52,1.47,73.91,3.55c21.39,2.09,16.7-6.76,30.78-9.64
			c14.09-2.88,15.13,10.68,5.74,29.47c-9.39,18.78-25.57,36.52-49.57,40.7s-55.3,5.22-67.3,8.35s-14.09-9.91-16.17-21.91
			s-9.39-24-9.39-24L773.87,496.94z"/>
		<path class="st3" d="M515.88,390.16l62.78-36.35c20.82-12.06,47.15-8.62,64.18,8.38L775.8,494.88l-32.4,34.58L515.88,390.16z"/>
		<path class="st3" d="M553.71,413.32c0,0-34.9-25.07-66.39-6.91l43.5-24.9L553.71,413.32z"/>
	</g>
	
		<ellipse transform="matrix(0.9874 -0.1585 0.1585 0.9874 -72.2062 62.2766)" class="st0" cx="354.27" cy="483.75" rx="122" ry="38.46"/>
	<polygon class="st10" points="479.83,295.58 429.83,315.58 435.83,324.58 508.83,293.58 	"/>
	<polygon class="st4" points="482.83,294.58 482.83,299.58 432.6,319.74 429.83,315.58 479.83,295.58 	"/>
	<path class="st10" d="M471.81,302.31l6.86-2.64c0.43-0.16,0.64-0.64,0.47-1.07l-0.13-0.32c-0.16-0.43-0.64-0.64-1.07-0.47
		l-6.86,2.64c-0.43,0.16-0.64,0.64-0.47,1.07l0.13,0.32C470.91,302.26,471.39,302.47,471.81,302.31z"/>
	<circle class="st10" cx="468.29" cy="302.59" r="0.82"/>
	
		<ellipse transform="matrix(0.0572 -0.9984 0.9984 0.0572 292.3429 769.9585)" class="st0" cx="553.84" cy="230.19" rx="10.17" ry="6.68"/>
	<path class="st3" d="M576.82,427.47c0,0-58.21-30.63-136.56,5.61l67.09-38.13l69.46-3.89V427.47z"/>
	<ellipse class="st0" cx="239.17" cy="474.63" rx="58.64" ry="33.5"/>
	<path class="st6" d="M444.83,273.58c10.45-2.46,25.8,1.5,36.08,4.92l-1.08,17.08l-26.15,10.46c0,0-11.64,11.26-24.81,10.19
		l-13.03-24.65C415.83,291.58,427.83,277.58,444.83,273.58z"/>
</g>
</svg>
