<svg width="389" height="389" viewBox="0 0 389 389" fill="none" xmlns="http://www.w3.org/2000/svg">
<rect width="389" height="389" fill="#0C9AB6"/>
<path d="M179.15 203.12L172.17 196.24L172.56 193.5C172.56 193.5 173.25 190 178.73 186.68C176.31 187.86 174.78 186.82 173.03 184.98C166.16 177.77 158.89 170.92 152.36 163.42C146.38 156.55 139.17 153.72 130.33 154.24C129.05 156.04 129.83 157.06 131.69 157.42C137.74 158.59 141.42 162.94 144.93 167.4C150.4 174.36 154.69 182.07 158.8 189.88C160.08 192.32 161.22 194.86 163.59 196.51C164.11 196.9 164.72 197.56 165.31 197.22C169.97 194.57 172.51 196.8 174.54 200.9C175.02 201.87 174.12 203.4 172.83 205.11L179.13 203.11L179.15 203.12Z" fill="#E0E4E5"/>
<path d="M174.65 201.871C174.66 201.811 174.67 201.751 174.68 201.701C174.68 201.761 174.66 201.811 174.65 201.871Z" fill="#C5E7ED"/>
<path d="M173.69 185.642C173.69 185.642 173.66 185.612 173.64 185.592C173.66 185.612 173.67 185.622 173.69 185.642Z" fill="#C5E7ED"/>
<path d="M174.29 186.16C174.29 186.16 174.33 186.19 174.35 186.2C174.33 186.19 174.31 186.17 174.29 186.16Z" fill="#C5E7ED"/>
<path d="M174.94 186.621L174.99 186.651L174.94 186.621Z" fill="#C5E7ED"/>
<path d="M173.29 204.521C173.29 204.521 173.35 204.431 173.39 204.381C173.36 204.431 173.33 204.471 173.29 204.521Z" fill="#C5E7ED"/>
<path d="M173.68 203.942C173.72 203.882 173.76 203.822 173.79 203.762C173.75 203.822 173.72 203.882 173.68 203.942Z" fill="#C5E7ED"/>
<path d="M320.32 233.001C301.49 219.391 282.66 205.761 263.81 192.171C257.11 187.341 250.76 181.891 242.42 179.911C238.03 177.901 233.77 178.451 229.46 180.341C223.23 183.081 216.97 185.801 210.58 188.151C204.26 190.481 201.41 188.191 201.66 181.601C202.04 171.321 202.64 161.051 203.57 150.801C203.78 148.431 203.23 146.551 201.31 145.131C199.1 147.621 199.76 150.761 199.54 153.631C198.85 162.561 198.28 171.511 197.9 180.461C197.72 184.661 196.52 186.551 191.94 185.081C187.69 183.721 183.28 183.921 179.42 186.301C179.18 186.451 178.96 186.561 178.74 186.671C173.26 189.991 172.57 193.491 172.57 193.491L172.18 196.231L179.16 203.111L172.86 205.111C171.83 206.481 170.57 207.971 169.56 209.391C170.21 213.071 171.8 216.671 169.37 220.391C160.39 234.111 147.99 241.561 131.37 241.391C128.71 243.501 125.89 245.421 123.52 247.911C122.04 249.461 121.44 251.021 122.24 253.041C124.49 255.051 127.03 254.981 129.75 254.211C143.63 250.271 157.77 248.681 172.2 248.861C178.34 248.941 183.54 245.711 188.32 242.021C194.84 239.921 201.29 237.651 207.29 234.251C216.24 229.181 225.05 223.881 234.02 218.841C243.12 213.731 251.14 214.651 258.65 221.561C261.58 224.261 264.4 227.091 267.09 230.011C269.39 232.511 271.94 233.761 275.32 232.981C279.61 235.161 283.86 237.421 288.2 239.501C296.86 243.651 305.01 248.861 314.18 251.931C316.45 251.171 318.23 250.021 319.01 247.501C319.98 244.361 321.13 241.291 321.95 238.101C322.51 235.931 322.04 234.341 320.35 233.001H320.32Z" fill="#C5E7ED"/>
<path d="M174.31 202.85C174.34 202.78 174.37 202.72 174.4 202.65C174.37 202.72 174.34 202.78 174.31 202.85Z" fill="#C5E7ED"/>
<path d="M174.03 203.391C174.07 203.321 174.11 203.261 174.14 203.191C174.1 203.261 174.07 203.321 174.03 203.391Z" fill="#C5E7ED"/>
<path d="M174.58 202.15C174.56 202.21 174.54 202.28 174.52 202.34C174.54 202.28 174.57 202.21 174.58 202.15Z" fill="#C5E7ED"/>
<path d="M130.34 154.251C137.98 155.131 142.74 160.251 147.07 165.821C154.05 174.811 159.29 184.861 164.32 195.021C167.15 197.801 164.14 198.791 162.63 199.851C154.22 205.781 146.12 212.141 137.65 217.991C133 221.191 128.6 224.731 123.92 227.891C118.43 231.601 116.65 231.351 113.34 225.641C106.27 213.431 98.9502 201.371 91.5502 189.361C89.5302 186.091 87.2602 183.061 84.4802 180.401C81.9902 178.011 79.2202 176.321 75.6002 176.761C74.2302 176.921 73.3102 176.551 73.1602 175.041C77.6502 168.431 83.7702 163.541 90.1702 158.951C91.6902 157.821 92.9002 158.001 93.7102 159.811C96.2202 165.431 101.03 165.871 106.25 165.391C109.25 165.121 112.02 164.001 114.89 163.221C118.44 162.241 120.07 160.291 119.25 156.571C121.8 154.021 124.47 151.911 128.35 153.891C129.01 154.011 129.68 154.131 130.34 154.241V154.251Z" fill="#C2CACC"/>
<path d="M73.1601 175.041C77.4701 172.211 81.0201 174.021 84.4801 176.811C90.4601 181.641 94.0501 188.291 97.9501 194.661C103.69 204.031 109.23 213.521 114.82 222.981C117.77 227.971 118.76 228.361 123.25 225.101C136.98 215.131 150.64 205.051 164.33 195.021C169.277 192.154 173.227 193.334 176.18 198.561C177.07 200.141 178.16 201.601 179.16 203.121L179.21 203.161L172.22 210.041C169.85 217.071 163.24 220.181 158.35 224.841C154.03 228.951 149.13 232.451 144.74 236.501C141.11 239.851 136.78 242.031 132.31 243.991C128.73 246.761 124.97 249.341 122.23 253.051C118.65 251.231 114.93 249.301 110.95 249.361C105.33 249.441 101.7 246.921 98.4201 242.721C86.6501 227.671 74.1601 213.081 69.0701 194.011C68.7801 192.941 67.9101 192.031 67.3101 191.051C69.2701 188.501 68.7001 185.311 69.4901 182.461C70.2401 179.761 70.6501 176.871 73.1701 175.051L73.1601 175.041Z" fill="#E0E4E5"/>
<path d="M188.3 242.031C203.29 233.431 218.25 224.771 233.27 216.231C243.51 210.411 252.36 211.741 260.9 220.021C265.54 224.511 269.61 229.651 275.29 232.991C275.46 235.441 277.49 236.601 278.94 238.111C289.26 248.851 300.42 258.771 310.2 270.041C310.25 270.851 310.9 271.781 310.27 272.441C306.57 276.331 304.09 281.541 298.52 283.431C298.33 283.311 298.18 283.141 298.08 282.931C276.81 269.851 255.8 256.301 234.16 243.871C222.77 237.331 209.82 237.841 197.12 240.531C194.2 241.151 191.37 242.311 188.3 242.021V242.031Z" fill="#096D81"/>
<path d="M242.42 179.921C231.39 181.501 221.61 186.611 211.51 190.831C210.15 191.401 208.64 191.741 207.17 191.901C199.43 192.741 197.99 191.141 198.6 183.461C199.62 170.701 200.41 157.921 201.3 145.141C214.9 146.121 228.5 147.141 242.1 148.051C244.54 148.211 245.26 149.411 245.05 151.601C244.16 161.041 243.29 170.481 242.41 179.911L242.42 179.921Z" fill="#C2CACC"/>
<path d="M298.52 283.441C301.23 277.951 305.64 273.931 310.2 270.051C317.84 270.381 325.49 270.761 333.13 271.021C337.96 271.191 342.76 271.281 347.27 268.881C349.06 267.931 351.21 267.801 352.86 269.451C354.37 270.961 353.9 272.831 353.44 274.631C350.71 285.391 342.15 293.241 331.05 294.821C323.64 295.871 316.16 296.471 308.74 297.461C304.59 298.011 302.48 296.121 301.49 292.371C300.69 289.331 300.49 286.091 298.53 283.431L298.52 283.441Z" fill="#E0E4E5"/>
<path d="M124.09 155.69C123.15 156.46 122.28 157.34 121.32 158.08C117.71 163.62 112.25 163.96 106.5 163.25C97.6001 162.15 91.5201 157.36 88.2901 148.98C86.6001 146.31 87.2101 143.13 86.3501 140.28C85.4001 136.08 85.3601 131.7 83.2601 127.73C81.9901 125.33 81.8701 122.71 84.1001 120.55C87.0301 118.6 89.5501 119.79 91.6901 121.88C93.1401 123.3 94.8601 124.19 96.5301 125.19C99.4001 126.9 102.08 128.61 105.67 129.15C112.33 130.15 117.72 129.4 120.71 122.54C121.55 122.28 122.21 122.4 122.42 123.39C123.52 126.5 124.65 129.6 125.72 132.71C127.68 138.39 129.21 144.12 127.49 150.19V150.23C126.9 152.35 125.79 154.28 124.09 155.68V155.69Z" fill="#096D81"/>
<path d="M314.14 251.94C317.33 246 318.93 239.54 320.31 233C324.12 231.83 326.1 228.68 328.15 225.65C331.14 221.25 333.82 216.62 337.83 213C341.8 209.41 344.69 209.65 347.4 214.5C351.75 222.3 350.9 230.55 346.95 237.97C343.23 244.96 338.39 251.44 333.47 257.7C330.46 261.53 326.3 260.17 322.61 257.99C319.61 256.22 317.61 253.04 314.14 251.93V251.94Z" fill="#C2CACC"/>
<path d="M79.9801 128.709C75.0301 124.429 69.8901 117.469 70.1501 110.179C70.4201 102.729 73.8701 97.5892 79.9201 93.9192C82.2701 92.4992 84.0501 90.7692 85.5301 88.4592C90.0401 81.4392 97.8901 78.5192 105.38 80.8492C112.99 83.2192 117.33 89.3292 117.36 97.8192C117.36 99.9792 117.16 102.129 117.05 104.289C112.71 105.559 108.32 105.829 103.86 105.059C101.24 104.609 98.6101 104.119 95.9701 103.769C89.0001 102.859 87.4401 104.579 89.0701 111.469C89.8901 114.919 89.9101 118.029 86.6901 120.329C85.8601 120.639 84.9401 120.739 84.1601 121.199C81.5001 122.479 83.5301 128.289 79.9901 128.719L79.9801 128.709Z" fill="#096D81"/>
<path d="M86.0502 119.861C87.9002 116.421 86.8702 113.161 85.6902 109.761C83.4002 103.141 86.2402 99.7305 93.1802 100.631C97.1402 101.141 101.06 101.901 105.01 102.521C107.17 102.861 109.5 103.141 111.37 101.991C114.54 100.061 115.87 101.761 117.04 104.271C117.51 105.511 117.98 106.761 118.44 108.001C117.26 111.021 115.17 112.141 111.86 112.861C104.81 114.401 97.0802 114.351 91.4602 120.311C90.6302 121.191 87.8002 120.941 86.0402 119.841L86.0502 119.861Z" fill="#C5E7ED"/>
<path d="M88.28 148.981C92.14 152.581 95.33 156.901 100.5 158.991C107.65 161.881 114.49 161.041 121.31 158.081C121.21 162.081 118.88 164.321 115.42 165.811C109.94 168.171 104.22 168.401 98.42 167.911C95.7 167.681 94.23 166.271 93.15 164.501C91.15 161.231 89.9 157.551 89.18 153.771L88.27 148.971L88.28 148.981Z" fill="#C5E7ED"/>
<path d="M83.4199 120.211L85.2499 122.051C84.2099 125.751 86.4499 129.231 86.2599 132.891C86.1299 135.351 86.2999 137.821 86.3399 140.291C85.1999 135.961 83.2299 132.141 80.1999 128.971C77.7799 126.441 78.3799 122.221 81.5799 120.811C82.1299 120.571 82.7399 120.371 83.4099 120.221L83.4199 120.211Z" fill="#C5E7ED"/>
<path d="M96.2599 127.16C96.2599 127.16 91.6099 123.82 90.4199 120.8C89.2299 117.78 100.72 111.57 100.72 111.57L108.45 110L117.41 108.83L119.02 109.84C119.02 109.84 116.03 116.37 115.89 116.48C115.75 116.59 114.08 121.73 114.08 121.73L112.76 124.52L106.94 126.13L99.5499 128.43L96.2699 127.15L96.2599 127.16Z" fill="#C5E7ED"/>
<path d="M123.52 250.961C136.47 239.231 158.57 220.961 172.22 210.051C175.29 215.901 172.76 220.001 169.25 225.091C160.14 238.311 134.87 258.651 123.52 250.951V250.961Z" fill="#C2CACC"/>
<path d="M170.87 208.699C179.74 200.739 193.04 193.699 202.93 193.619C195.22 197.309 182.39 212.059 173.48 212.739C172.7 210.779 170.87 208.699 170.87 208.699Z" fill="#E0E4E5"/>
<path d="M96.26 127.159C101.49 127.129 104.44 126.599 106.1 124.309C107.76 122.019 110.99 121.259 113.24 123.029C115.17 124.549 117.7 125.019 121.2 124.029C118.73 131.719 115.41 133.709 107.48 132.079C103.41 131.239 99.55 129.809 96.25 127.159H96.26Z" fill="#C5E7ED"/>
<path d="M99.85 110.439C95.1 110.439 91.25 114.289 91.25 119.039C91.25 123.789 95.1 127.639 99.85 127.639C104.6 127.639 108.45 123.789 108.45 119.039C108.45 114.289 104.6 110.439 99.85 110.439ZM99.85 125.959C96.03 125.959 92.93 122.859 92.93 119.039C92.93 115.219 96.03 112.119 99.85 112.119C103.67 112.119 106.77 115.219 106.77 119.039C106.77 122.859 103.67 125.959 99.85 125.959Z" fill="white"/>
<path d="M117.4 107.891C112.85 107.891 109.16 111.741 109.16 116.491C109.16 121.241 112.85 125.091 117.4 125.091C121.95 125.091 125.64 121.241 125.64 116.491C125.64 111.741 121.95 107.891 117.4 107.891ZM117.4 123.221C113.84 123.221 110.95 120.211 110.95 116.491C110.95 112.771 113.84 109.761 117.4 109.761C120.96 109.761 123.85 112.771 123.85 116.491C123.85 120.211 120.96 123.221 117.4 123.221Z" fill="white"/>
<path d="M227.65 168.111C227.4 169.461 227.02 170.861 225.39 170.811C223.66 170.761 223.5 169.261 223.52 167.931C223.54 166.551 223.96 165.161 225.65 165.261C227.26 165.361 227.61 166.721 227.64 168.101L227.65 168.111Z" fill="#EFF2F2"/>
<path d="M119.24 110.04C119.24 110.04 114.55 108.73 111.87 112.88C110.28 115.34 110.67 119.13 112.92 121.33C115.42 123.77 118.63 123.66 120.84 122.18C120.15 118.23 117.06 114 119.24 110.04Z" fill="#C5E7ED"/>
<path d="M292.67 276.379C275.83 265.949 258.77 255.859 242.07 245.219C227.8 236.129 212.81 234.219 196.81 238.819C195.56 239.179 194.44 239.549 193.47 238.989C191.23 237.719 189.32 238.569 187.33 239.459C181.54 243.559 175.42 246.789 168.03 246.529C155.29 246.069 142.85 247.939 130.55 251.139C128.42 251.689 126.17 253.009 123.84 251.589C119.95 248.439 115.38 246.989 110.52 246.569C107 246.269 104.21 244.899 101.76 242.399C98.48 239.059 95.74 235.289 92.97 231.559C84.16 219.669 75.04 207.929 71.71 193.019C71.12 190.389 69.46 190.179 67.31 191.039C49.28 202.729 41.67 219.449 42.99 240.679C43.52 249.189 45.3 257.449 47.53 265.869C47.55 265.919 47.96 267.049 48.75 269.019C53.42 280.639 71.18 321.139 97.4 336.679C99.67 338.019 101.31 339.419 102.45 340.839C104.42 341.279 106.45 341.539 108.55 341.629C121.05 342.169 133.55 342.589 146.06 342.599C170.31 342.609 194.56 342.569 218.8 341.759C231.76 341.329 244.59 340.179 257.02 336.219C259.2 335.519 262.14 335.399 262.18 331.959C274.59 326.389 285.41 319.019 291.8 306.429C295.57 299.009 297.12 291.069 298.1 282.939C298.58 278.879 295.15 277.899 292.69 276.379H292.67Z" fill="#EFF2F2"/>
<path d="M114.36 344C95.4101 343.37 76.4501 342.85 57.5001 342.06C42.7301 341.44 27.9301 341.02 13.3701 338.02V337.02C22.6201 333.71 32.3701 333.95 41.9401 333.27C55.8701 332.29 69.8501 332.02 83.8001 331.36C86.9001 331.21 89.5801 331.68 92.1701 333.65C99.1701 338.97 107.59 339.36 115.9 339.92C145.15 341.87 174.41 341.63 203.67 340.2C220.93 339.36 238.26 339.12 255.03 334.1C257.41 333.39 259.79 332.68 262.17 331.97C280.99 332.42 299.81 332.94 318.76 336.25C317.46 339.41 315.34 339.04 313.71 339.21C304.13 340.2 294.54 341.27 284.92 341.84C274.14 342.49 263.33 342.62 252.54 343.02C206.49 344.72 160.42 343.79 114.36 344V344Z" fill="#096D81"/>
<path d="M105.7 114.36C105.7 114.36 107.31 112.76 110.88 113.53" stroke="white" stroke-width="2" stroke-miterlimit="10"/>
</svg>
